<svg width="1440" height="535" viewBox="0 0 1440 535" fill="none" xmlns="http://www.w3.org/2000/svg">
  <defs>
    <filter id="shadow">
      <feDropShadow dx="0.2" dy="0.4" stdDeviation="0.2"/>
    </filter>
  </defs>
  
 <circle cx="5" cy="50%" r="4"
      style="fill:pink; filter:url(#shadow);"/>

<path fill-rule="evenodd" clip-rule="evenodd" d="M0 120.07L40 169.532C80 218.993 160 317.917 240 317.917C320 317.917 400 218.993 480 198.384C560 179.149 640 238.229 720 257.464C800 278.073 880 257.464 960 198.384C1040 139.305 1120 40.3811 1200 10.1544C1280 -18.6984 1360 21.1459 1400 40.3811L1440 59.6163V535H1400C1360 535 1280 535 1200 535C1120 535 1040 535 960 535C880 535 800 535 720 535C640 535 560 535 480 535C400 535 320 535 240 535C160 535 80 535 40 535H0V120.07Z" fill="#1CA7EC"/>
</svg>
