<svg width="1441" height="962" viewBox="0 0 1441 962" fill="none" xmlns="http://www.w3.org/2000/svg">
<g clip-path="url(#clip0)">
<rect width="1440" height="962" fill="#149BDE"/>
<path d="M1251.69 497.373C1253.17 497.373 1254.37 496.17 1254.37 494.686C1254.37 493.203 1253.17 492 1251.69 492C1250.2 492 1249 493.203 1249 494.686C1249 496.17 1250.2 497.373 1251.69 497.373Z" fill="white"/>
<path d="M1275.85 497.373C1277.33 497.373 1278.54 496.17 1278.54 494.686C1278.54 493.203 1277.33 492 1275.85 492C1274.37 492 1273.16 493.203 1273.16 494.686C1273.16 496.17 1274.37 497.373 1275.85 497.373Z" fill="white"/>
<path d="M1300.01 497.373C1301.5 497.373 1302.7 496.17 1302.7 494.686C1302.7 493.203 1301.5 492 1300.01 492C1298.53 492 1297.33 493.203 1297.33 494.686C1297.33 496.17 1298.53 497.373 1300.01 497.373Z" fill="white"/>
<path d="M1326.86 494.686C1326.86 496.165 1325.65 497.373 1324.17 497.373C1322.7 497.373 1321.49 496.165 1321.49 494.686C1321.49 493.208 1322.7 492 1324.17 492C1325.65 492 1326.86 493.208 1326.86 494.686Z" fill="white"/>
<path d="M1351.02 494.686C1351.02 496.165 1349.82 497.373 1348.34 497.373C1346.86 497.373 1345.65 496.165 1345.65 494.686C1345.65 493.208 1346.86 492 1348.34 492C1349.82 492 1351.02 493.208 1351.02 494.686Z" fill="white"/>
<path d="M1372.5 497.373C1373.98 497.373 1375.19 496.17 1375.19 494.686C1375.19 493.203 1373.98 492 1372.5 492C1371.02 492 1369.81 493.203 1369.81 494.686C1369.81 496.17 1371.02 497.373 1372.5 497.373Z" fill="white"/>
<path d="M1396.66 497.373C1398.15 497.373 1399.35 496.17 1399.35 494.686C1399.35 493.203 1398.15 492 1396.66 492C1395.18 492 1393.98 493.203 1393.98 494.686C1393.98 496.17 1395.18 497.373 1396.66 497.373Z" fill="white"/>
<path d="M1420.83 497.373C1422.31 497.373 1423.51 496.17 1423.51 494.686C1423.51 493.203 1422.31 492 1420.83 492C1419.34 492 1418.14 493.203 1418.14 494.686C1418.14 496.17 1419.34 497.373 1420.83 497.373Z" fill="white"/>
<path d="M1251.69 518.849C1253.17 518.849 1254.37 517.646 1254.37 516.163C1254.37 514.679 1253.17 513.476 1251.69 513.476C1250.2 513.476 1249 514.679 1249 516.163C1249 517.646 1250.2 518.849 1251.69 518.849Z" fill="white"/>
<path d="M1275.85 518.849C1277.33 518.849 1278.54 517.646 1278.54 516.163C1278.54 514.679 1277.33 513.476 1275.85 513.476C1274.37 513.476 1273.16 514.679 1273.16 516.163C1273.16 517.646 1274.37 518.849 1275.85 518.849Z" fill="white"/>
<path d="M1300.01 518.849C1301.5 518.849 1302.7 517.646 1302.7 516.163C1302.7 514.679 1301.5 513.476 1300.01 513.476C1298.53 513.476 1297.33 514.679 1297.33 516.163C1297.33 517.646 1298.53 518.849 1300.01 518.849Z" fill="white"/>
<path d="M1326.86 516.163C1326.86 517.641 1325.65 518.849 1324.17 518.849C1322.7 518.849 1321.49 517.641 1321.49 516.163C1321.49 514.684 1322.7 513.476 1324.17 513.476C1325.65 513.476 1326.86 514.684 1326.86 516.163Z" fill="white"/>
<path d="M1351.02 516.163C1351.02 517.641 1349.82 518.849 1348.34 518.849C1346.86 518.849 1345.65 517.641 1345.65 516.163C1345.65 514.684 1346.86 513.476 1348.34 513.476C1349.82 513.476 1351.02 514.684 1351.02 516.163Z" fill="white"/>
<path d="M1372.5 518.849C1373.98 518.849 1375.19 517.646 1375.19 516.163C1375.19 514.679 1373.98 513.476 1372.5 513.476C1371.02 513.476 1369.81 514.679 1369.81 516.163C1369.81 517.646 1371.02 518.849 1372.5 518.849Z" fill="white"/>
<path d="M1396.66 518.849C1398.15 518.849 1399.35 517.646 1399.35 516.163C1399.35 514.679 1398.15 513.476 1396.66 513.476C1395.18 513.476 1393.98 514.679 1393.98 516.163C1393.98 517.646 1395.18 518.849 1396.66 518.849Z" fill="white"/>
<path d="M1420.83 518.849C1422.31 518.849 1423.51 517.646 1423.51 516.163C1423.51 514.679 1422.31 513.476 1420.83 513.476C1419.34 513.476 1418.14 514.679 1418.14 516.163C1418.14 517.646 1419.34 518.849 1420.83 518.849Z" fill="white"/>
<path d="M1251.69 540.325C1253.17 540.325 1254.37 539.123 1254.37 537.639C1254.37 536.155 1253.17 534.952 1251.69 534.952C1250.2 534.952 1249 536.155 1249 537.639C1249 539.123 1250.2 540.325 1251.69 540.325Z" fill="white"/>
<path d="M1275.85 540.325C1277.33 540.325 1278.54 539.123 1278.54 537.639C1278.54 536.155 1277.33 534.952 1275.85 534.952C1274.37 534.952 1273.16 536.155 1273.16 537.639C1273.16 539.123 1274.37 540.325 1275.85 540.325Z" fill="white"/>
<path d="M1300.01 540.325C1301.5 540.325 1302.7 539.123 1302.7 537.639C1302.7 536.155 1301.5 534.952 1300.01 534.952C1298.53 534.952 1297.33 536.155 1297.33 537.639C1297.33 539.123 1298.53 540.325 1300.01 540.325Z" fill="white"/>
<path d="M1326.86 537.639C1326.86 539.117 1325.65 540.325 1324.17 540.325C1322.7 540.325 1321.49 539.117 1321.49 537.639C1321.49 536.161 1322.7 534.952 1324.17 534.952C1325.65 534.952 1326.86 536.161 1326.86 537.639Z" fill="white"/>
<path d="M1351.02 537.639C1351.02 539.117 1349.82 540.325 1348.34 540.325C1346.86 540.325 1345.65 539.117 1345.65 537.639C1345.65 536.161 1346.86 534.952 1348.34 534.952C1349.82 534.952 1351.02 536.161 1351.02 537.639Z" fill="white"/>
<path d="M1372.5 540.325C1373.98 540.325 1375.19 539.123 1375.19 537.639C1375.19 536.155 1373.98 534.952 1372.5 534.952C1371.02 534.952 1369.81 536.155 1369.81 537.639C1369.81 539.123 1371.02 540.325 1372.5 540.325Z" fill="white"/>
<path d="M1396.66 540.325C1398.15 540.325 1399.35 539.123 1399.35 537.639C1399.35 536.155 1398.15 534.952 1396.66 534.952C1395.18 534.952 1393.98 536.155 1393.98 537.639C1393.98 539.123 1395.18 540.325 1396.66 540.325Z" fill="white"/>
<path d="M1420.83 540.325C1422.31 540.325 1423.51 539.123 1423.51 537.639C1423.51 536.155 1422.31 534.952 1420.83 534.952C1419.34 534.952 1418.14 536.155 1418.14 537.639C1418.14 539.123 1419.34 540.325 1420.83 540.325Z" fill="white"/>
<path d="M1254.37 559.115C1254.37 560.593 1253.16 561.801 1251.69 561.801C1250.21 561.801 1249 560.593 1249 559.115C1249 557.637 1250.21 556.428 1251.69 556.428C1253.16 556.428 1254.37 557.637 1254.37 559.115Z" fill="white"/>
<path d="M1278.54 559.115C1278.54 560.593 1277.33 561.801 1275.85 561.801C1274.37 561.801 1273.16 560.593 1273.16 559.115C1273.16 557.637 1274.37 556.428 1275.85 556.428C1277.33 556.428 1278.54 557.637 1278.54 559.115Z" fill="white"/>
<path d="M1302.7 559.115C1302.7 560.593 1301.49 561.801 1300.01 561.801C1298.53 561.801 1297.33 560.593 1297.33 559.115C1297.33 557.637 1298.53 556.428 1300.01 556.428C1301.49 556.428 1302.7 557.637 1302.7 559.115Z" fill="white"/>
<path d="M1326.86 559.115C1326.86 560.593 1325.65 561.801 1324.17 561.801C1322.7 561.801 1321.49 560.593 1321.49 559.115C1321.49 557.637 1322.7 556.428 1324.17 556.428C1325.65 556.428 1326.86 557.637 1326.86 559.115Z" fill="white"/>
<path d="M1351.02 559.115C1351.02 560.593 1349.82 561.801 1348.34 561.801C1346.86 561.801 1345.65 560.593 1345.65 559.115C1345.65 557.637 1346.86 556.428 1348.34 556.428C1349.82 556.428 1351.02 557.637 1351.02 559.115Z" fill="white"/>
<path d="M1375.19 559.115C1375.19 560.593 1373.98 561.801 1372.5 561.801C1371.02 561.801 1369.81 560.593 1369.81 559.115C1369.81 557.637 1371.02 556.428 1372.5 556.428C1373.98 556.428 1375.19 557.637 1375.19 559.115Z" fill="white"/>
<path d="M1399.35 559.115C1399.35 560.593 1398.14 561.801 1396.66 561.801C1395.18 561.801 1393.98 560.593 1393.98 559.115C1393.98 557.637 1395.18 556.428 1396.66 556.428C1398.14 556.428 1399.35 557.637 1399.35 559.115Z" fill="white"/>
<path d="M1423.51 559.115C1423.51 560.593 1422.3 561.801 1420.83 561.801C1419.35 561.801 1418.14 560.593 1418.14 559.115C1418.14 557.637 1419.35 556.428 1420.83 556.428C1422.3 556.428 1423.51 557.637 1423.51 559.115Z" fill="white"/>
<path d="M1254.37 580.591C1254.37 582.07 1253.16 583.278 1251.69 583.278C1250.21 583.278 1249 582.07 1249 580.591C1249 579.113 1250.21 577.905 1251.69 577.905C1253.16 577.905 1254.37 579.113 1254.37 580.591Z" fill="white"/>
<path d="M1278.54 580.591C1278.54 582.07 1277.33 583.278 1275.85 583.278C1274.37 583.278 1273.16 582.07 1273.16 580.591C1273.16 579.113 1274.37 577.905 1275.85 577.905C1277.33 577.905 1278.54 579.113 1278.54 580.591Z" fill="white"/>
<path d="M1302.7 580.591C1302.7 582.07 1301.49 583.278 1300.01 583.278C1298.53 583.278 1297.33 582.07 1297.33 580.591C1297.33 579.113 1298.53 577.905 1300.01 577.905C1301.49 577.905 1302.7 579.113 1302.7 580.591Z" fill="white"/>
<path d="M1326.86 580.591C1326.86 582.07 1325.65 583.278 1324.17 583.278C1322.7 583.278 1321.49 582.07 1321.49 580.591C1321.49 579.113 1322.7 577.905 1324.17 577.905C1325.65 577.905 1326.86 579.113 1326.86 580.591Z" fill="white"/>
<path d="M1351.02 580.591C1351.02 582.07 1349.82 583.278 1348.34 583.278C1346.86 583.278 1345.65 582.07 1345.65 580.591C1345.65 579.113 1346.86 577.905 1348.34 577.905C1349.82 577.905 1351.02 579.113 1351.02 580.591Z" fill="white"/>
<path d="M1375.19 580.591C1375.19 582.07 1373.98 583.278 1372.5 583.278C1371.02 583.278 1369.81 582.07 1369.81 580.591C1369.81 579.113 1371.02 577.905 1372.5 577.905C1373.98 577.905 1375.19 579.113 1375.19 580.591Z" fill="white"/>
<path d="M1399.35 580.591C1399.35 582.07 1398.14 583.278 1396.66 583.278C1395.18 583.278 1393.98 582.07 1393.98 580.591C1393.98 579.113 1395.18 577.905 1396.66 577.905C1398.14 577.905 1399.35 579.113 1399.35 580.591Z" fill="white"/>
<path d="M1423.51 580.591C1423.51 582.07 1422.3 583.278 1420.83 583.278C1419.35 583.278 1418.14 582.07 1418.14 580.591C1418.14 579.113 1419.35 577.905 1420.83 577.905C1422.3 577.905 1423.51 579.113 1423.51 580.591Z" fill="white"/>
<path d="M1254.37 602.067C1254.37 603.546 1253.16 604.754 1251.69 604.754C1250.21 604.754 1249 603.546 1249 602.067C1249 600.589 1250.21 599.381 1251.69 599.381C1253.16 599.381 1254.37 600.589 1254.37 602.067Z" fill="white"/>
<path d="M1278.54 602.067C1278.54 603.546 1277.33 604.754 1275.85 604.754C1274.37 604.754 1273.16 603.546 1273.16 602.067C1273.16 600.589 1274.37 599.381 1275.85 599.381C1277.33 599.381 1278.54 600.589 1278.54 602.067Z" fill="white"/>
<path d="M1302.7 602.067C1302.7 603.546 1301.49 604.754 1300.01 604.754C1298.53 604.754 1297.33 603.546 1297.33 602.067C1297.33 600.589 1298.53 599.381 1300.01 599.381C1301.49 599.381 1302.7 600.589 1302.7 602.067Z" fill="white"/>
<path d="M1326.86 602.067C1326.86 603.546 1325.65 604.754 1324.17 604.754C1322.7 604.754 1321.49 603.546 1321.49 602.067C1321.49 600.589 1322.7 599.381 1324.17 599.381C1325.65 599.381 1326.86 600.589 1326.86 602.067Z" fill="white"/>
<path d="M1351.02 602.067C1351.02 603.546 1349.82 604.754 1348.34 604.754C1346.86 604.754 1345.65 603.546 1345.65 602.067C1345.65 600.589 1346.86 599.381 1348.34 599.381C1349.82 599.381 1351.02 600.589 1351.02 602.067Z" fill="white"/>
<path d="M1375.19 602.067C1375.19 603.546 1373.98 604.754 1372.5 604.754C1371.02 604.754 1369.81 603.546 1369.81 602.067C1369.81 600.589 1371.02 599.381 1372.5 599.381C1373.98 599.381 1375.19 600.589 1375.19 602.067Z" fill="white"/>
<path d="M1399.35 602.067C1399.35 603.546 1398.14 604.754 1396.66 604.754C1395.18 604.754 1393.98 603.546 1393.98 602.067C1393.98 600.589 1395.18 599.381 1396.66 599.381C1398.14 599.381 1399.35 600.589 1399.35 602.067Z" fill="white"/>
<path d="M1423.51 602.067C1423.51 603.546 1422.3 604.754 1420.83 604.754C1419.35 604.754 1418.14 603.546 1418.14 602.067C1418.14 600.589 1419.35 599.381 1420.83 599.381C1422.3 599.381 1423.51 600.589 1423.51 602.067Z" fill="white"/>
<path d="M1251.69 626.23C1253.17 626.23 1254.37 625.027 1254.37 623.544C1254.37 622.06 1253.17 620.857 1251.69 620.857C1250.2 620.857 1249 622.06 1249 623.544C1249 625.027 1250.2 626.23 1251.69 626.23Z" fill="white"/>
<path d="M1275.85 626.23C1277.33 626.23 1278.54 625.027 1278.54 623.544C1278.54 622.06 1277.33 620.857 1275.85 620.857C1274.37 620.857 1273.16 622.06 1273.16 623.544C1273.16 625.027 1274.37 626.23 1275.85 626.23Z" fill="white"/>
<path d="M1300.01 626.23C1301.5 626.23 1302.7 625.027 1302.7 623.544C1302.7 622.06 1301.5 620.857 1300.01 620.857C1298.53 620.857 1297.33 622.06 1297.33 623.544C1297.33 625.027 1298.53 626.23 1300.01 626.23Z" fill="white"/>
<path d="M1326.86 623.544C1326.86 625.022 1325.65 626.23 1324.17 626.23C1322.7 626.23 1321.49 625.022 1321.49 623.544C1321.49 622.065 1322.7 620.857 1324.17 620.857C1325.65 620.873 1326.86 622.065 1326.86 623.544Z" fill="white"/>
<path d="M1351.02 623.544C1351.02 625.022 1349.82 626.23 1348.34 626.23C1346.86 626.23 1345.65 625.022 1345.65 623.544C1345.65 622.065 1346.86 620.857 1348.34 620.857C1349.82 620.873 1351.02 622.065 1351.02 623.544Z" fill="white"/>
<path d="M1372.5 626.23C1373.98 626.23 1375.19 625.027 1375.19 623.544C1375.19 622.06 1373.98 620.857 1372.5 620.857C1371.02 620.857 1369.81 622.06 1369.81 623.544C1369.81 625.027 1371.02 626.23 1372.5 626.23Z" fill="white"/>
<path d="M1396.66 626.23C1398.15 626.23 1399.35 625.027 1399.35 623.544C1399.35 622.06 1398.15 620.857 1396.66 620.857C1395.18 620.857 1393.98 622.06 1393.98 623.544C1393.98 625.027 1395.18 626.23 1396.66 626.23Z" fill="white"/>
<path d="M1420.83 626.23C1422.31 626.23 1423.51 625.027 1423.51 623.544C1423.51 622.06 1422.31 620.857 1420.83 620.857C1419.34 620.857 1418.14 622.06 1418.14 623.544C1418.14 625.027 1419.34 626.23 1420.83 626.23Z" fill="white"/>
<path d="M1254.37 645.036C1254.37 646.514 1253.16 647.722 1251.69 647.722C1250.21 647.722 1249 646.514 1249 645.036C1249 643.557 1250.21 642.349 1251.69 642.349C1253.16 642.349 1254.37 643.541 1254.37 645.036Z" fill="white"/>
<path d="M1278.54 645.036C1278.54 646.514 1277.33 647.722 1275.85 647.722C1274.37 647.722 1273.16 646.514 1273.16 645.036C1273.16 643.557 1274.37 642.349 1275.85 642.349C1277.33 642.349 1278.54 643.541 1278.54 645.036Z" fill="white"/>
<path d="M1302.7 645.036C1302.7 646.514 1301.49 647.722 1300.01 647.722C1298.53 647.722 1297.33 646.514 1297.33 645.036C1297.33 643.557 1298.53 642.349 1300.01 642.349C1301.49 642.349 1302.7 643.541 1302.7 645.036Z" fill="white"/>
<path d="M1326.86 645.036C1326.86 646.514 1325.65 647.722 1324.17 647.722C1322.7 647.722 1321.49 646.514 1321.49 645.036C1321.49 643.557 1322.7 642.349 1324.17 642.349C1325.65 642.349 1326.86 643.541 1326.86 645.036Z" fill="white"/>
<path d="M1351.02 645.036C1351.02 646.514 1349.82 647.722 1348.34 647.722C1346.86 647.722 1345.65 646.514 1345.65 645.036C1345.65 643.557 1346.86 642.349 1348.34 642.349C1349.82 642.349 1351.02 643.541 1351.02 645.036Z" fill="white"/>
<path d="M1375.19 645.036C1375.19 646.514 1373.98 647.722 1372.5 647.722C1371.02 647.722 1369.81 646.514 1369.81 645.036C1369.81 643.557 1371.02 642.349 1372.5 642.349C1373.98 642.349 1375.19 643.541 1375.19 645.036Z" fill="white"/>
<path d="M1399.35 645.036C1399.35 646.514 1398.14 647.722 1396.66 647.722C1395.18 647.722 1393.98 646.514 1393.98 645.036C1393.98 643.557 1395.18 642.349 1396.66 642.349C1398.14 642.349 1399.35 643.541 1399.35 645.036Z" fill="white"/>
<path d="M1423.51 645.036C1423.51 646.514 1422.3 647.722 1420.83 647.722C1419.35 647.722 1418.14 646.514 1418.14 645.036C1418.14 643.557 1419.35 642.349 1420.83 642.349C1422.3 642.349 1423.51 643.541 1423.51 645.036Z" fill="white"/>
<path d="M1254.37 666.512C1254.37 667.99 1253.16 669.198 1251.69 669.198C1250.21 669.198 1249 667.99 1249 666.512C1249 665.034 1250.21 663.825 1251.69 663.825C1253.16 663.825 1254.37 665.018 1254.37 666.512Z" fill="white"/>
<path d="M1278.54 666.512C1278.54 667.99 1277.33 669.198 1275.85 669.198C1274.37 669.198 1273.16 667.99 1273.16 666.512C1273.16 665.034 1274.37 663.825 1275.85 663.825C1277.33 663.825 1278.54 665.018 1278.54 666.512Z" fill="white"/>
<path d="M1302.7 666.512C1302.7 667.99 1301.49 669.198 1300.01 669.198C1298.53 669.198 1297.33 667.99 1297.33 666.512C1297.33 665.034 1298.53 663.825 1300.01 663.825C1301.49 663.825 1302.7 665.018 1302.7 666.512Z" fill="white"/>
<path d="M1326.86 666.512C1326.86 667.99 1325.65 669.198 1324.17 669.198C1322.7 669.198 1321.49 667.99 1321.49 666.512C1321.49 665.034 1322.7 663.825 1324.17 663.825C1325.65 663.825 1326.86 665.018 1326.86 666.512Z" fill="white"/>
<path d="M1351.02 666.512C1351.02 667.99 1349.82 669.198 1348.34 669.198C1346.86 669.198 1345.65 667.99 1345.65 666.512C1345.65 665.034 1346.86 663.825 1348.34 663.825C1349.82 663.825 1351.02 665.018 1351.02 666.512Z" fill="white"/>
<path d="M1375.19 666.512C1375.19 667.99 1373.98 669.198 1372.5 669.198C1371.02 669.198 1369.81 667.99 1369.81 666.512C1369.81 665.034 1371.02 663.825 1372.5 663.825C1373.98 663.825 1375.19 665.018 1375.19 666.512Z" fill="white"/>
<path d="M1399.35 666.512C1399.35 667.99 1398.14 669.198 1396.66 669.198C1395.18 669.198 1393.98 667.99 1393.98 666.512C1393.98 665.034 1395.18 663.825 1396.66 663.825C1398.14 663.825 1399.35 665.018 1399.35 666.512Z" fill="white"/>
<path d="M1423.51 666.512C1423.51 667.99 1422.3 669.198 1420.83 669.198C1419.35 669.198 1418.14 667.99 1418.14 666.512C1418.14 665.034 1419.35 663.825 1420.83 663.825C1422.3 663.825 1423.51 665.018 1423.51 666.512Z" fill="white"/>
<path d="M1254.37 687.988C1254.37 689.466 1253.16 690.675 1251.69 690.675C1250.21 690.675 1249 689.466 1249 687.988C1249 686.51 1250.21 685.302 1251.69 685.302C1253.16 685.302 1254.37 686.51 1254.37 687.988Z" fill="white"/>
<path d="M1278.54 687.988C1278.54 689.466 1277.33 690.675 1275.85 690.675C1274.37 690.675 1273.16 689.466 1273.16 687.988C1273.16 686.51 1274.37 685.302 1275.85 685.302C1277.33 685.302 1278.54 686.51 1278.54 687.988Z" fill="white"/>
<path d="M1302.7 687.988C1302.7 689.466 1301.49 690.675 1300.01 690.675C1298.53 690.675 1297.33 689.466 1297.33 687.988C1297.33 686.51 1298.53 685.302 1300.01 685.302C1301.49 685.302 1302.7 686.51 1302.7 687.988Z" fill="white"/>
<path d="M1326.86 687.988C1326.86 689.466 1325.65 690.675 1324.17 690.675C1322.7 690.675 1321.49 689.466 1321.49 687.988C1321.49 686.51 1322.7 685.302 1324.17 685.302C1325.65 685.302 1326.86 686.51 1326.86 687.988Z" fill="white"/>
<path d="M1351.02 687.988C1351.02 689.466 1349.82 690.675 1348.34 690.675C1346.86 690.675 1345.65 689.466 1345.65 687.988C1345.65 686.51 1346.86 685.302 1348.34 685.302C1349.82 685.302 1351.02 686.51 1351.02 687.988Z" fill="white"/>
<path d="M1375.19 687.988C1375.19 689.466 1373.98 690.675 1372.5 690.675C1371.02 690.675 1369.81 689.466 1369.81 687.988C1369.81 686.51 1371.02 685.302 1372.5 685.302C1373.98 685.302 1375.19 686.51 1375.19 687.988Z" fill="white"/>
<path d="M1399.35 687.988C1399.35 689.466 1398.14 690.675 1396.66 690.675C1395.18 690.675 1393.98 689.466 1393.98 687.988C1393.98 686.51 1395.18 685.302 1396.66 685.302C1398.14 685.302 1399.35 686.51 1399.35 687.988Z" fill="white"/>
<path d="M1423.51 687.988C1423.51 689.466 1422.3 690.675 1420.83 690.675C1419.35 690.675 1418.14 689.466 1418.14 687.988C1418.14 686.51 1419.35 685.302 1420.83 685.302C1422.3 685.302 1423.51 686.51 1423.51 687.988Z" fill="white"/>
<path d="M1251.69 712.151C1253.17 712.151 1254.37 710.948 1254.37 709.464C1254.37 707.981 1253.17 706.778 1251.69 706.778C1250.2 706.778 1249 707.981 1249 709.464C1249 710.948 1250.2 712.151 1251.69 712.151Z" fill="white"/>
<path d="M1275.85 712.151C1277.33 712.151 1278.54 710.948 1278.54 709.464C1278.54 707.981 1277.33 706.778 1275.85 706.778C1274.37 706.778 1273.16 707.981 1273.16 709.464C1273.16 710.948 1274.37 712.151 1275.85 712.151Z" fill="white"/>
<path d="M1300.01 712.151C1301.5 712.151 1302.7 710.948 1302.7 709.464C1302.7 707.981 1301.5 706.778 1300.01 706.778C1298.53 706.778 1297.33 707.981 1297.33 709.464C1297.33 710.948 1298.53 712.151 1300.01 712.151Z" fill="white"/>
<path d="M1326.86 709.464C1326.86 710.943 1325.65 712.151 1324.17 712.151C1322.7 712.151 1321.49 710.943 1321.49 709.464C1321.49 707.986 1322.7 706.778 1324.17 706.778C1325.65 706.778 1326.86 707.986 1326.86 709.464Z" fill="white"/>
<path d="M1351.02 709.464C1351.02 710.943 1349.82 712.151 1348.34 712.151C1346.86 712.151 1345.65 710.943 1345.65 709.464C1345.65 707.986 1346.86 706.778 1348.34 706.778C1349.82 706.778 1351.02 707.986 1351.02 709.464Z" fill="white"/>
<path d="M1372.5 712.151C1373.98 712.151 1375.19 710.948 1375.19 709.464C1375.19 707.981 1373.98 706.778 1372.5 706.778C1371.02 706.778 1369.81 707.981 1369.81 709.464C1369.81 710.948 1371.02 712.151 1372.5 712.151Z" fill="white"/>
<path d="M1396.66 712.151C1398.15 712.151 1399.35 710.948 1399.35 709.464C1399.35 707.981 1398.15 706.778 1396.66 706.778C1395.18 706.778 1393.98 707.981 1393.98 709.464C1393.98 710.948 1395.18 712.151 1396.66 712.151Z" fill="white"/>
<path d="M1420.83 712.151C1422.31 712.151 1423.51 710.948 1423.51 709.464C1423.51 707.981 1422.31 706.778 1420.83 706.778C1419.34 706.778 1418.14 707.981 1418.14 709.464C1418.14 710.948 1419.34 712.151 1420.83 712.151Z" fill="white"/>
<path d="M1254.37 730.94C1254.37 732.419 1253.16 733.627 1251.69 733.627C1250.21 733.627 1249 732.419 1249 730.94C1249 729.462 1250.21 728.254 1251.69 728.254C1253.16 728.254 1254.37 729.462 1254.37 730.94Z" fill="white"/>
<path d="M1278.54 730.94C1278.54 732.419 1277.33 733.627 1275.85 733.627C1274.37 733.627 1273.16 732.419 1273.16 730.94C1273.16 729.462 1274.37 728.254 1275.85 728.254C1277.33 728.254 1278.54 729.462 1278.54 730.94Z" fill="white"/>
<path d="M1302.7 730.94C1302.7 732.419 1301.49 733.627 1300.01 733.627C1298.53 733.627 1297.33 732.419 1297.33 730.94C1297.33 729.462 1298.53 728.254 1300.01 728.254C1301.49 728.254 1302.7 729.462 1302.7 730.94Z" fill="white"/>
<path d="M1326.86 730.94C1326.86 732.419 1325.65 733.627 1324.17 733.627C1322.7 733.627 1321.49 732.419 1321.49 730.94C1321.49 729.462 1322.7 728.254 1324.17 728.254C1325.65 728.254 1326.86 729.462 1326.86 730.94Z" fill="white"/>
<path d="M1351.02 730.94C1351.02 732.419 1349.82 733.627 1348.34 733.627C1346.86 733.627 1345.65 732.419 1345.65 730.94C1345.65 729.462 1346.86 728.254 1348.34 728.254C1349.82 728.254 1351.02 729.462 1351.02 730.94Z" fill="white"/>
<path d="M1375.19 730.94C1375.19 732.419 1373.98 733.627 1372.5 733.627C1371.02 733.627 1369.81 732.419 1369.81 730.94C1369.81 729.462 1371.02 728.254 1372.5 728.254C1373.98 728.254 1375.19 729.462 1375.19 730.94Z" fill="white"/>
<path d="M1399.35 730.94C1399.35 732.419 1398.14 733.627 1396.66 733.627C1395.18 733.627 1393.98 732.419 1393.98 730.94C1393.98 729.462 1395.18 728.254 1396.66 728.254C1398.14 728.254 1399.35 729.462 1399.35 730.94Z" fill="white"/>
<path d="M1423.51 730.94C1423.51 732.419 1422.3 733.627 1420.83 733.627C1419.35 733.627 1418.14 732.419 1418.14 730.94C1418.14 729.462 1419.35 728.254 1420.83 728.254C1422.3 728.254 1423.51 729.462 1423.51 730.94Z" fill="white"/>
<path d="M205.687 650.373C207.17 650.373 208.373 649.17 208.373 647.686C208.373 646.203 207.17 645 205.687 645C204.203 645 203 646.203 203 647.686C203 649.17 204.203 650.373 205.687 650.373Z" fill="white"/>
<path d="M229.849 650.373C231.333 650.373 232.536 649.17 232.536 647.686C232.536 646.203 231.333 645 229.849 645C228.365 645 227.163 646.203 227.163 647.686C227.163 649.17 228.365 650.373 229.849 650.373Z" fill="white"/>
<path d="M254.012 650.373C255.495 650.373 256.698 649.17 256.698 647.686C256.698 646.203 255.495 645 254.012 645C252.528 645 251.325 646.203 251.325 647.686C251.325 649.17 252.528 650.373 254.012 650.373Z" fill="white"/>
<path d="M280.861 647.686C280.861 649.165 279.653 650.373 278.175 650.373C276.696 650.373 275.488 649.165 275.488 647.686C275.488 646.208 276.696 645 278.175 645C279.653 645 280.861 646.208 280.861 647.686Z" fill="white"/>
<path d="M305.024 647.686C305.024 649.165 303.816 650.373 302.337 650.373C300.859 650.373 299.651 649.165 299.651 647.686C299.651 646.208 300.859 645 302.337 645C303.816 645 305.024 646.208 305.024 647.686Z" fill="white"/>
<path d="M326.5 650.373C327.984 650.373 329.187 649.17 329.187 647.686C329.187 646.203 327.984 645 326.5 645C325.016 645 323.813 646.203 323.813 647.686C323.813 649.17 325.016 650.373 326.5 650.373Z" fill="white"/>
<path d="M350.663 650.373C352.146 650.373 353.349 649.17 353.349 647.686C353.349 646.203 352.146 645 350.663 645C349.179 645 347.976 646.203 347.976 647.686C347.976 649.17 349.179 650.373 350.663 650.373Z" fill="white"/>
<path d="M374.825 650.373C376.309 650.373 377.512 649.17 377.512 647.686C377.512 646.203 376.309 645 374.825 645C373.341 645 372.139 646.203 372.139 647.686C372.139 649.17 373.341 650.373 374.825 650.373Z" fill="white"/>
<path d="M398.988 650.373C400.472 650.373 401.675 649.17 401.675 647.686C401.675 646.203 400.472 645 398.988 645C397.505 645 396.302 646.203 396.302 647.686C396.302 649.17 397.505 650.373 398.988 650.373Z" fill="white"/>
<path d="M423.151 650.373C424.635 650.373 425.837 649.17 425.837 647.686C425.837 646.203 424.635 645 423.151 645C421.667 645 420.464 646.203 420.464 647.686C420.464 649.17 421.667 650.373 423.151 650.373Z" fill="white"/>
<path d="M447.313 650.373C448.797 650.373 450 649.17 450 647.686C450 646.203 448.797 645 447.313 645C445.83 645 444.627 646.203 444.627 647.686C444.627 649.17 445.83 650.373 447.313 650.373Z" fill="white"/>
<path d="M205.687 671.849C207.17 671.849 208.373 670.646 208.373 669.163C208.373 667.679 207.17 666.476 205.687 666.476C204.203 666.476 203 667.679 203 669.163C203 670.646 204.203 671.849 205.687 671.849Z" fill="white"/>
<path d="M229.849 671.849C231.333 671.849 232.536 670.646 232.536 669.163C232.536 667.679 231.333 666.476 229.849 666.476C228.365 666.476 227.163 667.679 227.163 669.163C227.163 670.646 228.365 671.849 229.849 671.849Z" fill="white"/>
<path d="M254.012 671.849C255.495 671.849 256.698 670.646 256.698 669.163C256.698 667.679 255.495 666.476 254.012 666.476C252.528 666.476 251.325 667.679 251.325 669.163C251.325 670.646 252.528 671.849 254.012 671.849Z" fill="white"/>
<path d="M280.861 669.163C280.861 670.641 279.653 671.849 278.175 671.849C276.696 671.849 275.488 670.641 275.488 669.163C275.488 667.684 276.696 666.476 278.175 666.476C279.653 666.476 280.861 667.684 280.861 669.163Z" fill="white"/>
<path d="M305.024 669.163C305.024 670.641 303.816 671.849 302.337 671.849C300.859 671.849 299.651 670.641 299.651 669.163C299.651 667.684 300.859 666.476 302.337 666.476C303.816 666.476 305.024 667.684 305.024 669.163Z" fill="white"/>
<path d="M326.5 671.849C327.984 671.849 329.187 670.646 329.187 669.163C329.187 667.679 327.984 666.476 326.5 666.476C325.016 666.476 323.813 667.679 323.813 669.163C323.813 670.646 325.016 671.849 326.5 671.849Z" fill="white"/>
<path d="M350.663 671.849C352.146 671.849 353.349 670.646 353.349 669.163C353.349 667.679 352.146 666.476 350.663 666.476C349.179 666.476 347.976 667.679 347.976 669.163C347.976 670.646 349.179 671.849 350.663 671.849Z" fill="white"/>
<path d="M374.825 671.849C376.309 671.849 377.512 670.646 377.512 669.163C377.512 667.679 376.309 666.476 374.825 666.476C373.341 666.476 372.139 667.679 372.139 669.163C372.139 670.646 373.341 671.849 374.825 671.849Z" fill="white"/>
<path d="M398.988 671.849C400.472 671.849 401.675 670.646 401.675 669.163C401.675 667.679 400.472 666.476 398.988 666.476C397.505 666.476 396.302 667.679 396.302 669.163C396.302 670.646 397.505 671.849 398.988 671.849Z" fill="white"/>
<path d="M423.151 671.849C424.635 671.849 425.837 670.646 425.837 669.163C425.837 667.679 424.635 666.476 423.151 666.476C421.667 666.476 420.464 667.679 420.464 669.163C420.464 670.646 421.667 671.849 423.151 671.849Z" fill="white"/>
<path d="M447.313 671.849C448.797 671.849 450 670.646 450 669.163C450 667.679 448.797 666.476 447.313 666.476C445.83 666.476 444.627 667.679 444.627 669.163C444.627 670.646 445.83 671.849 447.313 671.849Z" fill="white"/>
<path d="M205.687 693.325C207.17 693.325 208.373 692.123 208.373 690.639C208.373 689.155 207.17 687.952 205.687 687.952C204.203 687.952 203 689.155 203 690.639C203 692.123 204.203 693.325 205.687 693.325Z" fill="white"/>
<path d="M229.849 693.325C231.333 693.325 232.536 692.123 232.536 690.639C232.536 689.155 231.333 687.952 229.849 687.952C228.365 687.952 227.163 689.155 227.163 690.639C227.163 692.123 228.365 693.325 229.849 693.325Z" fill="white"/>
<path d="M254.012 693.325C255.495 693.325 256.698 692.123 256.698 690.639C256.698 689.155 255.495 687.952 254.012 687.952C252.528 687.952 251.325 689.155 251.325 690.639C251.325 692.123 252.528 693.325 254.012 693.325Z" fill="white"/>
<path d="M280.861 690.639C280.861 692.117 279.653 693.325 278.175 693.325C276.696 693.325 275.488 692.117 275.488 690.639C275.488 689.161 276.696 687.952 278.175 687.952C279.653 687.952 280.861 689.161 280.861 690.639Z" fill="white"/>
<path d="M305.024 690.639C305.024 692.117 303.816 693.325 302.337 693.325C300.859 693.325 299.651 692.117 299.651 690.639C299.651 689.161 300.859 687.952 302.337 687.952C303.816 687.952 305.024 689.161 305.024 690.639Z" fill="white"/>
<path d="M326.5 693.325C327.984 693.325 329.187 692.123 329.187 690.639C329.187 689.155 327.984 687.952 326.5 687.952C325.016 687.952 323.813 689.155 323.813 690.639C323.813 692.123 325.016 693.325 326.5 693.325Z" fill="white"/>
<path d="M350.663 693.325C352.146 693.325 353.349 692.123 353.349 690.639C353.349 689.155 352.146 687.952 350.663 687.952C349.179 687.952 347.976 689.155 347.976 690.639C347.976 692.123 349.179 693.325 350.663 693.325Z" fill="white"/>
<path d="M374.825 693.325C376.309 693.325 377.512 692.123 377.512 690.639C377.512 689.155 376.309 687.952 374.825 687.952C373.341 687.952 372.139 689.155 372.139 690.639C372.139 692.123 373.341 693.325 374.825 693.325Z" fill="white"/>
<path d="M398.988 693.325C400.472 693.325 401.675 692.123 401.675 690.639C401.675 689.155 400.472 687.952 398.988 687.952C397.505 687.952 396.302 689.155 396.302 690.639C396.302 692.123 397.505 693.325 398.988 693.325Z" fill="white"/>
<path d="M423.151 693.325C424.635 693.325 425.837 692.123 425.837 690.639C425.837 689.155 424.635 687.952 423.151 687.952C421.667 687.952 420.464 689.155 420.464 690.639C420.464 692.123 421.667 693.325 423.151 693.325Z" fill="white"/>
<path d="M447.313 693.325C448.797 693.325 450 692.123 450 690.639C450 689.155 448.797 687.952 447.313 687.952C445.83 687.952 444.627 689.155 444.627 690.639C444.627 692.123 445.83 693.325 447.313 693.325Z" fill="white"/>
<path d="M208.373 712.115C208.373 713.593 207.165 714.801 205.687 714.801C204.208 714.801 203 713.593 203 712.115C203 710.637 204.208 709.428 205.687 709.428C207.165 709.428 208.373 710.637 208.373 712.115Z" fill="white"/>
<path d="M232.536 712.115C232.536 713.593 231.327 714.801 229.849 714.801C228.371 714.801 227.163 713.593 227.163 712.115C227.163 710.637 228.371 709.428 229.849 709.428C231.327 709.428 232.536 710.637 232.536 712.115Z" fill="white"/>
<path d="M256.698 712.115C256.698 713.593 255.49 714.801 254.012 714.801C252.533 714.801 251.325 713.593 251.325 712.115C251.325 710.637 252.533 709.428 254.012 709.428C255.49 709.428 256.698 710.637 256.698 712.115Z" fill="white"/>
<path d="M280.861 712.115C280.861 713.593 279.653 714.801 278.175 714.801C276.696 714.801 275.488 713.593 275.488 712.115C275.488 710.637 276.696 709.428 278.175 709.428C279.653 709.428 280.861 710.637 280.861 712.115Z" fill="white"/>
<path d="M305.024 712.115C305.024 713.593 303.816 714.801 302.337 714.801C300.859 714.801 299.651 713.593 299.651 712.115C299.651 710.637 300.859 709.428 302.337 709.428C303.816 709.428 305.024 710.637 305.024 712.115Z" fill="white"/>
<path d="M329.187 712.115C329.187 713.593 327.978 714.801 326.5 714.801C325.022 714.801 323.813 713.593 323.813 712.115C323.813 710.637 325.022 709.428 326.5 709.428C327.978 709.428 329.187 710.637 329.187 712.115Z" fill="white"/>
<path d="M353.349 712.115C353.349 713.593 352.141 714.801 350.663 714.801C349.184 714.801 347.976 713.593 347.976 712.115C347.976 710.637 349.184 709.428 350.663 709.428C352.141 709.428 353.349 710.637 353.349 712.115Z" fill="white"/>
<path d="M377.512 712.115C377.512 713.593 376.304 714.801 374.825 714.801C373.347 714.801 372.139 713.593 372.139 712.115C372.139 710.637 373.347 709.428 374.825 709.428C376.304 709.428 377.512 710.637 377.512 712.115Z" fill="white"/>
<path d="M401.675 712.115C401.675 713.593 400.467 714.801 398.988 714.801C397.51 714.801 396.302 713.593 396.302 712.115C396.302 710.637 397.51 709.428 398.988 709.428C400.467 709.428 401.675 710.637 401.675 712.115Z" fill="white"/>
<path d="M425.837 712.115C425.837 713.593 424.629 714.801 423.151 714.801C421.672 714.801 420.464 713.593 420.464 712.115C420.464 710.637 421.672 709.428 423.151 709.428C424.629 709.428 425.837 710.637 425.837 712.115Z" fill="white"/>
<path d="M450 712.115C450 713.593 448.792 714.801 447.313 714.801C445.835 714.801 444.627 713.593 444.627 712.115C444.627 710.637 445.835 709.428 447.313 709.428C448.792 709.428 450 710.637 450 712.115Z" fill="white"/>
<path d="M208.373 733.591C208.373 735.07 207.165 736.278 205.687 736.278C204.208 736.278 203 735.07 203 733.591C203 732.113 204.208 730.905 205.687 730.905C207.165 730.905 208.373 732.113 208.373 733.591Z" fill="white"/>
<path d="M232.536 733.591C232.536 735.07 231.327 736.278 229.849 736.278C228.371 736.278 227.163 735.07 227.163 733.591C227.163 732.113 228.371 730.905 229.849 730.905C231.327 730.905 232.536 732.113 232.536 733.591Z" fill="white"/>
<path d="M256.698 733.591C256.698 735.07 255.49 736.278 254.012 736.278C252.533 736.278 251.325 735.07 251.325 733.591C251.325 732.113 252.533 730.905 254.012 730.905C255.49 730.905 256.698 732.113 256.698 733.591Z" fill="white"/>
<path d="M280.861 733.591C280.861 735.07 279.653 736.278 278.175 736.278C276.696 736.278 275.488 735.07 275.488 733.591C275.488 732.113 276.696 730.905 278.175 730.905C279.653 730.905 280.861 732.113 280.861 733.591Z" fill="white"/>
<path d="M305.024 733.591C305.024 735.07 303.816 736.278 302.337 736.278C300.859 736.278 299.651 735.07 299.651 733.591C299.651 732.113 300.859 730.905 302.337 730.905C303.816 730.905 305.024 732.113 305.024 733.591Z" fill="white"/>
<path d="M329.187 733.591C329.187 735.07 327.978 736.278 326.5 736.278C325.022 736.278 323.813 735.07 323.813 733.591C323.813 732.113 325.022 730.905 326.5 730.905C327.978 730.905 329.187 732.113 329.187 733.591Z" fill="white"/>
<path d="M353.349 733.591C353.349 735.07 352.141 736.278 350.663 736.278C349.184 736.278 347.976 735.07 347.976 733.591C347.976 732.113 349.184 730.905 350.663 730.905C352.141 730.905 353.349 732.113 353.349 733.591Z" fill="white"/>
<path d="M377.512 733.591C377.512 735.07 376.304 736.278 374.825 736.278C373.347 736.278 372.139 735.07 372.139 733.591C372.139 732.113 373.347 730.905 374.825 730.905C376.304 730.905 377.512 732.113 377.512 733.591Z" fill="white"/>
<path d="M401.675 733.591C401.675 735.07 400.467 736.278 398.988 736.278C397.51 736.278 396.302 735.07 396.302 733.591C396.302 732.113 397.51 730.905 398.988 730.905C400.467 730.905 401.675 732.113 401.675 733.591Z" fill="white"/>
<path d="M425.837 733.591C425.837 735.07 424.629 736.278 423.151 736.278C421.672 736.278 420.464 735.07 420.464 733.591C420.464 732.113 421.672 730.905 423.151 730.905C424.629 730.905 425.837 732.113 425.837 733.591Z" fill="white"/>
<path d="M450 733.591C450 735.07 448.792 736.278 447.313 736.278C445.835 736.278 444.627 735.07 444.627 733.591C444.627 732.113 445.835 730.905 447.313 730.905C448.792 730.905 450 732.113 450 733.591Z" fill="white"/>
<path d="M208.373 755.067C208.373 756.546 207.165 757.754 205.687 757.754C204.208 757.754 203 756.546 203 755.067C203 753.589 204.208 752.381 205.687 752.381C207.165 752.381 208.373 753.589 208.373 755.067Z" fill="white"/>
<path d="M232.536 755.067C232.536 756.546 231.327 757.754 229.849 757.754C228.371 757.754 227.163 756.546 227.163 755.067C227.163 753.589 228.371 752.381 229.849 752.381C231.327 752.381 232.536 753.589 232.536 755.067Z" fill="white"/>
<path d="M256.698 755.067C256.698 756.546 255.49 757.754 254.012 757.754C252.533 757.754 251.325 756.546 251.325 755.067C251.325 753.589 252.533 752.381 254.012 752.381C255.49 752.381 256.698 753.589 256.698 755.067Z" fill="white"/>
<path d="M280.861 755.067C280.861 756.546 279.653 757.754 278.175 757.754C276.696 757.754 275.488 756.546 275.488 755.067C275.488 753.589 276.696 752.381 278.175 752.381C279.653 752.381 280.861 753.589 280.861 755.067Z" fill="white"/>
<path d="M305.024 755.067C305.024 756.546 303.816 757.754 302.337 757.754C300.859 757.754 299.651 756.546 299.651 755.067C299.651 753.589 300.859 752.381 302.337 752.381C303.816 752.381 305.024 753.589 305.024 755.067Z" fill="white"/>
<path d="M329.187 755.067C329.187 756.546 327.978 757.754 326.5 757.754C325.022 757.754 323.813 756.546 323.813 755.067C323.813 753.589 325.022 752.381 326.5 752.381C327.978 752.381 329.187 753.589 329.187 755.067Z" fill="white"/>
<path d="M353.349 755.067C353.349 756.546 352.141 757.754 350.663 757.754C349.184 757.754 347.976 756.546 347.976 755.067C347.976 753.589 349.184 752.381 350.663 752.381C352.141 752.381 353.349 753.589 353.349 755.067Z" fill="white"/>
<path d="M377.512 755.067C377.512 756.546 376.304 757.754 374.825 757.754C373.347 757.754 372.139 756.546 372.139 755.067C372.139 753.589 373.347 752.381 374.825 752.381C376.304 752.381 377.512 753.589 377.512 755.067Z" fill="white"/>
<path d="M401.675 755.067C401.675 756.546 400.467 757.754 398.988 757.754C397.51 757.754 396.302 756.546 396.302 755.067C396.302 753.589 397.51 752.381 398.988 752.381C400.467 752.381 401.675 753.589 401.675 755.067Z" fill="white"/>
<path d="M425.837 755.067C425.837 756.546 424.629 757.754 423.151 757.754C421.672 757.754 420.464 756.546 420.464 755.067C420.464 753.589 421.672 752.381 423.151 752.381C424.629 752.381 425.837 753.589 425.837 755.067Z" fill="white"/>
<path d="M450 755.067C450 756.546 448.792 757.754 447.313 757.754C445.835 757.754 444.627 756.546 444.627 755.067C444.627 753.589 445.835 752.381 447.313 752.381C448.792 752.381 450 753.589 450 755.067Z" fill="white"/>
<path d="M205.687 779.23C207.17 779.23 208.373 778.027 208.373 776.544C208.373 775.06 207.17 773.857 205.687 773.857C204.203 773.857 203 775.06 203 776.544C203 778.027 204.203 779.23 205.687 779.23Z" fill="white"/>
<path d="M229.849 779.23C231.333 779.23 232.536 778.027 232.536 776.544C232.536 775.06 231.333 773.857 229.849 773.857C228.365 773.857 227.163 775.06 227.163 776.544C227.163 778.027 228.365 779.23 229.849 779.23Z" fill="white"/>
<path d="M254.012 779.23C255.495 779.23 256.698 778.027 256.698 776.544C256.698 775.06 255.495 773.857 254.012 773.857C252.528 773.857 251.325 775.06 251.325 776.544C251.325 778.027 252.528 779.23 254.012 779.23Z" fill="white"/>
<path d="M280.861 776.544C280.861 778.022 279.653 779.23 278.175 779.23C276.696 779.23 275.488 778.022 275.488 776.544C275.488 775.065 276.696 773.857 278.175 773.857C279.653 773.873 280.861 775.065 280.861 776.544Z" fill="white"/>
<path d="M305.024 776.544C305.024 778.022 303.816 779.23 302.337 779.23C300.859 779.23 299.651 778.022 299.651 776.544C299.651 775.065 300.859 773.857 302.337 773.857C303.816 773.873 305.024 775.065 305.024 776.544Z" fill="white"/>
<path d="M326.5 779.23C327.984 779.23 329.187 778.027 329.187 776.544C329.187 775.06 327.984 773.857 326.5 773.857C325.016 773.857 323.813 775.06 323.813 776.544C323.813 778.027 325.016 779.23 326.5 779.23Z" fill="white"/>
<path d="M350.663 779.23C352.146 779.23 353.349 778.027 353.349 776.544C353.349 775.06 352.146 773.857 350.663 773.857C349.179 773.857 347.976 775.06 347.976 776.544C347.976 778.027 349.179 779.23 350.663 779.23Z" fill="white"/>
<path d="M374.825 779.23C376.309 779.23 377.512 778.027 377.512 776.544C377.512 775.06 376.309 773.857 374.825 773.857C373.341 773.857 372.139 775.06 372.139 776.544C372.139 778.027 373.341 779.23 374.825 779.23Z" fill="white"/>
<path d="M398.988 779.23C400.472 779.23 401.675 778.027 401.675 776.544C401.675 775.06 400.472 773.857 398.988 773.857C397.505 773.857 396.302 775.06 396.302 776.544C396.302 778.027 397.505 779.23 398.988 779.23Z" fill="white"/>
<path d="M423.151 779.23C424.635 779.23 425.837 778.027 425.837 776.544C425.837 775.06 424.635 773.857 423.151 773.857C421.667 773.857 420.464 775.06 420.464 776.544C420.464 778.027 421.667 779.23 423.151 779.23Z" fill="white"/>
<path d="M447.313 779.23C448.797 779.23 450 778.027 450 776.544C450 775.06 448.797 773.857 447.313 773.857C445.83 773.857 444.627 775.06 444.627 776.544C444.627 778.027 445.83 779.23 447.313 779.23Z" fill="white"/>
<path d="M208.373 798.036C208.373 799.514 207.165 800.722 205.687 800.722C204.208 800.722 203 799.514 203 798.036C203 796.557 204.208 795.349 205.687 795.349C207.165 795.349 208.373 796.541 208.373 798.036Z" fill="white"/>
<path d="M232.536 798.036C232.536 799.514 231.327 800.722 229.849 800.722C228.371 800.722 227.163 799.514 227.163 798.036C227.163 796.557 228.371 795.349 229.849 795.349C231.327 795.349 232.536 796.541 232.536 798.036Z" fill="white"/>
<path d="M256.698 798.036C256.698 799.514 255.49 800.722 254.012 800.722C252.533 800.722 251.325 799.514 251.325 798.036C251.325 796.557 252.533 795.349 254.012 795.349C255.49 795.349 256.698 796.541 256.698 798.036Z" fill="white"/>
<path d="M280.861 798.036C280.861 799.514 279.653 800.722 278.175 800.722C276.696 800.722 275.488 799.514 275.488 798.036C275.488 796.557 276.696 795.349 278.175 795.349C279.653 795.349 280.861 796.541 280.861 798.036Z" fill="white"/>
<path d="M305.024 798.036C305.024 799.514 303.816 800.722 302.337 800.722C300.859 800.722 299.651 799.514 299.651 798.036C299.651 796.557 300.859 795.349 302.337 795.349C303.816 795.349 305.024 796.541 305.024 798.036Z" fill="white"/>
<path d="M329.187 798.036C329.187 799.514 327.978 800.722 326.5 800.722C325.022 800.722 323.813 799.514 323.813 798.036C323.813 796.557 325.022 795.349 326.5 795.349C327.978 795.349 329.187 796.541 329.187 798.036Z" fill="white"/>
<path d="M353.349 798.036C353.349 799.514 352.141 800.722 350.663 800.722C349.184 800.722 347.976 799.514 347.976 798.036C347.976 796.557 349.184 795.349 350.663 795.349C352.141 795.349 353.349 796.541 353.349 798.036Z" fill="white"/>
<path d="M377.512 798.036C377.512 799.514 376.304 800.722 374.825 800.722C373.347 800.722 372.139 799.514 372.139 798.036C372.139 796.557 373.347 795.349 374.825 795.349C376.304 795.349 377.512 796.541 377.512 798.036Z" fill="white"/>
<path d="M401.675 798.036C401.675 799.514 400.467 800.722 398.988 800.722C397.51 800.722 396.302 799.514 396.302 798.036C396.302 796.557 397.51 795.349 398.988 795.349C400.467 795.349 401.675 796.541 401.675 798.036Z" fill="white"/>
<path d="M425.837 798.036C425.837 799.514 424.629 800.722 423.151 800.722C421.672 800.722 420.464 799.514 420.464 798.036C420.464 796.557 421.672 795.349 423.151 795.349C424.629 795.349 425.837 796.541 425.837 798.036Z" fill="white"/>
<path d="M450 798.036C450 799.514 448.792 800.722 447.313 800.722C445.835 800.722 444.627 799.514 444.627 798.036C444.627 796.557 445.835 795.349 447.313 795.349C448.792 795.349 450 796.541 450 798.036Z" fill="white"/>
<path d="M208.373 819.512C208.373 820.99 207.165 822.198 205.687 822.198C204.208 822.198 203 820.99 203 819.512C203 818.034 204.208 816.825 205.687 816.825C207.165 816.825 208.373 818.018 208.373 819.512Z" fill="white"/>
<path d="M232.536 819.512C232.536 820.99 231.327 822.198 229.849 822.198C228.371 822.198 227.163 820.99 227.163 819.512C227.163 818.034 228.371 816.825 229.849 816.825C231.327 816.825 232.536 818.018 232.536 819.512Z" fill="white"/>
<path d="M256.698 819.512C256.698 820.99 255.49 822.198 254.012 822.198C252.533 822.198 251.325 820.99 251.325 819.512C251.325 818.034 252.533 816.825 254.012 816.825C255.49 816.825 256.698 818.018 256.698 819.512Z" fill="white"/>
<path d="M280.861 819.512C280.861 820.99 279.653 822.198 278.175 822.198C276.696 822.198 275.488 820.99 275.488 819.512C275.488 818.034 276.696 816.825 278.175 816.825C279.653 816.825 280.861 818.018 280.861 819.512Z" fill="white"/>
<path d="M305.024 819.512C305.024 820.99 303.816 822.198 302.337 822.198C300.859 822.198 299.651 820.99 299.651 819.512C299.651 818.034 300.859 816.825 302.337 816.825C303.816 816.825 305.024 818.018 305.024 819.512Z" fill="white"/>
<path d="M329.187 819.512C329.187 820.99 327.978 822.198 326.5 822.198C325.022 822.198 323.813 820.99 323.813 819.512C323.813 818.034 325.022 816.825 326.5 816.825C327.978 816.825 329.187 818.018 329.187 819.512Z" fill="white"/>
<path d="M353.349 819.512C353.349 820.99 352.141 822.198 350.663 822.198C349.184 822.198 347.976 820.99 347.976 819.512C347.976 818.034 349.184 816.825 350.663 816.825C352.141 816.825 353.349 818.018 353.349 819.512Z" fill="white"/>
<path d="M377.512 819.512C377.512 820.99 376.304 822.198 374.825 822.198C373.347 822.198 372.139 820.99 372.139 819.512C372.139 818.034 373.347 816.825 374.825 816.825C376.304 816.825 377.512 818.018 377.512 819.512Z" fill="white"/>
<path d="M401.675 819.512C401.675 820.99 400.467 822.198 398.988 822.198C397.51 822.198 396.302 820.99 396.302 819.512C396.302 818.034 397.51 816.825 398.988 816.825C400.467 816.825 401.675 818.018 401.675 819.512Z" fill="white"/>
<path d="M425.837 819.512C425.837 820.99 424.629 822.198 423.151 822.198C421.672 822.198 420.464 820.99 420.464 819.512C420.464 818.034 421.672 816.825 423.151 816.825C424.629 816.825 425.837 818.018 425.837 819.512Z" fill="white"/>
<path d="M450 819.512C450 820.99 448.792 822.198 447.313 822.198C445.835 822.198 444.627 820.99 444.627 819.512C444.627 818.034 445.835 816.825 447.313 816.825C448.792 816.825 450 818.018 450 819.512Z" fill="white"/>
<path d="M208.373 840.988C208.373 842.466 207.165 843.675 205.687 843.675C204.208 843.675 203 842.466 203 840.988C203 839.51 204.208 838.302 205.687 838.302C207.165 838.302 208.373 839.51 208.373 840.988Z" fill="white"/>
<path d="M232.536 840.988C232.536 842.466 231.327 843.675 229.849 843.675C228.371 843.675 227.163 842.466 227.163 840.988C227.163 839.51 228.371 838.302 229.849 838.302C231.327 838.302 232.536 839.51 232.536 840.988Z" fill="white"/>
<path d="M256.698 840.988C256.698 842.466 255.49 843.675 254.012 843.675C252.533 843.675 251.325 842.466 251.325 840.988C251.325 839.51 252.533 838.302 254.012 838.302C255.49 838.302 256.698 839.51 256.698 840.988Z" fill="white"/>
<path d="M280.861 840.988C280.861 842.466 279.653 843.675 278.175 843.675C276.696 843.675 275.488 842.466 275.488 840.988C275.488 839.51 276.696 838.302 278.175 838.302C279.653 838.302 280.861 839.51 280.861 840.988Z" fill="white"/>
<path d="M305.024 840.988C305.024 842.466 303.816 843.675 302.337 843.675C300.859 843.675 299.651 842.466 299.651 840.988C299.651 839.51 300.859 838.302 302.337 838.302C303.816 838.302 305.024 839.51 305.024 840.988Z" fill="white"/>
<path d="M329.187 840.988C329.187 842.466 327.978 843.675 326.5 843.675C325.022 843.675 323.813 842.466 323.813 840.988C323.813 839.51 325.022 838.302 326.5 838.302C327.978 838.302 329.187 839.51 329.187 840.988Z" fill="white"/>
<path d="M353.349 840.988C353.349 842.466 352.141 843.675 350.663 843.675C349.184 843.675 347.976 842.466 347.976 840.988C347.976 839.51 349.184 838.302 350.663 838.302C352.141 838.302 353.349 839.51 353.349 840.988Z" fill="white"/>
<path d="M377.512 840.988C377.512 842.466 376.304 843.675 374.825 843.675C373.347 843.675 372.139 842.466 372.139 840.988C372.139 839.51 373.347 838.302 374.825 838.302C376.304 838.302 377.512 839.51 377.512 840.988Z" fill="white"/>
<path d="M401.675 840.988C401.675 842.466 400.467 843.675 398.988 843.675C397.51 843.675 396.302 842.466 396.302 840.988C396.302 839.51 397.51 838.302 398.988 838.302C400.467 838.302 401.675 839.51 401.675 840.988Z" fill="white"/>
<path d="M425.837 840.988C425.837 842.466 424.629 843.675 423.151 843.675C421.672 843.675 420.464 842.466 420.464 840.988C420.464 839.51 421.672 838.302 423.151 838.302C424.629 838.302 425.837 839.51 425.837 840.988Z" fill="white"/>
<path d="M450 840.988C450 842.466 448.792 843.675 447.313 843.675C445.835 843.675 444.627 842.466 444.627 840.988C444.627 839.51 445.835 838.302 447.313 838.302C448.792 838.302 450 839.51 450 840.988Z" fill="white"/>
<path d="M205.687 865.151C207.17 865.151 208.373 863.948 208.373 862.464C208.373 860.981 207.17 859.778 205.687 859.778C204.203 859.778 203 860.981 203 862.464C203 863.948 204.203 865.151 205.687 865.151Z" fill="white"/>
<path d="M229.849 865.151C231.333 865.151 232.536 863.948 232.536 862.464C232.536 860.981 231.333 859.778 229.849 859.778C228.365 859.778 227.163 860.981 227.163 862.464C227.163 863.948 228.365 865.151 229.849 865.151Z" fill="white"/>
<path d="M254.012 865.151C255.495 865.151 256.698 863.948 256.698 862.464C256.698 860.981 255.495 859.778 254.012 859.778C252.528 859.778 251.325 860.981 251.325 862.464C251.325 863.948 252.528 865.151 254.012 865.151Z" fill="white"/>
<path d="M280.861 862.464C280.861 863.943 279.653 865.151 278.175 865.151C276.696 865.151 275.488 863.943 275.488 862.464C275.488 860.986 276.696 859.778 278.175 859.778C279.653 859.778 280.861 860.986 280.861 862.464Z" fill="white"/>
<path d="M305.024 862.464C305.024 863.943 303.816 865.151 302.337 865.151C300.859 865.151 299.651 863.943 299.651 862.464C299.651 860.986 300.859 859.778 302.337 859.778C303.816 859.778 305.024 860.986 305.024 862.464Z" fill="white"/>
<path d="M326.5 865.151C327.984 865.151 329.187 863.948 329.187 862.464C329.187 860.981 327.984 859.778 326.5 859.778C325.016 859.778 323.813 860.981 323.813 862.464C323.813 863.948 325.016 865.151 326.5 865.151Z" fill="white"/>
<path d="M350.663 865.151C352.146 865.151 353.349 863.948 353.349 862.464C353.349 860.981 352.146 859.778 350.663 859.778C349.179 859.778 347.976 860.981 347.976 862.464C347.976 863.948 349.179 865.151 350.663 865.151Z" fill="white"/>
<path d="M374.825 865.151C376.309 865.151 377.512 863.948 377.512 862.464C377.512 860.981 376.309 859.778 374.825 859.778C373.341 859.778 372.139 860.981 372.139 862.464C372.139 863.948 373.341 865.151 374.825 865.151Z" fill="white"/>
<path d="M398.988 865.151C400.472 865.151 401.675 863.948 401.675 862.464C401.675 860.981 400.472 859.778 398.988 859.778C397.505 859.778 396.302 860.981 396.302 862.464C396.302 863.948 397.505 865.151 398.988 865.151Z" fill="white"/>
<path d="M423.151 865.151C424.635 865.151 425.837 863.948 425.837 862.464C425.837 860.981 424.635 859.778 423.151 859.778C421.667 859.778 420.464 860.981 420.464 862.464C420.464 863.948 421.667 865.151 423.151 865.151Z" fill="white"/>
<path d="M447.313 865.151C448.797 865.151 450 863.948 450 862.464C450 860.981 448.797 859.778 447.313 859.778C445.83 859.778 444.627 860.981 444.627 862.464C444.627 863.948 445.83 865.151 447.313 865.151Z" fill="white"/>
<path d="M208.373 883.94C208.373 885.419 207.165 886.627 205.687 886.627C204.208 886.627 203 885.419 203 883.94C203 882.462 204.208 881.254 205.687 881.254C207.165 881.254 208.373 882.462 208.373 883.94Z" fill="white"/>
<path d="M232.536 883.94C232.536 885.419 231.327 886.627 229.849 886.627C228.371 886.627 227.163 885.419 227.163 883.94C227.163 882.462 228.371 881.254 229.849 881.254C231.327 881.254 232.536 882.462 232.536 883.94Z" fill="white"/>
<path d="M256.698 883.94C256.698 885.419 255.49 886.627 254.012 886.627C252.533 886.627 251.325 885.419 251.325 883.94C251.325 882.462 252.533 881.254 254.012 881.254C255.49 881.254 256.698 882.462 256.698 883.94Z" fill="white"/>
<path d="M280.861 883.94C280.861 885.419 279.653 886.627 278.175 886.627C276.696 886.627 275.488 885.419 275.488 883.94C275.488 882.462 276.696 881.254 278.175 881.254C279.653 881.254 280.861 882.462 280.861 883.94Z" fill="white"/>
<path d="M305.024 883.94C305.024 885.419 303.816 886.627 302.337 886.627C300.859 886.627 299.651 885.419 299.651 883.94C299.651 882.462 300.859 881.254 302.337 881.254C303.816 881.254 305.024 882.462 305.024 883.94Z" fill="white"/>
<path d="M329.187 883.94C329.187 885.419 327.978 886.627 326.5 886.627C325.022 886.627 323.813 885.419 323.813 883.94C323.813 882.462 325.022 881.254 326.5 881.254C327.978 881.254 329.187 882.462 329.187 883.94Z" fill="white"/>
<path d="M353.349 883.94C353.349 885.419 352.141 886.627 350.663 886.627C349.184 886.627 347.976 885.419 347.976 883.94C347.976 882.462 349.184 881.254 350.663 881.254C352.141 881.254 353.349 882.462 353.349 883.94Z" fill="white"/>
<path d="M377.512 883.94C377.512 885.419 376.304 886.627 374.825 886.627C373.347 886.627 372.139 885.419 372.139 883.94C372.139 882.462 373.347 881.254 374.825 881.254C376.304 881.254 377.512 882.462 377.512 883.94Z" fill="white"/>
<path d="M401.675 883.94C401.675 885.419 400.467 886.627 398.988 886.627C397.51 886.627 396.302 885.419 396.302 883.94C396.302 882.462 397.51 881.254 398.988 881.254C400.467 881.254 401.675 882.462 401.675 883.94Z" fill="white"/>
<path d="M425.837 883.94C425.837 885.419 424.629 886.627 423.151 886.627C421.672 886.627 420.464 885.419 420.464 883.94C420.464 882.462 421.672 881.254 423.151 881.254C424.629 881.254 425.837 882.462 425.837 883.94Z" fill="white"/>
<path d="M450 883.94C450 885.419 448.792 886.627 447.313 886.627C445.835 886.627 444.627 885.419 444.627 883.94C444.627 882.462 445.835 881.254 447.313 881.254C448.792 881.254 450 882.462 450 883.94Z" fill="white"/>
<g filter="url(#filter0_d)">
<rect x="259.603" y="1157.69" width="456.603" height="1466.69" rx="111" transform="rotate(180 259.603 1157.69)" fill="#1CA7EC"/>
</g>
<g filter="url(#filter1_d)">
<rect x="203.102" y="468.688" width="469.819" height="2244.91" rx="111" transform="rotate(-116.837 203.102 468.688)" fill="#1CA7EC"/>
</g>
<path d="M39.373 18.5913C39.373 20.0697 38.1649 21.2778 36.6865 21.2778C35.2081 21.2778 34 20.0697 34 18.5913C34 17.1129 35.2081 15.9048 36.6865 15.9048C38.1649 15.9048 39.373 17.1129 39.373 18.5913Z" fill="white"/>
<path d="M63.5356 18.5913C63.5356 20.0697 62.3275 21.2778 60.8491 21.2778C59.3707 21.2778 58.1626 20.0697 58.1626 18.5913C58.1626 17.1129 59.3707 15.9048 60.8491 15.9048C62.3275 15.9048 63.5356 17.1129 63.5356 18.5913Z" fill="white"/>
<path d="M87.6982 18.5913C87.6982 20.0697 86.4901 21.2778 85.0117 21.2778C83.5333 21.2778 82.3252 20.0697 82.3252 18.5913C82.3252 17.1129 83.5333 15.9048 85.0117 15.9048C86.4901 15.9048 87.6982 17.1129 87.6982 18.5913Z" fill="white"/>
<path d="M111.861 18.5913C111.861 20.0697 110.653 21.2778 109.175 21.2778C107.696 21.2778 106.488 20.0697 106.488 18.5913C106.488 17.1129 107.696 15.9048 109.175 15.9048C110.653 15.9048 111.861 17.1129 111.861 18.5913Z" fill="white"/>
<path d="M136.024 18.5913C136.024 20.0697 134.816 21.2778 133.337 21.2778C131.859 21.2778 130.651 20.0697 130.651 18.5913C130.651 17.1129 131.859 15.9048 133.337 15.9048C134.816 15.9048 136.024 17.1129 136.024 18.5913Z" fill="white"/>
<path d="M160.187 18.5913C160.187 20.0697 158.978 21.2778 157.5 21.2778C156.022 21.2778 154.813 20.0697 154.813 18.5913C154.813 17.1129 156.022 15.9048 157.5 15.9048C158.978 15.9048 160.187 17.1129 160.187 18.5913Z" fill="white"/>
<path d="M184.349 18.5913C184.349 20.0697 183.141 21.2778 181.663 21.2778C180.184 21.2778 178.976 20.0697 178.976 18.5913C178.976 17.1129 180.184 15.9048 181.663 15.9048C183.141 15.9048 184.349 17.1129 184.349 18.5913Z" fill="white"/>
<path d="M208.512 18.5913C208.512 20.0697 207.304 21.2778 205.825 21.2778C204.347 21.2778 203.139 20.0697 203.139 18.5913C203.139 17.1129 204.347 15.9048 205.825 15.9048C207.304 15.9048 208.512 17.1129 208.512 18.5913Z" fill="white"/>
<path d="M232.675 18.5913C232.675 20.0697 231.467 21.2778 229.988 21.2778C228.51 21.2778 227.302 20.0697 227.302 18.5913C227.302 17.1129 228.51 15.9048 229.988 15.9048C231.467 15.9048 232.675 17.1129 232.675 18.5913Z" fill="white"/>
<path d="M256.837 18.5913C256.837 20.0697 255.629 21.2778 254.151 21.2778C252.672 21.2778 251.464 20.0697 251.464 18.5913C251.464 17.1129 252.672 15.9048 254.151 15.9048C255.629 15.9048 256.837 17.1129 256.837 18.5913Z" fill="white"/>
<path d="M281 18.5913C281 20.0697 279.792 21.2778 278.313 21.2778C276.835 21.2778 275.627 20.0697 275.627 18.5913C275.627 17.1129 276.835 15.9048 278.313 15.9048C279.792 15.9048 281 17.1129 281 18.5913Z" fill="white"/>
<path d="M39.373 40.0674C39.373 41.5457 38.1649 42.7539 36.6865 42.7539C35.2081 42.7539 34 41.5457 34 40.0674C34 38.589 35.2081 37.3809 36.6865 37.3809C38.1649 37.3809 39.373 38.589 39.373 40.0674Z" fill="white"/>
<path d="M63.5356 40.0674C63.5356 41.5457 62.3275 42.7539 60.8491 42.7539C59.3707 42.7539 58.1626 41.5457 58.1626 40.0674C58.1626 38.589 59.3707 37.3809 60.8491 37.3809C62.3275 37.3809 63.5356 38.589 63.5356 40.0674Z" fill="white"/>
<path d="M87.6982 40.0674C87.6982 41.5457 86.4901 42.7539 85.0117 42.7539C83.5333 42.7539 82.3252 41.5457 82.3252 40.0674C82.3252 38.589 83.5333 37.3809 85.0117 37.3809C86.4901 37.3809 87.6982 38.589 87.6982 40.0674Z" fill="white"/>
<path d="M111.861 40.0674C111.861 41.5457 110.653 42.7539 109.175 42.7539C107.696 42.7539 106.488 41.5457 106.488 40.0674C106.488 38.589 107.696 37.3809 109.175 37.3809C110.653 37.3809 111.861 38.589 111.861 40.0674Z" fill="white"/>
<path d="M136.024 40.0674C136.024 41.5457 134.816 42.7539 133.337 42.7539C131.859 42.7539 130.651 41.5457 130.651 40.0674C130.651 38.589 131.859 37.3809 133.337 37.3809C134.816 37.3809 136.024 38.589 136.024 40.0674Z" fill="white"/>
<path d="M160.187 40.0674C160.187 41.5457 158.978 42.7539 157.5 42.7539C156.022 42.7539 154.813 41.5457 154.813 40.0674C154.813 38.589 156.022 37.3809 157.5 37.3809C158.978 37.3809 160.187 38.589 160.187 40.0674Z" fill="white"/>
<path d="M184.349 40.0674C184.349 41.5457 183.141 42.7539 181.663 42.7539C180.184 42.7539 178.976 41.5457 178.976 40.0674C178.976 38.589 180.184 37.3809 181.663 37.3809C183.141 37.3809 184.349 38.589 184.349 40.0674Z" fill="white"/>
<path d="M208.512 40.0674C208.512 41.5457 207.304 42.7539 205.825 42.7539C204.347 42.7539 203.139 41.5457 203.139 40.0674C203.139 38.589 204.347 37.3809 205.825 37.3809C207.304 37.3809 208.512 38.589 208.512 40.0674Z" fill="white"/>
<path d="M232.675 40.0674C232.675 41.5457 231.467 42.7539 229.988 42.7539C228.51 42.7539 227.302 41.5457 227.302 40.0674C227.302 38.589 228.51 37.3809 229.988 37.3809C231.467 37.3809 232.675 38.589 232.675 40.0674Z" fill="white"/>
<path d="M256.837 40.0674C256.837 41.5457 255.629 42.7539 254.151 42.7539C252.672 42.7539 251.464 41.5457 251.464 40.0674C251.464 38.589 252.672 37.3809 254.151 37.3809C255.629 37.3809 256.837 38.589 256.837 40.0674Z" fill="white"/>
<path d="M281 40.0674C281 41.5457 279.792 42.7539 278.313 42.7539C276.835 42.7539 275.627 41.5457 275.627 40.0674C275.627 38.589 276.835 37.3809 278.313 37.3809C279.792 37.3809 281 38.589 281 40.0674Z" fill="white"/>
<path d="M36.6865 64.2302C38.1702 64.2302 39.373 63.0274 39.373 61.5437C39.373 60.06 38.1702 58.8572 36.6865 58.8572C35.2028 58.8572 34 60.06 34 61.5437C34 63.0274 35.2028 64.2302 36.6865 64.2302Z" fill="white"/>
<path d="M60.8491 64.2302C62.3328 64.2302 63.5356 63.0274 63.5356 61.5437C63.5356 60.06 62.3328 58.8572 60.8491 58.8572C59.3654 58.8572 58.1626 60.06 58.1626 61.5437C58.1626 63.0274 59.3654 64.2302 60.8491 64.2302Z" fill="white"/>
<path d="M85.0117 64.2302C86.4954 64.2302 87.6982 63.0274 87.6982 61.5437C87.6982 60.06 86.4954 58.8572 85.0117 58.8572C83.528 58.8572 82.3252 60.06 82.3252 61.5437C82.3252 63.0274 83.528 64.2302 85.0117 64.2302Z" fill="white"/>
<path d="M111.861 61.5437C111.861 63.0221 110.653 64.2302 109.175 64.2302C107.696 64.2302 106.488 63.0221 106.488 61.5437C106.488 60.0653 107.696 58.8572 109.175 58.8572C110.653 58.8731 111.861 60.0653 111.861 61.5437Z" fill="white"/>
<path d="M136.024 61.5437C136.024 63.0221 134.816 64.2302 133.337 64.2302C131.859 64.2302 130.651 63.0221 130.651 61.5437C130.651 60.0653 131.859 58.8572 133.337 58.8572C134.816 58.8731 136.024 60.0653 136.024 61.5437Z" fill="white"/>
<path d="M157.5 64.2302C158.984 64.2302 160.187 63.0274 160.187 61.5437C160.187 60.06 158.984 58.8572 157.5 58.8572C156.016 58.8572 154.813 60.06 154.813 61.5437C154.813 63.0274 156.016 64.2302 157.5 64.2302Z" fill="white"/>
<path d="M181.663 64.2302C183.146 64.2302 184.349 63.0274 184.349 61.5437C184.349 60.06 183.146 58.8572 181.663 58.8572C180.179 58.8572 178.976 60.06 178.976 61.5437C178.976 63.0274 180.179 64.2302 181.663 64.2302Z" fill="white"/>
<path d="M205.825 64.2302C207.309 64.2302 208.512 63.0274 208.512 61.5437C208.512 60.06 207.309 58.8572 205.825 58.8572C204.341 58.8572 203.139 60.06 203.139 61.5437C203.139 63.0274 204.341 64.2302 205.825 64.2302Z" fill="white"/>
<path d="M229.988 64.2302C231.472 64.2302 232.675 63.0274 232.675 61.5437C232.675 60.06 231.472 58.8572 229.988 58.8572C228.505 58.8572 227.302 60.06 227.302 61.5437C227.302 63.0274 228.505 64.2302 229.988 64.2302Z" fill="white"/>
<path d="M254.151 64.2302C255.635 64.2302 256.837 63.0274 256.837 61.5437C256.837 60.06 255.635 58.8572 254.151 58.8572C252.667 58.8572 251.464 60.06 251.464 61.5437C251.464 63.0274 252.667 64.2302 254.151 64.2302Z" fill="white"/>
<path d="M278.313 64.2302C279.797 64.2302 281 63.0274 281 61.5437C281 60.06 279.797 58.8572 278.313 58.8572C276.83 58.8572 275.627 60.06 275.627 61.5437C275.627 63.0274 276.83 64.2302 278.313 64.2302Z" fill="white"/>
<path d="M39.373 83.0356C39.373 84.514 38.1649 85.7221 36.6865 85.7221C35.2081 85.7221 34 84.514 34 83.0356C34 81.5573 35.2081 80.3491 36.6865 80.3491C38.1649 80.3491 39.373 81.5414 39.373 83.0356Z" fill="white"/>
<path d="M63.5356 83.0356C63.5356 84.514 62.3275 85.7221 60.8491 85.7221C59.3707 85.7221 58.1626 84.514 58.1626 83.0356C58.1626 81.5573 59.3707 80.3491 60.8491 80.3491C62.3275 80.3491 63.5356 81.5414 63.5356 83.0356Z" fill="white"/>
<path d="M87.6982 83.0356C87.6982 84.514 86.4901 85.7221 85.0117 85.7221C83.5333 85.7221 82.3252 84.514 82.3252 83.0356C82.3252 81.5573 83.5333 80.3491 85.0117 80.3491C86.4901 80.3491 87.6982 81.5414 87.6982 83.0356Z" fill="white"/>
<path d="M111.861 83.0356C111.861 84.514 110.653 85.7221 109.175 85.7221C107.696 85.7221 106.488 84.514 106.488 83.0356C106.488 81.5573 107.696 80.3491 109.175 80.3491C110.653 80.3491 111.861 81.5414 111.861 83.0356Z" fill="white"/>
<path d="M136.024 83.0356C136.024 84.514 134.816 85.7221 133.337 85.7221C131.859 85.7221 130.651 84.514 130.651 83.0356C130.651 81.5573 131.859 80.3491 133.337 80.3491C134.816 80.3491 136.024 81.5414 136.024 83.0356Z" fill="white"/>
<path d="M160.187 83.0356C160.187 84.514 158.978 85.7221 157.5 85.7221C156.022 85.7221 154.813 84.514 154.813 83.0356C154.813 81.5573 156.022 80.3491 157.5 80.3491C158.978 80.3491 160.187 81.5414 160.187 83.0356Z" fill="white"/>
<path d="M184.349 83.0356C184.349 84.514 183.141 85.7221 181.663 85.7221C180.184 85.7221 178.976 84.514 178.976 83.0356C178.976 81.5573 180.184 80.3491 181.663 80.3491C183.141 80.3491 184.349 81.5414 184.349 83.0356Z" fill="white"/>
<path d="M208.512 83.0356C208.512 84.514 207.304 85.7221 205.825 85.7221C204.347 85.7221 203.139 84.514 203.139 83.0356C203.139 81.5573 204.347 80.3491 205.825 80.3491C207.304 80.3491 208.512 81.5414 208.512 83.0356Z" fill="white"/>
<path d="M232.675 83.0356C232.675 84.514 231.467 85.7221 229.988 85.7221C228.51 85.7221 227.302 84.514 227.302 83.0356C227.302 81.5573 228.51 80.3491 229.988 80.3491C231.467 80.3491 232.675 81.5414 232.675 83.0356Z" fill="white"/>
<path d="M256.837 83.0356C256.837 84.514 255.629 85.7221 254.151 85.7221C252.672 85.7221 251.464 84.514 251.464 83.0356C251.464 81.5573 252.672 80.3491 254.151 80.3491C255.629 80.3491 256.837 81.5414 256.837 83.0356Z" fill="white"/>
<path d="M281 83.0356C281 84.514 279.792 85.7221 278.313 85.7221C276.835 85.7221 275.627 84.514 275.627 83.0356C275.627 81.5573 276.835 80.3491 278.313 80.3491C279.792 80.3491 281 81.5414 281 83.0356Z" fill="white"/>
<path d="M39.373 104.512C39.373 105.99 38.1649 107.198 36.6865 107.198C35.2081 107.198 34 105.99 34 104.512C34 103.034 35.2081 101.825 36.6865 101.825C38.1649 101.825 39.373 103.018 39.373 104.512Z" fill="white"/>
<path d="M63.5356 104.512C63.5356 105.99 62.3275 107.198 60.8491 107.198C59.3707 107.198 58.1626 105.99 58.1626 104.512C58.1626 103.034 59.3707 101.825 60.8491 101.825C62.3275 101.825 63.5356 103.018 63.5356 104.512Z" fill="white"/>
<path d="M87.6982 104.512C87.6982 105.99 86.4901 107.198 85.0117 107.198C83.5333 107.198 82.3252 105.99 82.3252 104.512C82.3252 103.034 83.5333 101.825 85.0117 101.825C86.4901 101.825 87.6982 103.018 87.6982 104.512Z" fill="white"/>
<path d="M111.861 104.512C111.861 105.99 110.653 107.198 109.175 107.198C107.696 107.198 106.488 105.99 106.488 104.512C106.488 103.034 107.696 101.825 109.175 101.825C110.653 101.825 111.861 103.018 111.861 104.512Z" fill="white"/>
<path d="M136.024 104.512C136.024 105.99 134.816 107.198 133.337 107.198C131.859 107.198 130.651 105.99 130.651 104.512C130.651 103.034 131.859 101.825 133.337 101.825C134.816 101.825 136.024 103.018 136.024 104.512Z" fill="white"/>
<path d="M160.187 104.512C160.187 105.99 158.978 107.198 157.5 107.198C156.022 107.198 154.813 105.99 154.813 104.512C154.813 103.034 156.022 101.825 157.5 101.825C158.978 101.825 160.187 103.018 160.187 104.512Z" fill="white"/>
<path d="M184.349 104.512C184.349 105.99 183.141 107.198 181.663 107.198C180.184 107.198 178.976 105.99 178.976 104.512C178.976 103.034 180.184 101.825 181.663 101.825C183.141 101.825 184.349 103.018 184.349 104.512Z" fill="white"/>
<path d="M208.512 104.512C208.512 105.99 207.304 107.198 205.825 107.198C204.347 107.198 203.139 105.99 203.139 104.512C203.139 103.034 204.347 101.825 205.825 101.825C207.304 101.825 208.512 103.018 208.512 104.512Z" fill="white"/>
<path d="M232.675 104.512C232.675 105.99 231.467 107.198 229.988 107.198C228.51 107.198 227.302 105.99 227.302 104.512C227.302 103.034 228.51 101.825 229.988 101.825C231.467 101.825 232.675 103.018 232.675 104.512Z" fill="white"/>
<path d="M256.837 104.512C256.837 105.99 255.629 107.198 254.151 107.198C252.672 107.198 251.464 105.99 251.464 104.512C251.464 103.034 252.672 101.825 254.151 101.825C255.629 101.825 256.837 103.018 256.837 104.512Z" fill="white"/>
<path d="M281 104.512C281 105.99 279.792 107.198 278.313 107.198C276.835 107.198 275.627 105.99 275.627 104.512C275.627 103.034 276.835 101.825 278.313 101.825C279.792 101.825 281 103.018 281 104.512Z" fill="white"/>
<path d="M39.373 125.988C39.373 127.466 38.1649 128.675 36.6865 128.675C35.2081 128.675 34 127.466 34 125.988C34 124.51 35.2081 123.302 36.6865 123.302C38.1649 123.302 39.373 124.51 39.373 125.988Z" fill="white"/>
<path d="M63.5356 125.988C63.5356 127.466 62.3275 128.675 60.8491 128.675C59.3707 128.675 58.1626 127.466 58.1626 125.988C58.1626 124.51 59.3707 123.302 60.8491 123.302C62.3275 123.302 63.5356 124.51 63.5356 125.988Z" fill="white"/>
<path d="M87.6982 125.988C87.6982 127.466 86.4901 128.675 85.0117 128.675C83.5333 128.675 82.3252 127.466 82.3252 125.988C82.3252 124.51 83.5333 123.302 85.0117 123.302C86.4901 123.302 87.6982 124.51 87.6982 125.988Z" fill="white"/>
<path d="M111.861 125.988C111.861 127.466 110.653 128.675 109.175 128.675C107.696 128.675 106.488 127.466 106.488 125.988C106.488 124.51 107.696 123.302 109.175 123.302C110.653 123.302 111.861 124.51 111.861 125.988Z" fill="white"/>
<path d="M136.024 125.988C136.024 127.466 134.816 128.675 133.337 128.675C131.859 128.675 130.651 127.466 130.651 125.988C130.651 124.51 131.859 123.302 133.337 123.302C134.816 123.302 136.024 124.51 136.024 125.988Z" fill="white"/>
<path d="M160.187 125.988C160.187 127.466 158.978 128.675 157.5 128.675C156.022 128.675 154.813 127.466 154.813 125.988C154.813 124.51 156.022 123.302 157.5 123.302C158.978 123.302 160.187 124.51 160.187 125.988Z" fill="white"/>
<path d="M184.349 125.988C184.349 127.466 183.141 128.675 181.663 128.675C180.184 128.675 178.976 127.466 178.976 125.988C178.976 124.51 180.184 123.302 181.663 123.302C183.141 123.302 184.349 124.51 184.349 125.988Z" fill="white"/>
<path d="M208.512 125.988C208.512 127.466 207.304 128.675 205.825 128.675C204.347 128.675 203.139 127.466 203.139 125.988C203.139 124.51 204.347 123.302 205.825 123.302C207.304 123.302 208.512 124.51 208.512 125.988Z" fill="white"/>
<path d="M232.675 125.988C232.675 127.466 231.467 128.675 229.988 128.675C228.51 128.675 227.302 127.466 227.302 125.988C227.302 124.51 228.51 123.302 229.988 123.302C231.467 123.302 232.675 124.51 232.675 125.988Z" fill="white"/>
<path d="M256.837 125.988C256.837 127.466 255.629 128.675 254.151 128.675C252.672 128.675 251.464 127.466 251.464 125.988C251.464 124.51 252.672 123.302 254.151 123.302C255.629 123.302 256.837 124.51 256.837 125.988Z" fill="white"/>
<path d="M281 125.988C281 127.466 279.792 128.675 278.313 128.675C276.835 128.675 275.627 127.466 275.627 125.988C275.627 124.51 276.835 123.302 278.313 123.302C279.792 123.302 281 124.51 281 125.988Z" fill="white"/>
<path d="M36.6865 150.151C38.1702 150.151 39.373 148.948 39.373 147.464C39.373 145.981 38.1702 144.778 36.6865 144.778C35.2028 144.778 34 145.981 34 147.464C34 148.948 35.2028 150.151 36.6865 150.151Z" fill="white"/>
<path d="M60.8491 150.151C62.3328 150.151 63.5356 148.948 63.5356 147.464C63.5356 145.981 62.3328 144.778 60.8491 144.778C59.3654 144.778 58.1626 145.981 58.1626 147.464C58.1626 148.948 59.3654 150.151 60.8491 150.151Z" fill="white"/>
<path d="M85.0117 150.151C86.4954 150.151 87.6982 148.948 87.6982 147.464C87.6982 145.981 86.4954 144.778 85.0117 144.778C83.528 144.778 82.3252 145.981 82.3252 147.464C82.3252 148.948 83.528 150.151 85.0117 150.151Z" fill="white"/>
<path d="M111.861 147.464C111.861 148.943 110.653 150.151 109.175 150.151C107.696 150.151 106.488 148.943 106.488 147.464C106.488 145.986 107.696 144.778 109.175 144.778C110.653 144.778 111.861 145.986 111.861 147.464Z" fill="white"/>
<path d="M136.024 147.464C136.024 148.943 134.816 150.151 133.337 150.151C131.859 150.151 130.651 148.943 130.651 147.464C130.651 145.986 131.859 144.778 133.337 144.778C134.816 144.778 136.024 145.986 136.024 147.464Z" fill="white"/>
<path d="M157.5 150.151C158.984 150.151 160.187 148.948 160.187 147.464C160.187 145.981 158.984 144.778 157.5 144.778C156.016 144.778 154.813 145.981 154.813 147.464C154.813 148.948 156.016 150.151 157.5 150.151Z" fill="white"/>
<path d="M181.663 150.151C183.146 150.151 184.349 148.948 184.349 147.464C184.349 145.981 183.146 144.778 181.663 144.778C180.179 144.778 178.976 145.981 178.976 147.464C178.976 148.948 180.179 150.151 181.663 150.151Z" fill="white"/>
<path d="M205.825 150.151C207.309 150.151 208.512 148.948 208.512 147.464C208.512 145.981 207.309 144.778 205.825 144.778C204.341 144.778 203.139 145.981 203.139 147.464C203.139 148.948 204.341 150.151 205.825 150.151Z" fill="white"/>
<path d="M229.988 150.151C231.472 150.151 232.675 148.948 232.675 147.464C232.675 145.981 231.472 144.778 229.988 144.778C228.505 144.778 227.302 145.981 227.302 147.464C227.302 148.948 228.505 150.151 229.988 150.151Z" fill="white"/>
<path d="M254.151 150.151C255.635 150.151 256.837 148.948 256.837 147.464C256.837 145.981 255.635 144.778 254.151 144.778C252.667 144.778 251.464 145.981 251.464 147.464C251.464 148.948 252.667 150.151 254.151 150.151Z" fill="white"/>
<path d="M278.313 150.151C279.797 150.151 281 148.948 281 147.464C281 145.981 279.797 144.778 278.313 144.778C276.83 144.778 275.627 145.981 275.627 147.464C275.627 148.948 276.83 150.151 278.313 150.151Z" fill="white"/>
<path d="M39.373 168.94C39.373 170.419 38.1649 171.627 36.6865 171.627C35.2081 171.627 34 170.419 34 168.94C34 167.462 35.2081 166.254 36.6865 166.254C38.1649 166.254 39.373 167.462 39.373 168.94Z" fill="white"/>
<path d="M63.5356 168.94C63.5356 170.419 62.3275 171.627 60.8491 171.627C59.3707 171.627 58.1626 170.419 58.1626 168.94C58.1626 167.462 59.3707 166.254 60.8491 166.254C62.3275 166.254 63.5356 167.462 63.5356 168.94Z" fill="white"/>
<path d="M87.6982 168.94C87.6982 170.419 86.4901 171.627 85.0117 171.627C83.5333 171.627 82.3252 170.419 82.3252 168.94C82.3252 167.462 83.5333 166.254 85.0117 166.254C86.4901 166.254 87.6982 167.462 87.6982 168.94Z" fill="white"/>
<path d="M111.861 168.94C111.861 170.419 110.653 171.627 109.175 171.627C107.696 171.627 106.488 170.419 106.488 168.94C106.488 167.462 107.696 166.254 109.175 166.254C110.653 166.254 111.861 167.462 111.861 168.94Z" fill="white"/>
<path d="M136.024 168.94C136.024 170.419 134.816 171.627 133.337 171.627C131.859 171.627 130.651 170.419 130.651 168.94C130.651 167.462 131.859 166.254 133.337 166.254C134.816 166.254 136.024 167.462 136.024 168.94Z" fill="white"/>
<path d="M160.187 168.94C160.187 170.419 158.978 171.627 157.5 171.627C156.022 171.627 154.813 170.419 154.813 168.94C154.813 167.462 156.022 166.254 157.5 166.254C158.978 166.254 160.187 167.462 160.187 168.94Z" fill="white"/>
<path d="M184.349 168.94C184.349 170.419 183.141 171.627 181.663 171.627C180.184 171.627 178.976 170.419 178.976 168.94C178.976 167.462 180.184 166.254 181.663 166.254C183.141 166.254 184.349 167.462 184.349 168.94Z" fill="white"/>
<path d="M208.512 168.94C208.512 170.419 207.304 171.627 205.825 171.627C204.347 171.627 203.139 170.419 203.139 168.94C203.139 167.462 204.347 166.254 205.825 166.254C207.304 166.254 208.512 167.462 208.512 168.94Z" fill="white"/>
<path d="M232.675 168.94C232.675 170.419 231.467 171.627 229.988 171.627C228.51 171.627 227.302 170.419 227.302 168.94C227.302 167.462 228.51 166.254 229.988 166.254C231.467 166.254 232.675 167.462 232.675 168.94Z" fill="white"/>
<path d="M256.837 168.94C256.837 170.419 255.629 171.627 254.151 171.627C252.672 171.627 251.464 170.419 251.464 168.94C251.464 167.462 252.672 166.254 254.151 166.254C255.629 166.254 256.837 167.462 256.837 168.94Z" fill="white"/>
<path d="M281 168.94C281 170.419 279.792 171.627 278.313 171.627C276.835 171.627 275.627 170.419 275.627 168.94C275.627 167.462 276.835 166.254 278.313 166.254C279.792 166.254 281 167.462 281 168.94Z" fill="white"/>
</g>
<defs>
<filter id="filter0_d" x="-264" y="-384" width="632.603" height="1642.69" filterUnits="userSpaceOnUse" color-interpolation-filters="sRGB">
<feFlood flood-opacity="0" result="BackgroundImageFix"/>
<feColorMatrix in="SourceAlpha" type="matrix" values="0 0 0 0 0 0 0 0 0 0 0 0 0 0 0 0 0 0 127 0"/>
<feOffset dx="21" dy="13"/>
<feGaussianBlur stdDeviation="44"/>
<feColorMatrix type="matrix" values="0 0 0 0 0.0980392 0 0 0 0 0.562353 0 0 0 0 0.823529 0 0 0 1 0"/>
<feBlend mode="normal" in2="BackgroundImageFix" result="effect1_dropShadow"/>
<feBlend mode="normal" in="SourceGraphic" in2="effect1_dropShadow" result="shape"/>
</filter>
<filter id="filter1_d" x="-76" y="-1039" width="2391.22" height="1608.69" filterUnits="userSpaceOnUse" color-interpolation-filters="sRGB">
<feFlood flood-opacity="0" result="BackgroundImageFix"/>
<feColorMatrix in="SourceAlpha" type="matrix" values="0 0 0 0 0 0 0 0 0 0 0 0 0 0 0 0 0 0 127 0"/>
<feOffset dx="21" dy="13"/>
<feGaussianBlur stdDeviation="44"/>
<feColorMatrix type="matrix" values="0 0 0 0 0.0980392 0 0 0 0 0.562353 0 0 0 0 0.823529 0 0 0 1 0"/>
<feBlend mode="normal" in2="BackgroundImageFix" result="effect1_dropShadow"/>
<feBlend mode="normal" in="SourceGraphic" in2="effect1_dropShadow" result="shape"/>
</filter>
<clipPath id="clip0">
<rect width="1441" height="962" fill="white"/>
</clipPath>
</defs>
</svg>
