<svg width="38" height="36" viewBox="0 0 38 36" fill="none" xmlns="http://www.w3.org/2000/svg">
<path fill-rule="evenodd" clip-rule="evenodd" d="M32.9263 29.3642C33.7922 29.3642 34.4942 30.0216 34.4942 30.8325C34.4942 31.6433 33.7922 32.3007 32.9263 32.3007H4.70378C3.83784 32.3007 3.13586 31.6433 3.13586 30.8325C3.13586 30.0216 3.83784 29.3642 4.70378 29.3642H32.9263ZM9.86676 19.5168L27.1138 3.36643C27.6791 2.83716 28.5684 2.79645 29.1835 3.24429L29.3312 3.36643L34.035 7.77107C34.6002 8.30034 34.6437 9.13315 34.1654 9.70912L34.035 9.84744L16.7879 25.9978C16.5428 26.2272 16.2251 26.3729 15.8853 26.4151L15.6792 26.4278H10.9754C10.1714 26.4278 9.50865 25.861 9.41808 25.1308L9.40753 24.9596V20.555C9.40753 20.2305 9.52225 19.917 9.73065 19.6622L9.86676 19.5168L27.1138 3.36643L9.86676 19.5168ZM28.2225 6.48098L12.5434 21.1631V23.4914H15.0297L30.7089 8.80925L28.2225 6.48098Z" fill="white"/>
</svg>
