<svg width="81" height="98" viewBox="0 0 81 98" fill="none" xmlns="http://www.w3.org/2000/svg">
<g clip-path="url(#clip0)" filter="url(#filter0_d)">
<path d="M36.7972 0.288238C36.3163 0.576548 4.76953 18.7401 4.76953 18.7401L5.05807 33.6361L6.59694 64.1008L41.3176 85.3396L44.8763 89.7604L76.9039 71.2125V25.5634C76.9039 23.6413 75.365 21.2388 73.4415 20.1816L39.4902 0.576548C38.4322 -0.0961753 37.4705 -0.192279 36.7972 0.288238Z" fill="#222F3D"/>
<path d="M35.066 36.7114C30.1608 33.9244 25.4481 30.8491 20.2544 28.5426C19.5811 28.2543 18.8117 27.966 18.1384 27.6776C15.6378 26.2361 13.0409 24.8907 10.4441 23.4491C8.6167 22.4881 6.69311 21.0465 4.76953 19.9894V18.74C4.76953 18.74 36.4125 0.48042 36.8934 0.19211C37.5666 -0.192303 38.4322 -0.192303 39.5864 0.48042L73.5376 20.1816C74.1147 20.566 74.6918 21.0465 75.2689 21.6231L42.4718 40.5555C39.9711 39.21 37.3743 38.0568 35.066 36.7114Z" fill="#486582"/>
<path d="M40.9327 39.6906L74.1146 20.566C75.6534 21.7193 76.9038 23.7374 76.9999 25.3712L43.7219 44.5919L40.9327 39.6906Z" fill="#5A7EA3"/>
<path d="M4 20.47V66.2152L7.55863 68.2334V65.9269L41.3175 85.3398V87.6462L44.8761 89.7605V44.1114C44.8761 42.1894 43.3373 39.7868 41.4137 38.7297L7.46245 19.0285C5.53887 17.9713 4 18.548 4 20.47ZM7.55863 23.4492C7.55863 23.0648 7.84717 22.9687 8.23188 23.1609L40.5481 41.805C40.9328 41.9972 41.2213 42.4777 41.2213 42.8621V68.9061C41.2213 69.2905 40.9328 69.3866 40.5481 69.1944L8.32806 50.6465C7.94335 50.4543 7.65481 49.9737 7.65481 49.5893V23.4492H7.55863Z" fill="#34495E"/>
<path d="M44.9723 82.3605V89.7604L41.3175 87.7423V85.4358L7.55863 65.9268V68.2333L4 66.2151V58.8152L44.9723 82.3605Z" fill="#2C3E50"/>
<path d="M31.2188 68.3294L41.3176 74.1917V71.8852L31.2188 66.119V68.3294Z" fill="#BDC3C7"/>
<path d="M7.55859 58.5269L25.4479 68.81V62.7555L7.55859 52.4724V58.5269Z" fill="#95A5A6"/>
<path d="M21.6969 63.0438L24.1014 64.3892C24.4861 64.5814 24.7747 64.4853 24.7747 64.1009V64.0048C24.7747 63.6204 24.4861 63.1399 24.1014 62.9477L21.6969 61.6022C21.3122 61.41 21.0237 61.5061 21.0237 61.8905V61.9866C21.0237 62.371 21.3122 62.8516 21.6969 63.0438Z" fill="#E67E22"/>
<path d="M21.6969 62.8516L24.1014 64.1971C24.4861 64.3893 24.7747 64.2932 24.7747 63.9088V63.8127C24.7747 63.4282 24.4861 62.9477 24.1014 62.7555L21.6969 61.4101C21.3122 61.2179 21.0237 61.314 21.0237 61.6984V61.7945C21.0237 62.1789 21.3122 62.6594 21.6969 62.8516Z" fill="#F1C40F"/>
<path d="M21.6009 62.1788L24.1977 63.6204C24.3901 63.7165 24.4862 63.6204 24.4862 63.5243C24.4862 63.3321 24.2939 63.1399 24.1977 63.0438L21.6009 61.5061C21.4085 61.41 21.3123 61.5061 21.3123 61.6022C21.2161 61.8905 21.4085 62.0827 21.6009 62.1788Z" fill="#FFDA47"/>
<path d="M17.3687 60.5451L19.7732 61.8905C20.1579 62.0828 20.4464 61.9866 20.4464 61.6022V61.5061C20.4464 61.1217 20.1579 60.6412 19.7732 60.449L17.3687 59.1035C16.984 58.9113 16.6954 59.0074 16.6954 59.3919V59.488C16.6954 59.8724 16.984 60.3529 17.3687 60.5451Z" fill="#E67E22"/>
<path d="M17.3687 60.3528L19.7732 61.6983C20.1579 61.8905 20.4464 61.7944 20.4464 61.41V61.3139C20.4464 60.9295 20.1579 60.4489 19.7732 60.2567L17.3687 58.9113C16.984 58.7191 16.6954 58.8152 16.6954 59.1996V59.2957C16.6954 59.6801 16.984 60.1606 17.3687 60.3528Z" fill="#F1C40F"/>
<path d="M17.2728 59.6801L19.8696 61.1217C20.062 61.2178 20.1582 61.1217 20.1582 61.0256C20.1582 60.8334 19.9658 60.6412 19.8696 60.5451L17.2728 59.1035C17.0804 59.0074 16.9843 59.1035 16.9843 59.1996C16.9843 59.3918 17.0804 59.584 17.2728 59.6801Z" fill="#FFDA47"/>
<path d="M13.0407 58.0463L15.4452 59.3918C15.8299 59.584 16.1184 59.4879 16.1184 59.1035V59.0074C16.1184 58.6229 15.8299 58.1424 15.4452 57.9502L13.0407 56.6048C12.656 56.4126 12.3674 56.5087 12.3674 56.8931V56.9892C12.4636 57.3736 12.7521 57.8541 13.0407 58.0463Z" fill="#E67E22"/>
<path d="M13.0407 57.8542L15.4452 59.1996C15.8299 59.3918 16.1184 59.2957 16.1184 58.9113V58.8152C16.1184 58.4308 15.8299 57.9503 15.4452 57.7581L13.0407 56.4126C12.656 56.2204 12.3674 56.3165 12.3674 56.7009V56.797C12.4636 57.1815 12.7521 57.662 13.0407 57.8542Z" fill="#F1C40F"/>
<path d="M13.0408 57.2775L15.6377 58.7191C15.83 58.8152 15.9262 58.7191 15.9262 58.623C15.9262 58.4308 15.7339 58.2386 15.6377 58.1425L13.0408 56.7009C12.8485 56.5087 12.6561 56.5087 12.6561 56.7009C12.6561 56.8931 12.8485 57.0853 13.0408 57.2775Z" fill="#FFDA47"/>
<path d="M8.80887 57.6619L11.2134 59.0074C11.5981 59.1996 11.8866 59.1035 11.8866 58.7191V56.5087C11.8866 56.1243 11.5981 55.6438 11.2134 55.4516L8.80887 54.1061C8.42416 53.9139 8.13562 54.01 8.13562 54.3944V56.6048C8.13562 56.9892 8.42416 57.4697 8.80887 57.6619Z" fill="#C0392B"/>
<path d="M8.80887 57.4698L11.2134 58.8152C11.5981 59.0075 11.8866 58.9113 11.8866 58.5269V56.3166C11.8866 55.9321 11.5981 55.4516 11.2134 55.2594L8.80887 53.914C8.42416 53.7218 8.13562 53.8179 8.13562 54.2023V56.4127C8.13562 56.7971 8.42416 57.2776 8.80887 57.4698Z" fill="#E74C3C"/>
<path d="M8.80903 55.7399L11.2135 57.0854C11.4059 57.1815 11.5982 57.1815 11.5982 56.8932V56.1244C11.5982 55.9321 11.4059 55.6438 11.2135 55.4516L8.80903 54.1062C8.61667 54.0101 8.42431 54.0101 8.42431 54.2984V55.0672C8.32813 55.3555 8.52049 55.6438 8.80903 55.7399Z" fill="#FF5442"/>
<path d="M21.6969 65.0619L24.1014 66.4074C24.4861 66.5996 24.7747 66.5035 24.7747 66.1191V66.023C24.7747 65.6386 24.4861 65.158 24.1014 64.9658L21.6969 63.6204C21.3122 63.4282 21.0237 63.5243 21.0237 63.9087V64.0048C21.0237 64.3892 21.3122 64.8697 21.6969 65.0619Z" fill="#E67E22"/>
<path d="M21.6969 64.8697L24.1014 66.2151C24.4861 66.4073 24.7747 66.3112 24.7747 65.9268V65.8307C24.7747 65.4463 24.4861 64.9658 24.1014 64.7736L21.6969 63.4281C21.3122 63.2359 21.0237 63.332 21.0237 63.7164V63.8125C21.0237 64.197 21.3122 64.6775 21.6969 64.8697Z" fill="#F1C40F"/>
<path d="M21.6009 64.2931L24.1977 65.7346C24.3901 65.8307 24.4862 65.7346 24.4862 65.6385C24.4862 65.4463 24.2939 65.2541 24.1977 65.158L21.6009 63.7164C21.4085 63.6203 21.3123 63.7164 21.3123 63.8125C21.2161 63.9086 21.4085 64.197 21.6009 64.2931Z" fill="#FFDA47"/>
<path d="M17.3687 62.6594L19.7732 64.0048C20.1579 64.197 20.4464 64.1009 20.4464 63.7165V63.6204C20.4464 63.236 20.1579 62.7555 19.7732 62.5633L17.3687 61.2178C16.984 61.0256 16.6954 61.1217 16.6954 61.5061V61.6022C16.6954 61.9866 16.984 62.371 17.3687 62.6594Z" fill="#E67E22"/>
<path d="M17.3687 62.4671L19.7732 63.8125C20.1579 64.0047 20.4464 63.9086 20.4464 63.5242V63.4281C20.4464 63.0437 20.1579 62.5632 19.7732 62.371L17.3687 61.0255C16.984 60.8333 16.6954 60.9294 16.6954 61.3139V61.41C16.6954 61.6983 16.984 62.1788 17.3687 62.4671Z" fill="#F1C40F"/>
<path d="M17.2728 61.7944L19.8696 63.236C20.062 63.3321 20.1582 63.236 20.1582 63.1398C20.1582 62.9476 19.9658 62.7554 19.8696 62.6593L17.2728 61.2178C17.0804 61.1217 16.9843 61.2178 16.9843 61.3139C16.9843 61.41 17.0804 61.6983 17.2728 61.7944Z" fill="#FFDA47"/>
<path d="M13.0407 60.1607L15.4452 61.5061C15.8299 61.6984 16.1184 61.6023 16.1184 61.2178V61.1217C16.1184 60.7373 15.8299 60.2568 15.4452 60.0646L13.0407 58.7191C12.656 58.5269 12.3674 58.623 12.3674 59.0075V59.1036C12.4636 59.488 12.7521 59.9685 13.0407 60.1607Z" fill="#E67E22"/>
<path d="M13.0407 59.9684L15.4452 61.3139C15.8299 61.5061 16.1184 61.41 16.1184 61.0256V60.9295C16.1184 60.5451 15.8299 60.0645 15.4452 59.8723L13.0407 58.5269C12.656 58.3347 12.3674 58.4308 12.3674 58.8152V58.9113C12.4636 59.2957 12.7521 59.7762 13.0407 59.9684Z" fill="#F1C40F"/>
<path d="M13.0408 59.2958L15.6377 60.7373C15.83 60.8334 15.9262 60.7373 15.9262 60.6412C15.9262 60.449 15.7339 60.2568 15.6377 60.1607L13.0408 58.623C12.8485 58.5269 12.6561 58.623 12.6561 58.8152C12.6561 58.9113 12.8485 59.1996 13.0408 59.2958Z" fill="#FFDA47"/>
<path d="M7.55859 57.9502L25.4479 68.2333V67.7528L7.55859 57.4697V57.9502Z" fill="#BDC3C7"/>
<path d="M31.7955 68.1373L41.0287 73.423V72.2697L31.7955 66.8879V68.1373Z" fill="#ECF0F1"/>
<path d="M7.55859 29.0231L41.3175 48.436V46.5139L7.55859 27.1011V29.0231Z" fill="#BDC3C7"/>
<path d="M7.55859 29.0232L41.3175 48.436V47.8594L7.55859 28.4465V29.0232Z" fill="#95A5A6"/>
<path d="M7.55859 28.0622L41.3175 47.4751V46.8985L7.55859 27.4856V28.0622Z" fill="#ECF0F1"/>
<path d="M9.96289 48.1477L38.9128 64.7736V68.3294L9.96289 51.6074V48.1477Z" fill="#7F8C8D"/>
<path d="M9.96289 48.1477L23.2356 40.4595L41.3173 50.7425V63.4282L38.9128 64.7736L9.96289 48.1477Z" fill="#BDC3C7"/>
<path d="M26.0257 54.01L24.8715 52.8568L25.0639 51.7036C24.7754 51.3191 24.4868 50.8386 24.1983 50.3581L22.948 49.7815L22.4671 48.3399L23.525 48.1477C23.4289 47.7633 23.4289 47.3789 23.525 46.9945L21.6976 45.5529L23.0441 44.7841L24.2945 45.649C24.4868 45.4568 23.8136 44.9763 23.6212 44.688L24.9677 43.9192L26.1219 44.1114L26.8913 45.5529C27.276 45.7452 27.6607 45.9374 28.0455 46.2257L28.8149 45.649L29.969 46.8023L29.7767 47.9555C30.0652 48.3399 30.3538 48.8205 30.6423 49.301L31.8926 49.8776L32.3735 51.3191L31.4117 51.8958C31.4117 52.1841 31.4117 52.3763 31.4117 52.6646L32.4697 54.01L31.8926 54.875L30.5461 55.6438C30.5461 55.6438 30.0652 54.2983 29.7767 54.2983L29.969 55.7399L28.6225 56.5087L28.0455 54.1061C27.6607 53.9139 27.276 53.7217 26.8913 53.4334L26.0257 54.01Z" fill="#E67E22"/>
<path d="M26.0257 54.01L24.8715 52.8568L25.0639 51.7036C24.7754 51.3191 24.4868 50.8386 24.1983 50.3581L22.948 49.7815L22.4671 48.3399L23.525 48.1477C23.4289 47.7633 23.4289 47.3789 23.525 46.9945L21.6976 45.5529L23.0441 44.7841L24.2945 45.649C24.4868 45.4568 23.8136 44.9763 23.6212 44.688L24.9677 43.9192L26.1219 44.1114L26.8913 45.5529C27.276 45.7452 27.6607 45.9374 28.0455 46.2257L28.8149 45.649L29.969 46.8023L29.7767 47.9555C30.0652 48.3399 30.3538 48.8205 30.6423 49.301L31.8926 49.8776L32.3735 51.3191L31.4117 51.8958C31.4117 52.1841 31.4117 52.3763 31.4117 52.6646L32.4697 54.01L31.8926 54.875L30.5461 55.6438C30.5461 55.6438 30.0652 54.2983 29.7767 54.2983L29.969 55.7399L28.6225 56.5087L28.0455 54.1061C27.6607 53.9139 27.276 53.7217 26.8913 53.4334L26.0257 54.01Z" fill="#E67E22"/>
<path d="M24.6783 54.7788L23.5241 53.6256L23.7165 52.4724C23.4279 52.0879 23.1394 51.6074 22.8509 51.1269L21.6005 50.5503L21.1196 49.1087L22.1776 48.9165C22.0814 48.5321 22.0814 48.1477 22.1776 47.7633L21.1196 46.4178L21.6005 45.5529L22.8509 46.4178C23.0432 46.2256 23.3318 46.1295 23.7165 46.0334L23.5241 44.688L24.6783 44.8802L25.4477 46.3217C25.8324 46.514 26.2171 46.7062 26.6018 46.9945L27.3713 46.4178L28.5254 47.5711L28.3331 48.7243C28.6216 49.1087 28.9101 49.5893 29.1987 50.0698L30.449 50.6464L30.9299 52.0879L29.9681 52.2801C30.0643 52.6646 30.0643 53.049 29.9681 53.4334L31.0261 54.7788L30.5452 55.6438L29.2949 54.7788C29.1025 54.971 28.814 55.0671 28.4292 55.1632L28.6216 56.5087L27.4675 56.3165L26.698 54.8749C26.3133 54.6827 25.9286 54.4905 25.5439 54.2022L24.6783 54.7788Z" fill="#F1C40F"/>
<path d="M23.0436 48.8205C23.0436 50.5504 24.3901 52.6646 26.1213 53.6257C27.8525 54.5867 29.199 54.0101 29.199 52.2802C29.199 50.5504 27.8525 48.4361 26.1213 47.475C24.3901 46.514 23.0436 47.0906 23.0436 48.8205Z" fill="#E67E22"/>
<path d="M24.1014 49.3971C24.1014 50.5503 24.9671 51.8957 26.1212 52.5685C27.2754 53.2412 28.141 52.8568 28.141 51.7035C28.141 50.5503 27.2754 49.2048 26.1212 48.5321C24.9671 47.9555 24.1014 48.3399 24.1014 49.3971Z" fill="#F1C40F"/>
<path d="M21.9856 38.3453L31.6035 43.9193V39.979L21.9856 34.405V38.3453Z" fill="#34495E"/>
<path d="M21.9856 38.3452L31.6035 43.9192V42.6698L21.9856 37.0958V38.3452Z" fill="#2C3E50"/>
<path d="M21.9856 36.0388L31.6035 41.6128V40.6517L21.9856 35.0778V36.0388Z" fill="#415B75"/>
<path d="M23.3322 39.7868L30.2571 43.7271V43.1504L23.3322 39.2102V39.7868Z" fill="#34495E"/>
<path d="M24.1014 42.3815L29.3913 45.3607V43.2464L24.1014 40.2672V42.3815Z" fill="#2D3F52"/>
<path d="M26.6021 41.7089L27.7562 42.2855V44.3997L26.6021 43.8231V41.7089Z" fill="#486582"/>
<path d="M24.8707 43.4387L28.7179 45.6491V44.9764L24.8707 42.766V43.4387Z" fill="#34495E"/>
<path d="M28.7179 45.6491L24.8707 43.4387L26.7943 46.514L28.7179 45.6491Z" fill="#304357"/>
<path d="M26.7945 46.514L27.5639 44.9763L26.4098 44.3036L26.7945 46.514Z" fill="#486582"/>
<path d="M26.4097 36.9997L27.0829 37.3841C27.0829 36.7114 26.7944 35.8465 26.2173 35.0777C25.8326 34.5971 25.1594 33.8283 24.1014 33.54C23.6205 33.3478 23.1396 33.2517 22.7549 33.1556C21.4084 32.8673 20.2542 32.4829 18.9077 31.5218C17.7536 30.5608 16.6956 29.0231 16.6956 28.1582L16.0223 27.7738C16.0223 29.0231 17.1765 30.9452 18.7154 32.0985C20.158 33.2517 21.6007 33.6361 22.9472 33.9244C23.4281 34.0205 23.8129 34.1166 24.2938 34.3088C24.8708 34.501 25.4479 34.8854 25.8326 35.366C26.2173 35.8465 26.4097 36.4231 26.4097 36.9997Z" fill="#F1C40F"/>
<path d="M4 59.6801L44.9723 83.2254V82.3605L4 58.8152V59.6801Z" fill="#4E6D8C"/>
<path d="M38.9131 64.7735L41.3176 63.4281C41.3176 63.4281 41.3176 68.6177 41.3176 69.0021C41.3176 69.2904 41.029 69.4826 40.7405 69.3865C40.452 69.1943 38.9131 68.3294 38.9131 68.3294V64.7735Z" fill="#5C6566"/>
<path d="M7.55859 68.2334L9.57836 67.0801L7.55859 65.9269V68.2334Z" fill="#151E26"/>
</g>
<defs>
<filter id="filter0_d" x="0" y="0" width="81" height="97.7605" filterUnits="userSpaceOnUse" color-interpolation-filters="sRGB">
<feFlood flood-opacity="0" result="BackgroundImageFix"/>
<feColorMatrix in="SourceAlpha" type="matrix" values="0 0 0 0 0 0 0 0 0 0 0 0 0 0 0 0 0 0 127 0"/>
<feOffset dy="4"/>
<feGaussianBlur stdDeviation="2"/>
<feColorMatrix type="matrix" values="0 0 0 0 0 0 0 0 0 0 0 0 0 0 0 0 0 0 0.25 0"/>
<feBlend mode="normal" in2="BackgroundImageFix" result="effect1_dropShadow"/>
<feBlend mode="normal" in="SourceGraphic" in2="effect1_dropShadow" result="shape"/>
</filter>
<clipPath id="clip0">
<rect width="73" height="89.7605" fill="white" transform="translate(4)"/>
</clipPath>
</defs>
</svg>
