<svg width="50" height="50" viewBox="0 0 50 50" fill="none" xmlns="http://www.w3.org/2000/svg">
<mask id="mask0" mask-type="alpha" maskUnits="userSpaceOnUse" x="10" y="15" width="31" height="20">
<path fill-rule="evenodd" clip-rule="evenodd" d="M10.0001 17C10.0001 15.8954 10.8956 15 12.0001 15H38.9044C40.0089 15 40.9044 15.8954 40.9044 17V33C40.9044 34.1046 40.0089 35 38.9044 35H12.0001C10.8956 35 10.0001 34.1046 10.0001 33V17ZM16.3466 23.6667C14.4835 23.6667 13.0354 22.3547 13.0354 20.6667C13.0354 18.9787 14.4835 17.6667 16.3466 17.6667C18.2097 17.6667 19.6577 18.9787 19.6577 20.6667C19.6577 22.3547 18.2097 23.6667 16.3466 23.6667ZM26.7951 23.2167C26.033 22.5262 24.8715 22.5262 24.1094 23.2167L18.2584 28.5179C16.9024 29.7464 17.7715 32 19.6012 32H31.3033C33.133 32 34.0021 29.7464 32.6462 28.5179L26.7951 23.2167Z" fill="black"/>
</mask>
<g mask="url(#mask0)">
<rect width="50" height="50" fill="white"/>
</g>
</svg>
