<?xml version="1.0" standalone="no"?>
<!DOCTYPE svg PUBLIC "-//W3C//DTD SVG 20010904//EN"
 "http://www.w3.org/TR/2001/REC-SVG-20010904/DTD/svg10.dtd">
<svg version="1.0" xmlns="http://www.w3.org/2000/svg"
 width="171.000000pt" height="171.000000pt" viewBox="0 0 171.000000 171.000000"
 preserveAspectRatio="xMidYMid meet">
<metadata>
Created by potrace 1.11, written by Peter Selinger 2001-2013
</metadata>
<g transform="translate(0.000000,171.000000) scale(0.100000,-0.100000)"
fill="#000000" stroke="none">
<path d="M485 1525 c-165 -95 -306 -179 -313 -185 -9 -8 -12 -111 -12 -448 l0
-437 33 -18 c21 -12 43 -16 59 -12 21 5 79 -24 319 -163 245 -142 294 -174
297 -194 2 -15 15 -30 35 -41 l33 -18 299 174 300 173 0 452 0 452 -35 33
c-41 40 -672 407 -697 406 -10 0 -153 -78 -318 -174z m-113 -417 c70 -40 128
-79 128 -85 0 -7 -2 -13 -4 -13 -13 0 -261 149 -264 159 -7 20 9 13 140 -61z
m103 -26 c-3 -3 -11 0 -18 7 -9 10 -8 11 6 5 10 -3 15 -9 12 -12z m91 -28 c19
-15 19 -15 -1 -6 -11 5 -27 12 -35 15 -13 5 -13 6 1 6 8 1 24 -6 35 -15z m-19
-150 c7 -15 10 -31 7 -36 -9 -13 26 -48 48 -48 11 0 18 -7 18 -20 0 -12 12
-32 26 -45 20 -18 23 -28 16 -42 -13 -24 9 -58 26 -41 8 8 7 16 -1 30 -9 15
-9 20 1 27 11 6 8 14 -12 36 -14 15 -26 36 -26 46 0 10 -5 21 -11 25 -8 5 -7
10 4 16 12 6 44 -7 117 -49 l100 -57 0 -123 c0 -111 -2 -123 -19 -133 -16 -8
-65 16 -291 146 l-271 156 118 69 c65 38 123 69 128 69 6 0 15 -12 22 -26z
m238 -35 c47 -27 83 -54 79 -60 -3 -5 -30 4 -62 23 -31 18 -69 39 -84 48 -28
15 -45 40 -28 40 5 0 48 -23 95 -51z m-411 -250 c31 -24 26 -44 -7 -28 -16 7
-15 5 5 -11 15 -11 25 -27 22 -34 -3 -8 -1 -17 4 -20 5 -3 8 10 6 29 -1 19 1
37 5 39 4 3 24 -6 44 -19 20 -14 39 -25 42 -25 13 0 65 -41 65 -51 0 -6 -10
-7 -22 -3 -22 6 -22 6 2 -14 29 -23 22 -39 -9 -22 -12 6 -21 8 -21 6 0 -3 15
-13 33 -22 17 -10 27 -19 20 -21 -11 -4 -281 146 -316 175 -32 28 -10 23 44
-8 29 -18 47 -24 39 -15 -11 13 -11 18 -1 25 9 5 10 10 2 14 -6 4 -11 11 -11
17 0 16 26 10 54 -12z m459 -256 c34 -22 45 -43 23 -45 -4 -1 -46 21 -92 47
-58 34 -84 55 -84 68 0 16 6 15 58 -14 31 -18 74 -43 95 -56z"/>
<path d="M505 840 c3 -5 10 -10 16 -10 5 0 9 5 9 10 0 6 -7 10 -16 10 -8 0
-12 -4 -9 -10z"/>
<path d="M523 793 c-9 -23 26 -84 59 -103 25 -13 29 -13 44 2 21 21 12 61 -21
94 -28 28 -73 32 -82 7z m77 -25 c32 -35 23 -76 -13 -62 -22 8 -50 53 -43 70
8 21 32 17 56 -8z"/>
<path d="M637 663 c-4 -3 -7 -11 -7 -17 0 -6 5 -5 12 2 6 6 9 14 7 17 -3 3 -9
2 -12 -2z"/>
<path d="M357 549 c7 -7 15 -10 18 -7 3 3 -2 9 -12 12 -14 6 -15 5 -6 -5z"/>
<path d="M420 556 c0 -3 9 -10 20 -16 11 -6 20 -8 20 -6 0 3 -9 10 -20 16 -11
6 -20 8 -20 6z"/>
<path d="M470 530 c0 -5 10 -15 23 -21 22 -12 22 -12 3 10 -21 23 -26 26 -26
11z"/>
<path d="M420 515 c0 -3 19 -14 43 -26 23 -12 35 -15 27 -7 -16 15 -70 41 -70
33z"/>
</g>
</svg>
