<svg width="1440" height="1287" viewBox="0 0 1440 1287" fill="none" xmlns="http://www.w3.org/2000/svg">
<g clip-path="url(#clip0)">
<rect width="1440" height="1287" fill="white"/>
<rect y="60" width="1454" height="1229" fill="#313131"/>
<rect x="-54" width="1602" height="1290" fill="#1CA7EC"/>
<g filter="url(#filter0_d)">
<rect x="214.603" y="1454.69" width="456.603" height="1466.69" rx="111" transform="rotate(180 214.603 1454.69)" fill="#1CA7EC"/>
</g>
<g filter="url(#filter1_d)">
<rect x="158.102" y="765.688" width="469.819" height="2244.91" rx="111" transform="rotate(-116.837 158.102 765.688)" fill="#056696"/>
</g>
<path d="M1319.69 259.373C1321.17 259.373 1322.37 258.17 1322.37 256.686C1322.37 255.203 1321.17 254 1319.69 254C1318.2 254 1317 255.203 1317 256.686C1317 258.17 1318.2 259.373 1319.69 259.373Z" fill="white"/>
<path d="M1343.85 259.373C1345.33 259.373 1346.54 258.17 1346.54 256.686C1346.54 255.203 1345.33 254 1343.85 254C1342.37 254 1341.16 255.203 1341.16 256.686C1341.16 258.17 1342.37 259.373 1343.85 259.373Z" fill="white"/>
<path d="M1368.01 259.373C1369.5 259.373 1370.7 258.17 1370.7 256.686C1370.7 255.203 1369.5 254 1368.01 254C1366.53 254 1365.33 255.203 1365.33 256.686C1365.33 258.17 1366.53 259.373 1368.01 259.373Z" fill="white"/>
<path d="M1394.86 256.686C1394.86 258.165 1393.65 259.373 1392.17 259.373C1390.7 259.373 1389.49 258.165 1389.49 256.686C1389.49 255.208 1390.7 254 1392.17 254C1393.65 254 1394.86 255.208 1394.86 256.686Z" fill="white"/>
<path d="M1419.02 256.686C1419.02 258.165 1417.82 259.373 1416.34 259.373C1414.86 259.373 1413.65 258.165 1413.65 256.686C1413.65 255.208 1414.86 254 1416.34 254C1417.82 254 1419.02 255.208 1419.02 256.686Z" fill="white"/>
<path d="M1440.5 259.373C1441.98 259.373 1443.19 258.17 1443.19 256.686C1443.19 255.203 1441.98 254 1440.5 254C1439.02 254 1437.81 255.203 1437.81 256.686C1437.81 258.17 1439.02 259.373 1440.5 259.373Z" fill="white"/>
<path d="M1319.69 280.849C1321.17 280.849 1322.37 279.646 1322.37 278.163C1322.37 276.679 1321.17 275.476 1319.69 275.476C1318.2 275.476 1317 276.679 1317 278.163C1317 279.646 1318.2 280.849 1319.69 280.849Z" fill="white"/>
<path d="M1343.85 280.849C1345.33 280.849 1346.54 279.646 1346.54 278.163C1346.54 276.679 1345.33 275.476 1343.85 275.476C1342.37 275.476 1341.16 276.679 1341.16 278.163C1341.16 279.646 1342.37 280.849 1343.85 280.849Z" fill="white"/>
<path d="M1368.01 280.849C1369.5 280.849 1370.7 279.646 1370.7 278.163C1370.7 276.679 1369.5 275.476 1368.01 275.476C1366.53 275.476 1365.33 276.679 1365.33 278.163C1365.33 279.646 1366.53 280.849 1368.01 280.849Z" fill="white"/>
<path d="M1394.86 278.163C1394.86 279.641 1393.65 280.849 1392.17 280.849C1390.7 280.849 1389.49 279.641 1389.49 278.163C1389.49 276.684 1390.7 275.476 1392.17 275.476C1393.65 275.476 1394.86 276.684 1394.86 278.163Z" fill="white"/>
<path d="M1419.02 278.163C1419.02 279.641 1417.82 280.849 1416.34 280.849C1414.86 280.849 1413.65 279.641 1413.65 278.163C1413.65 276.684 1414.86 275.476 1416.34 275.476C1417.82 275.476 1419.02 276.684 1419.02 278.163Z" fill="white"/>
<path d="M1440.5 280.849C1441.98 280.849 1443.19 279.646 1443.19 278.163C1443.19 276.679 1441.98 275.476 1440.5 275.476C1439.02 275.476 1437.81 276.679 1437.81 278.163C1437.81 279.646 1439.02 280.849 1440.5 280.849Z" fill="white"/>
<path d="M1319.69 302.325C1321.17 302.325 1322.37 301.123 1322.37 299.639C1322.37 298.155 1321.17 296.952 1319.69 296.952C1318.2 296.952 1317 298.155 1317 299.639C1317 301.123 1318.2 302.325 1319.69 302.325Z" fill="white"/>
<path d="M1343.85 302.325C1345.33 302.325 1346.54 301.123 1346.54 299.639C1346.54 298.155 1345.33 296.952 1343.85 296.952C1342.37 296.952 1341.16 298.155 1341.16 299.639C1341.16 301.123 1342.37 302.325 1343.85 302.325Z" fill="white"/>
<path d="M1368.01 302.325C1369.5 302.325 1370.7 301.123 1370.7 299.639C1370.7 298.155 1369.5 296.952 1368.01 296.952C1366.53 296.952 1365.33 298.155 1365.33 299.639C1365.33 301.123 1366.53 302.325 1368.01 302.325Z" fill="white"/>
<path d="M1394.86 299.639C1394.86 301.117 1393.65 302.325 1392.17 302.325C1390.7 302.325 1389.49 301.117 1389.49 299.639C1389.49 298.161 1390.7 296.952 1392.17 296.952C1393.65 296.952 1394.86 298.161 1394.86 299.639Z" fill="white"/>
<path d="M1419.02 299.639C1419.02 301.117 1417.82 302.325 1416.34 302.325C1414.86 302.325 1413.65 301.117 1413.65 299.639C1413.65 298.161 1414.86 296.952 1416.34 296.952C1417.82 296.952 1419.02 298.161 1419.02 299.639Z" fill="white"/>
<path d="M1440.5 302.325C1441.98 302.325 1443.19 301.123 1443.19 299.639C1443.19 298.155 1441.98 296.952 1440.5 296.952C1439.02 296.952 1437.81 298.155 1437.81 299.639C1437.81 301.123 1439.02 302.325 1440.5 302.325Z" fill="white"/>
<path d="M1322.37 321.115C1322.37 322.593 1321.16 323.802 1319.69 323.802C1318.21 323.802 1317 322.593 1317 321.115C1317 319.637 1318.21 318.429 1319.69 318.429C1321.16 318.429 1322.37 319.637 1322.37 321.115Z" fill="white"/>
<path d="M1346.54 321.115C1346.54 322.593 1345.33 323.802 1343.85 323.802C1342.37 323.802 1341.16 322.593 1341.16 321.115C1341.16 319.637 1342.37 318.429 1343.85 318.429C1345.33 318.429 1346.54 319.637 1346.54 321.115Z" fill="white"/>
<path d="M1370.7 321.115C1370.7 322.593 1369.49 323.802 1368.01 323.802C1366.53 323.802 1365.33 322.593 1365.33 321.115C1365.33 319.637 1366.53 318.429 1368.01 318.429C1369.49 318.429 1370.7 319.637 1370.7 321.115Z" fill="white"/>
<path d="M1394.86 321.115C1394.86 322.593 1393.65 323.802 1392.17 323.802C1390.7 323.802 1389.49 322.593 1389.49 321.115C1389.49 319.637 1390.7 318.429 1392.17 318.429C1393.65 318.429 1394.86 319.637 1394.86 321.115Z" fill="white"/>
<path d="M1419.02 321.115C1419.02 322.593 1417.82 323.802 1416.34 323.802C1414.86 323.802 1413.65 322.593 1413.65 321.115C1413.65 319.637 1414.86 318.429 1416.34 318.429C1417.82 318.429 1419.02 319.637 1419.02 321.115Z" fill="white"/>
<path d="M1443.19 321.115C1443.19 322.593 1441.98 323.802 1440.5 323.802C1439.02 323.802 1437.81 322.593 1437.81 321.115C1437.81 319.637 1439.02 318.429 1440.5 318.429C1441.98 318.429 1443.19 319.637 1443.19 321.115Z" fill="white"/>
<path d="M1322.37 342.591C1322.37 344.07 1321.16 345.278 1319.69 345.278C1318.21 345.278 1317 344.07 1317 342.591C1317 341.113 1318.21 339.905 1319.69 339.905C1321.16 339.905 1322.37 341.113 1322.37 342.591Z" fill="white"/>
<path d="M1346.54 342.591C1346.54 344.07 1345.33 345.278 1343.85 345.278C1342.37 345.278 1341.16 344.07 1341.16 342.591C1341.16 341.113 1342.37 339.905 1343.85 339.905C1345.33 339.905 1346.54 341.113 1346.54 342.591Z" fill="white"/>
<path d="M1370.7 342.591C1370.7 344.07 1369.49 345.278 1368.01 345.278C1366.53 345.278 1365.33 344.07 1365.33 342.591C1365.33 341.113 1366.53 339.905 1368.01 339.905C1369.49 339.905 1370.7 341.113 1370.7 342.591Z" fill="white"/>
<path d="M1394.86 342.591C1394.86 344.07 1393.65 345.278 1392.17 345.278C1390.7 345.278 1389.49 344.07 1389.49 342.591C1389.49 341.113 1390.7 339.905 1392.17 339.905C1393.65 339.905 1394.86 341.113 1394.86 342.591Z" fill="white"/>
<path d="M1419.02 342.591C1419.02 344.07 1417.82 345.278 1416.34 345.278C1414.86 345.278 1413.65 344.07 1413.65 342.591C1413.65 341.113 1414.86 339.905 1416.34 339.905C1417.82 339.905 1419.02 341.113 1419.02 342.591Z" fill="white"/>
<path d="M1443.19 342.591C1443.19 344.07 1441.98 345.278 1440.5 345.278C1439.02 345.278 1437.81 344.07 1437.81 342.591C1437.81 341.113 1439.02 339.905 1440.5 339.905C1441.98 339.905 1443.19 341.113 1443.19 342.591Z" fill="white"/>
<path d="M1322.37 364.067C1322.37 365.546 1321.16 366.754 1319.69 366.754C1318.21 366.754 1317 365.546 1317 364.067C1317 362.589 1318.21 361.381 1319.69 361.381C1321.16 361.381 1322.37 362.589 1322.37 364.067Z" fill="white"/>
<path d="M1346.54 364.067C1346.54 365.546 1345.33 366.754 1343.85 366.754C1342.37 366.754 1341.16 365.546 1341.16 364.067C1341.16 362.589 1342.37 361.381 1343.85 361.381C1345.33 361.381 1346.54 362.589 1346.54 364.067Z" fill="white"/>
<path d="M1370.7 364.067C1370.7 365.546 1369.49 366.754 1368.01 366.754C1366.53 366.754 1365.33 365.546 1365.33 364.067C1365.33 362.589 1366.53 361.381 1368.01 361.381C1369.49 361.381 1370.7 362.589 1370.7 364.067Z" fill="white"/>
<path d="M1394.86 364.067C1394.86 365.546 1393.65 366.754 1392.17 366.754C1390.7 366.754 1389.49 365.546 1389.49 364.067C1389.49 362.589 1390.7 361.381 1392.17 361.381C1393.65 361.381 1394.86 362.589 1394.86 364.067Z" fill="white"/>
<path d="M1419.02 364.067C1419.02 365.546 1417.82 366.754 1416.34 366.754C1414.86 366.754 1413.65 365.546 1413.65 364.067C1413.65 362.589 1414.86 361.381 1416.34 361.381C1417.82 361.381 1419.02 362.589 1419.02 364.067Z" fill="white"/>
<path d="M1443.19 364.067C1443.19 365.546 1441.98 366.754 1440.5 366.754C1439.02 366.754 1437.81 365.546 1437.81 364.067C1437.81 362.589 1439.02 361.381 1440.5 361.381C1441.98 361.381 1443.19 362.589 1443.19 364.067Z" fill="white"/>
<path d="M1319.69 388.23C1321.17 388.23 1322.37 387.027 1322.37 385.544C1322.37 384.06 1321.17 382.857 1319.69 382.857C1318.2 382.857 1317 384.06 1317 385.544C1317 387.027 1318.2 388.23 1319.69 388.23Z" fill="white"/>
<path d="M1343.85 388.23C1345.33 388.23 1346.54 387.027 1346.54 385.544C1346.54 384.06 1345.33 382.857 1343.85 382.857C1342.37 382.857 1341.16 384.06 1341.16 385.544C1341.16 387.027 1342.37 388.23 1343.85 388.23Z" fill="white"/>
<path d="M1368.01 388.23C1369.5 388.23 1370.7 387.027 1370.7 385.544C1370.7 384.06 1369.5 382.857 1368.01 382.857C1366.53 382.857 1365.33 384.06 1365.33 385.544C1365.33 387.027 1366.53 388.23 1368.01 388.23Z" fill="white"/>
<path d="M1394.86 385.544C1394.86 387.022 1393.65 388.23 1392.17 388.23C1390.7 388.23 1389.49 387.022 1389.49 385.544C1389.49 384.065 1390.7 382.857 1392.17 382.857C1393.65 382.873 1394.86 384.065 1394.86 385.544Z" fill="white"/>
<path d="M1419.02 385.544C1419.02 387.022 1417.82 388.23 1416.34 388.23C1414.86 388.23 1413.65 387.022 1413.65 385.544C1413.65 384.065 1414.86 382.857 1416.34 382.857C1417.82 382.873 1419.02 384.065 1419.02 385.544Z" fill="white"/>
<path d="M1440.5 388.23C1441.98 388.23 1443.19 387.027 1443.19 385.544C1443.19 384.06 1441.98 382.857 1440.5 382.857C1439.02 382.857 1437.81 384.06 1437.81 385.544C1437.81 387.027 1439.02 388.23 1440.5 388.23Z" fill="white"/>
<path d="M1322.37 407.036C1322.37 408.514 1321.16 409.722 1319.69 409.722C1318.21 409.722 1317 408.514 1317 407.036C1317 405.557 1318.21 404.349 1319.69 404.349C1321.16 404.349 1322.37 405.541 1322.37 407.036Z" fill="white"/>
<path d="M1346.54 407.036C1346.54 408.514 1345.33 409.722 1343.85 409.722C1342.37 409.722 1341.16 408.514 1341.16 407.036C1341.16 405.557 1342.37 404.349 1343.85 404.349C1345.33 404.349 1346.54 405.541 1346.54 407.036Z" fill="white"/>
<path d="M1370.7 407.036C1370.7 408.514 1369.49 409.722 1368.01 409.722C1366.53 409.722 1365.33 408.514 1365.33 407.036C1365.33 405.557 1366.53 404.349 1368.01 404.349C1369.49 404.349 1370.7 405.541 1370.7 407.036Z" fill="white"/>
<path d="M1394.86 407.036C1394.86 408.514 1393.65 409.722 1392.17 409.722C1390.7 409.722 1389.49 408.514 1389.49 407.036C1389.49 405.557 1390.7 404.349 1392.17 404.349C1393.65 404.349 1394.86 405.541 1394.86 407.036Z" fill="white"/>
<path d="M1419.02 407.036C1419.02 408.514 1417.82 409.722 1416.34 409.722C1414.86 409.722 1413.65 408.514 1413.65 407.036C1413.65 405.557 1414.86 404.349 1416.34 404.349C1417.82 404.349 1419.02 405.541 1419.02 407.036Z" fill="white"/>
<path d="M1443.19 407.036C1443.19 408.514 1441.98 409.722 1440.5 409.722C1439.02 409.722 1437.81 408.514 1437.81 407.036C1437.81 405.557 1439.02 404.349 1440.5 404.349C1441.98 404.349 1443.19 405.541 1443.19 407.036Z" fill="white"/>
<path d="M1322.37 428.512C1322.37 429.99 1321.16 431.198 1319.69 431.198C1318.21 431.198 1317 429.99 1317 428.512C1317 427.033 1318.21 425.825 1319.69 425.825C1321.16 425.825 1322.37 427.018 1322.37 428.512Z" fill="white"/>
<path d="M1346.54 428.512C1346.54 429.99 1345.33 431.198 1343.85 431.198C1342.37 431.198 1341.16 429.99 1341.16 428.512C1341.16 427.033 1342.37 425.825 1343.85 425.825C1345.33 425.825 1346.54 427.018 1346.54 428.512Z" fill="white"/>
<path d="M1370.7 428.512C1370.7 429.99 1369.49 431.198 1368.01 431.198C1366.53 431.198 1365.33 429.99 1365.33 428.512C1365.33 427.033 1366.53 425.825 1368.01 425.825C1369.49 425.825 1370.7 427.018 1370.7 428.512Z" fill="white"/>
<path d="M1394.86 428.512C1394.86 429.99 1393.65 431.198 1392.17 431.198C1390.7 431.198 1389.49 429.99 1389.49 428.512C1389.49 427.033 1390.7 425.825 1392.17 425.825C1393.65 425.825 1394.86 427.018 1394.86 428.512Z" fill="white"/>
<path d="M1419.02 428.512C1419.02 429.99 1417.82 431.198 1416.34 431.198C1414.86 431.198 1413.65 429.99 1413.65 428.512C1413.65 427.033 1414.86 425.825 1416.34 425.825C1417.82 425.825 1419.02 427.018 1419.02 428.512Z" fill="white"/>
<path d="M1443.19 428.512C1443.19 429.99 1441.98 431.198 1440.5 431.198C1439.02 431.198 1437.81 429.99 1437.81 428.512C1437.81 427.033 1439.02 425.825 1440.5 425.825C1441.98 425.825 1443.19 427.018 1443.19 428.512Z" fill="white"/>
<path d="M1322.37 449.988C1322.37 451.466 1321.16 452.675 1319.69 452.675C1318.21 452.675 1317 451.466 1317 449.988C1317 448.51 1318.21 447.302 1319.69 447.302C1321.16 447.302 1322.37 448.51 1322.37 449.988Z" fill="white"/>
<path d="M1346.54 449.988C1346.54 451.466 1345.33 452.675 1343.85 452.675C1342.37 452.675 1341.16 451.466 1341.16 449.988C1341.16 448.51 1342.37 447.302 1343.85 447.302C1345.33 447.302 1346.54 448.51 1346.54 449.988Z" fill="white"/>
<path d="M1370.7 449.988C1370.7 451.466 1369.49 452.675 1368.01 452.675C1366.53 452.675 1365.33 451.466 1365.33 449.988C1365.33 448.51 1366.53 447.302 1368.01 447.302C1369.49 447.302 1370.7 448.51 1370.7 449.988Z" fill="white"/>
<path d="M1394.86 449.988C1394.86 451.466 1393.65 452.675 1392.17 452.675C1390.7 452.675 1389.49 451.466 1389.49 449.988C1389.49 448.51 1390.7 447.302 1392.17 447.302C1393.65 447.302 1394.86 448.51 1394.86 449.988Z" fill="white"/>
<path d="M1419.02 449.988C1419.02 451.466 1417.82 452.675 1416.34 452.675C1414.86 452.675 1413.65 451.466 1413.65 449.988C1413.65 448.51 1414.86 447.302 1416.34 447.302C1417.82 447.302 1419.02 448.51 1419.02 449.988Z" fill="white"/>
<path d="M1443.19 449.988C1443.19 451.466 1441.98 452.675 1440.5 452.675C1439.02 452.675 1437.81 451.466 1437.81 449.988C1437.81 448.51 1439.02 447.302 1440.5 447.302C1441.98 447.302 1443.19 448.51 1443.19 449.988Z" fill="white"/>
<path d="M1319.69 474.151C1321.17 474.151 1322.37 472.948 1322.37 471.464C1322.37 469.981 1321.17 468.778 1319.69 468.778C1318.2 468.778 1317 469.981 1317 471.464C1317 472.948 1318.2 474.151 1319.69 474.151Z" fill="white"/>
<path d="M1343.85 474.151C1345.33 474.151 1346.54 472.948 1346.54 471.464C1346.54 469.981 1345.33 468.778 1343.85 468.778C1342.37 468.778 1341.16 469.981 1341.16 471.464C1341.16 472.948 1342.37 474.151 1343.85 474.151Z" fill="white"/>
<path d="M1368.01 474.151C1369.5 474.151 1370.7 472.948 1370.7 471.464C1370.7 469.981 1369.5 468.778 1368.01 468.778C1366.53 468.778 1365.33 469.981 1365.33 471.464C1365.33 472.948 1366.53 474.151 1368.01 474.151Z" fill="white"/>
<path d="M1394.86 471.464C1394.86 472.943 1393.65 474.151 1392.17 474.151C1390.7 474.151 1389.49 472.943 1389.49 471.464C1389.49 469.986 1390.7 468.778 1392.17 468.778C1393.65 468.778 1394.86 469.986 1394.86 471.464Z" fill="white"/>
<path d="M1419.02 471.464C1419.02 472.943 1417.82 474.151 1416.34 474.151C1414.86 474.151 1413.65 472.943 1413.65 471.464C1413.65 469.986 1414.86 468.778 1416.34 468.778C1417.82 468.778 1419.02 469.986 1419.02 471.464Z" fill="white"/>
<path d="M1440.5 474.151C1441.98 474.151 1443.19 472.948 1443.19 471.464C1443.19 469.981 1441.98 468.778 1440.5 468.778C1439.02 468.778 1437.81 469.981 1437.81 471.464C1437.81 472.948 1439.02 474.151 1440.5 474.151Z" fill="white"/>
<path d="M1322.37 492.94C1322.37 494.419 1321.16 495.627 1319.69 495.627C1318.21 495.627 1317 494.419 1317 492.94C1317 491.462 1318.21 490.254 1319.69 490.254C1321.16 490.254 1322.37 491.462 1322.37 492.94Z" fill="white"/>
<path d="M1346.54 492.94C1346.54 494.419 1345.33 495.627 1343.85 495.627C1342.37 495.627 1341.16 494.419 1341.16 492.94C1341.16 491.462 1342.37 490.254 1343.85 490.254C1345.33 490.254 1346.54 491.462 1346.54 492.94Z" fill="white"/>
<path d="M1370.7 492.94C1370.7 494.419 1369.49 495.627 1368.01 495.627C1366.53 495.627 1365.33 494.419 1365.33 492.94C1365.33 491.462 1366.53 490.254 1368.01 490.254C1369.49 490.254 1370.7 491.462 1370.7 492.94Z" fill="white"/>
<path d="M1394.86 492.94C1394.86 494.419 1393.65 495.627 1392.17 495.627C1390.7 495.627 1389.49 494.419 1389.49 492.94C1389.49 491.462 1390.7 490.254 1392.17 490.254C1393.65 490.254 1394.86 491.462 1394.86 492.94Z" fill="white"/>
<path d="M1419.02 492.94C1419.02 494.419 1417.82 495.627 1416.34 495.627C1414.86 495.627 1413.65 494.419 1413.65 492.94C1413.65 491.462 1414.86 490.254 1416.34 490.254C1417.82 490.254 1419.02 491.462 1419.02 492.94Z" fill="white"/>
<path d="M1443.19 492.94C1443.19 494.419 1441.98 495.627 1440.5 495.627C1439.02 495.627 1437.81 494.419 1437.81 492.94C1437.81 491.462 1439.02 490.254 1440.5 490.254C1441.98 490.254 1443.19 491.462 1443.19 492.94Z" fill="white"/>
</g>
<defs>
<filter id="filter0_d" x="-309" y="-87.0005" width="632.603" height="1642.69" filterUnits="userSpaceOnUse" color-interpolation-filters="sRGB">
<feFlood flood-opacity="0" result="BackgroundImageFix"/>
<feColorMatrix in="SourceAlpha" type="matrix" values="0 0 0 0 0 0 0 0 0 0 0 0 0 0 0 0 0 0 127 0"/>
<feOffset dx="21" dy="13"/>
<feGaussianBlur stdDeviation="44"/>
<feColorMatrix type="matrix" values="0 0 0 0 0.0980392 0 0 0 0 0.562353 0 0 0 0 0.823529 0 0 0 1 0"/>
<feBlend mode="normal" in2="BackgroundImageFix" result="effect1_dropShadow"/>
<feBlend mode="normal" in="SourceGraphic" in2="effect1_dropShadow" result="shape"/>
</filter>
<filter id="filter1_d" x="-88" y="-667" width="2259.22" height="1478.69" filterUnits="userSpaceOnUse" color-interpolation-filters="sRGB">
<feFlood flood-opacity="0" result="BackgroundImageFix"/>
<feColorMatrix in="SourceAlpha" type="matrix" values="0 0 0 0 0 0 0 0 0 0 0 0 0 0 0 0 0 0 127 0"/>
<feMorphology radius="12" operator="erode" in="SourceAlpha" result="effect1_dropShadow"/>
<feOffset dx="-12" dy="24"/>
<feGaussianBlur stdDeviation="17"/>
<feColorMatrix type="matrix" values="0 0 0 0 0 0 0 0 0 0 0 0 0 0 0 0 0 0 0.25 0"/>
<feBlend mode="normal" in2="BackgroundImageFix" result="effect1_dropShadow"/>
<feBlend mode="normal" in="SourceGraphic" in2="effect1_dropShadow" result="shape"/>
</filter>
<clipPath id="clip0">
<rect width="1440" height="1287" fill="white"/>
</clipPath>
</defs>
</svg>
