<svg width="1520" height="598" viewBox="0 0 1520 598" fill="none" xmlns="http://www.w3.org/2000/svg">
<g filter="url(#filter0_d)">
<path fill-rule="evenodd" clip-rule="evenodd" d="M59 148.176L99 196.034C139 243.892 219 339.608 299 339.608C379 339.608 459 243.892 539 223.951C619 205.34 699 262.503 779 281.115C859 301.056 939 281.115 1019 223.951C1099 166.788 1179 71.0716 1259 41.8251C1339 13.908 1419 52.4602 1459 71.0716L1499 89.6831V549.651H1459C1419 549.651 1339 549.651 1259 549.651C1179 549.651 1099 549.651 1019 549.651C939 549.651 859 549.651 779 549.651C699 549.651 619 549.651 539 549.651C459 549.651 379 549.651 299 549.651C219 549.651 139 549.651 99 549.651H59V148.176Z" fill="#7BD5F5"/>
<path fill-rule="evenodd" clip-rule="evenodd" d="M59 148.176L99 196.034C139 243.892 219 339.608 299 339.608C379 339.608 459 243.892 539 223.951C619 205.34 699 262.503 779 281.115C859 301.056 939 281.115 1019 223.951C1099 166.788 1179 71.0716 1259 41.8251C1339 13.908 1419 52.4602 1459 71.0716L1499 89.6831V549.651H1459C1419 549.651 1339 549.651 1259 549.651C1179 549.651 1099 549.651 1019 549.651C939 549.651 859 549.651 779 549.651C699 549.651 619 549.651 539 549.651C459 549.651 379 549.651 299 549.651C219 549.651 139 549.651 99 549.651H59V148.176Z" stroke="#7BD5F5"/>
</g>
<path fill-rule="evenodd" clip-rule="evenodd" d="M59 153.721L99 203.183C139 252.645 219 351.568 299 351.568C379 351.568 459 252.645 539 232.035C619 212.8 699 271.88 779 291.115C859 311.724 939 291.115 1019 232.035C1099 172.956 1179 74.0322 1259 43.8055C1339 14.9528 1419 54.7971 1459 74.0322L1499 93.2674V568.651H1459C1419 568.651 1339 568.651 1259 568.651C1179 568.651 1099 568.651 1019 568.651C939 568.651 859 568.651 779 568.651C699 568.651 619 568.651 539 568.651C459 568.651 379 568.651 299 568.651C219 568.651 139 568.651 99 568.651H59V153.721Z" fill="#1CA7EC"/>
<defs>
<filter id="filter0_d" x="0" y="0" width="1520" height="597.651" filterUnits="userSpaceOnUse" color-interpolation-filters="sRGB">
<feFlood flood-opacity="0" result="BackgroundImageFix"/>
<feColorMatrix in="SourceAlpha" type="matrix" values="0 0 0 0 0 0 0 0 0 0 0 0 0 0 0 0 0 0 127 0"/>
<feOffset dx="-19" dy="8"/>
<feGaussianBlur stdDeviation="20"/>
<feColorMatrix type="matrix" values="0 0 0 0 0.0980392 0 0 0 0 0.562353 0 0 0 0 0.823529 0 0 0 1 0"/>
<feBlend mode="normal" in2="BackgroundImageFix" result="effect1_dropShadow"/>
<feBlend mode="normal" in="SourceGraphic" in2="effect1_dropShadow" result="shape"/>
</filter>
</defs>
</svg>
