<svg width="1440" height="958" viewBox="0 0 1440 958" fill="none" xmlns="http://www.w3.org/2000/svg">
<g clip-path="url(#clip0)">
<rect width="1440" height="962" fill="#149BDE"/>
<path d="M61.2568 639.751C62.4759 637.64 65.5238 637.64 66.7429 639.751L111.775 717.749C112.994 719.86 111.47 722.5 109.032 722.5H18.9678C16.5295 722.5 15.0056 719.86 16.2248 717.749L61.2568 639.751Z" fill="#1CA7EC"/>
<path d="M177.924 639.751C179.143 637.64 182.191 637.64 183.41 639.751L228.442 717.749C229.661 719.86 228.137 722.5 225.699 722.5H135.635C133.197 722.5 131.673 719.86 132.892 717.749L177.924 639.751Z" fill="#1CA7EC"/>
<path d="M61.2568 756.802C62.4759 754.69 65.5238 754.69 66.7429 756.802L111.775 834.799C112.994 836.911 111.47 839.551 109.032 839.551H18.9678C16.5295 839.551 15.0056 836.911 16.2248 834.799L61.2568 756.802Z" fill="#1CA7EC"/>
<path d="M177.924 756.802C179.143 754.69 182.191 754.69 183.41 756.802L228.442 834.799C229.661 836.911 228.137 839.551 225.699 839.551H135.635C133.197 839.551 131.673 836.911 132.892 834.799L177.924 756.802Z" fill="#1CA7EC"/>
<path d="M61.2568 873.085C62.4759 870.973 65.5238 870.973 66.7429 873.085L111.775 951.082C112.994 953.194 111.47 955.833 109.032 955.833H18.9678C16.5295 955.833 15.0056 953.194 16.2248 951.082L61.2568 873.085Z" fill="#1CA7EC"/>
<path d="M177.924 873.085C179.143 870.973 182.191 870.973 183.41 873.085L228.442 951.082C229.661 953.194 228.137 955.833 225.699 955.833H135.635C133.197 955.833 131.673 953.194 132.892 951.082L177.924 873.085Z" fill="#1CA7EC"/>
<path d="M1198.59 -28.2489C1199.81 -30.3605 1202.86 -30.3605 1204.08 -28.2489L1249.11 49.7489C1250.33 51.8605 1248.8 54.5 1246.37 54.5H1156.3C1153.86 54.5 1152.34 51.8605 1153.56 49.7489L1198.59 -28.2489Z" fill="#1CA7EC" fill-opacity="0.51"/>
<path d="M1315.26 -28.2489C1316.48 -30.3605 1319.52 -30.3605 1320.74 -28.2489L1365.77 49.7489C1366.99 51.8605 1365.47 54.5 1363.03 54.5H1272.97C1270.53 54.5 1269.01 51.8605 1270.22 49.7489L1315.26 -28.2489Z" fill="#1CA7EC" fill-opacity="0.51"/>
<path d="M1431.92 -28.2489C1433.14 -30.3605 1436.19 -30.3605 1437.41 -28.2489L1482.44 49.7489C1483.66 51.8605 1482.14 54.5 1479.7 54.5H1389.63C1387.2 54.5 1385.67 51.8605 1386.89 49.7489L1431.92 -28.2489Z" fill="#1CA7EC" fill-opacity="0.51"/>
<path d="M1198.59 88.8017C1199.81 86.69 1202.86 86.6901 1204.08 88.8017L1249.11 166.799C1250.33 168.911 1248.8 171.551 1246.37 171.551H1156.3C1153.86 171.551 1152.34 168.911 1153.56 166.799L1198.59 88.8017Z" fill="#1CA7EC" fill-opacity="0.51"/>
<path d="M1315.26 88.8017C1316.48 86.69 1319.52 86.6901 1320.74 88.8017L1365.77 166.799C1366.99 168.911 1365.47 171.551 1363.03 171.551H1272.97C1270.53 171.551 1269.01 168.911 1270.22 166.799L1315.26 88.8017Z" fill="#1CA7EC" fill-opacity="0.51"/>
<path d="M1431.92 88.8017C1433.14 86.69 1436.19 86.6901 1437.41 88.8017L1482.44 166.799C1483.66 168.911 1482.14 171.551 1479.7 171.551H1389.63C1387.2 171.551 1385.67 168.911 1386.89 166.799L1431.92 88.8017Z" fill="#1CA7EC" fill-opacity="0.51"/>
<path d="M1198.59 205.085C1199.81 202.973 1202.86 202.973 1204.08 205.085L1249.11 283.082C1250.33 285.194 1248.8 287.833 1246.37 287.833H1156.3C1153.86 287.833 1152.34 285.194 1153.56 283.082L1198.59 205.085Z" fill="#1CA7EC" fill-opacity="0.51"/>
<path d="M1315.26 205.085C1316.48 202.973 1319.52 202.973 1320.74 205.085L1365.77 283.082C1366.99 285.194 1365.47 287.833 1363.03 287.833H1272.97C1270.53 287.833 1269.01 285.194 1270.22 283.082L1315.26 205.085Z" fill="#1CA7EC" fill-opacity="0.51"/>
<path d="M1431.92 205.085C1433.14 202.973 1436.19 202.973 1437.41 205.085L1482.44 283.082C1483.66 285.194 1482.14 287.833 1479.7 287.833H1389.63C1387.2 287.833 1385.67 285.194 1386.89 283.082L1431.92 205.085Z" fill="#1CA7EC" fill-opacity="0.51"/>
<path d="M294.59 639.751C295.809 637.64 298.857 637.64 300.076 639.751L345.108 717.749C346.328 719.86 344.804 722.5 342.365 722.5H252.301C249.863 722.5 248.339 719.86 249.558 717.749L294.59 639.751Z" fill="#1CA7EC"/>
<path d="M411.257 639.751C412.476 637.64 415.524 637.64 416.743 639.751L461.775 717.749C462.994 719.86 461.47 722.5 459.032 722.5H368.968C366.53 722.5 365.006 719.86 366.225 717.749L411.257 639.751Z" fill="#1CA7EC"/>
<path d="M527.924 639.751C529.143 637.64 532.191 637.64 533.41 639.751L578.442 717.749C579.661 719.86 578.137 722.5 575.699 722.5H485.635C483.197 722.5 481.673 719.86 482.892 717.749L527.924 639.751Z" fill="#1CA7EC"/>
<path d="M294.59 756.802C295.809 754.69 298.857 754.69 300.076 756.802L345.108 834.799C346.328 836.911 344.804 839.551 342.365 839.551H252.301C249.863 839.551 248.339 836.911 249.558 834.799L294.59 756.802Z" fill="#1CA7EC"/>
<path d="M411.257 756.802C412.476 754.69 415.524 754.69 416.743 756.802L461.775 834.799C462.994 836.911 461.47 839.551 459.032 839.551H368.968C366.53 839.551 365.006 836.911 366.225 834.799L411.257 756.802Z" fill="#1CA7EC"/>
<path d="M527.924 756.802C529.143 754.69 532.191 754.69 533.41 756.802L578.442 834.799C579.661 836.911 578.137 839.551 575.699 839.551H485.635C483.197 839.551 481.673 836.911 482.892 834.799L527.924 756.802Z" fill="#1CA7EC"/>
<path d="M294.59 873.085C295.809 870.973 298.857 870.973 300.076 873.085L345.108 951.082C346.328 953.194 344.804 955.833 342.365 955.833H252.301C249.863 955.833 248.339 953.194 249.558 951.082L294.59 873.085Z" fill="#1CA7EC"/>
<path d="M411.257 873.085C412.476 870.973 415.524 870.973 416.743 873.085L461.775 951.082C462.994 953.194 461.47 955.833 459.032 955.833H368.968C366.53 955.833 365.006 953.194 366.225 951.082L411.257 873.085Z" fill="#1CA7EC"/>
<path d="M527.924 873.085C529.143 870.973 532.191 870.973 533.41 873.085L578.442 951.082C579.661 953.194 578.137 955.833 575.699 955.833H485.635C483.197 955.833 481.673 953.194 482.892 951.082L527.924 873.085Z" fill="#1CA7EC"/>
<g filter="url(#filter0_d)">
<rect x="-1336" y="-115.075" width="705.484" height="2389.84" rx="111" transform="rotate(-64.343 -1336 -115.075)" fill="#1CA7EC"/>
</g>
</g>
<defs>
<filter id="filter0_d" x="-1365.91" y="-788.909" width="2561.49" height="1772.5" filterUnits="userSpaceOnUse" color-interpolation-filters="sRGB">
<feFlood flood-opacity="0" result="BackgroundImageFix"/>
<feColorMatrix in="SourceAlpha" type="matrix" values="0 0 0 0 0 0 0 0 0 0 0 0 0 0 0 0 0 0 127 0"/>
<feOffset dx="21" dy="13"/>
<feGaussianBlur stdDeviation="44"/>
<feColorMatrix type="matrix" values="0 0 0 0 0.0980392 0 0 0 0 0.562353 0 0 0 0 0.823529 0 0 0 1 0"/>
<feBlend mode="normal" in2="BackgroundImageFix" result="effect1_dropShadow"/>
<feBlend mode="normal" in="SourceGraphic" in2="effect1_dropShadow" result="shape"/>
</filter>
<clipPath id="clip0">
<rect width="1440" height="958" fill="white"/>
</clipPath>
</defs>
</svg>
