<svg width="112" height="137" viewBox="0 0 112 137" fill="none" xmlns="http://www.w3.org/2000/svg">
<path d="M50.5162 0.797178C49.7856 1.23516 1.86133 28.8283 1.86133 28.8283L2.29966 51.4576L4.63743 97.7381L57.3834 130.003L62.7895 136.719L111.444 108.542V39.194C111.444 36.2741 109.107 32.6242 106.184 31.0182L54.6073 1.23516C53.0001 0.213196 51.539 0.067201 50.5162 0.797178Z" fill="#222F3D"/>
<path d="M47.8862 56.1293C40.4346 51.8954 33.2751 47.2236 25.3852 43.7197C24.3624 43.2817 23.1935 42.8437 22.1707 42.4057C18.3718 40.2158 14.4269 38.1719 10.4819 35.9819C7.70576 34.522 4.78354 32.332 1.86133 30.7261V28.8281C1.86133 28.8281 49.9318 1.08902 50.6623 0.651034C51.6851 0.0670521 53.0001 0.0670521 54.7534 1.08902L106.33 31.0181C107.207 31.6021 108.084 32.332 108.96 33.208L59.1367 61.9691C55.3379 59.9252 51.3929 58.1732 47.8862 56.1293Z" fill="#486582"/>
<path d="M56.799 60.6553L107.207 31.6022C109.545 33.3542 111.444 36.4201 111.59 38.902L61.0362 68.1011L56.799 60.6553Z" fill="#5A7EA3"/>
<path d="M0.692383 31.4562V100.95L6.09848 104.016V100.512L57.3833 130.003V133.507L62.7894 136.719V67.3711C62.7894 64.4512 60.4517 60.8013 57.5295 59.1954L5.95237 29.2663C3.03015 27.6603 0.692383 28.5363 0.692383 31.4562ZM6.09848 35.9821C6.09848 35.3981 6.53681 35.2521 7.12125 35.5441L56.2145 63.8672C56.7989 64.1592 57.2372 64.8892 57.2372 65.4732V105.038C57.2372 105.622 56.7989 105.768 56.2145 105.476L7.26736 77.2988C6.68292 77.0068 6.24459 76.2768 6.24459 75.6928V35.9821H6.09848Z" fill="#34495E"/>
<path d="M62.9355 125.477V136.719L57.3833 133.653V130.149L6.09848 100.512V104.016L0.692383 100.95V89.7084L62.9355 125.477Z" fill="#2C3E50"/>
<path d="M42.0419 104.162L57.3835 113.068V109.564L42.0419 100.804V104.162Z" fill="#BDC3C7"/>
<path d="M6.09827 89.2705L33.2749 104.892V95.6943L6.09827 80.0727V89.2705Z" fill="#95A5A6"/>
<path d="M27.5769 96.1322L31.2296 98.1761C31.8141 98.4681 32.2524 98.3221 32.2524 97.7382V97.5922C32.2524 97.0082 31.8141 96.2782 31.2296 95.9862L27.5769 93.9423C26.9924 93.6503 26.5541 93.7963 26.5541 94.3803V94.5263C26.5541 95.1102 26.9924 95.8402 27.5769 96.1322Z" fill="#E67E22"/>
<path d="M27.5769 95.8402L31.2296 97.8842C31.8141 98.1762 32.2524 98.0302 32.2524 97.4462V97.3002C32.2524 96.7162 31.8141 95.9862 31.2296 95.6942L27.5769 93.6503C26.9924 93.3583 26.5541 93.5043 26.5541 94.0883V94.2343C26.5541 94.8183 26.9924 95.5482 27.5769 95.8402Z" fill="#F1C40F"/>
<path d="M27.4307 94.8183L31.3757 97.0082C31.6679 97.1542 31.814 97.0082 31.814 96.8622C31.814 96.5702 31.5218 96.2782 31.3757 96.1322L27.4307 93.7963C27.1385 93.6503 26.9924 93.7963 26.9924 93.9423C26.8462 94.3803 27.1385 94.6723 27.4307 94.8183Z" fill="#FFDA47"/>
<path d="M21.0017 92.3363L24.6544 94.3803C25.2389 94.6723 25.6772 94.5263 25.6772 93.9423V93.7963C25.6772 93.2123 25.2389 92.4823 24.6544 92.1903L21.0017 90.1464C20.4172 89.8544 19.9789 90.0004 19.9789 90.5844V90.7304C19.9789 91.3144 20.4172 92.0443 21.0017 92.3363Z" fill="#E67E22"/>
<path d="M21.0017 92.0443L24.6544 94.0883C25.2389 94.3803 25.6772 94.2343 25.6772 93.6503V93.5043C25.6772 92.9203 25.2389 92.1903 24.6544 91.8983L21.0017 89.8544C20.4172 89.5624 19.9789 89.7084 19.9789 90.2924V90.4384C19.9789 91.0224 20.4172 91.7523 21.0017 92.0443Z" fill="#F1C40F"/>
<path d="M20.8557 91.0224L24.8007 93.2123C25.0929 93.3583 25.239 93.2123 25.239 93.0663C25.239 92.7743 24.9468 92.4823 24.8007 92.3363L20.8557 90.1464C20.5635 90.0004 20.4174 90.1464 20.4174 90.2924C20.4174 90.5844 20.5635 90.8764 20.8557 91.0224Z" fill="#FFDA47"/>
<path d="M14.4265 88.5405L18.0792 90.5844C18.6637 90.8764 19.102 90.7304 19.102 90.1464V90.0004C19.102 89.4164 18.6637 88.6864 18.0792 88.3945L14.4265 86.3505C13.842 86.0585 13.4037 86.2045 13.4037 86.7885V86.9345C13.5498 87.5185 13.9881 88.2485 14.4265 88.5405Z" fill="#E67E22"/>
<path d="M14.4265 88.2485L18.0792 90.2924C18.6637 90.5844 19.102 90.4384 19.102 89.8544V89.7084C19.102 89.1244 18.6637 88.3945 18.0792 88.1025L14.4265 86.0585C13.842 85.7665 13.4037 85.9125 13.4037 86.4965V86.6425C13.5498 87.2265 13.9881 87.9565 14.4265 88.2485Z" fill="#F1C40F"/>
<path d="M14.4266 87.3725L18.3716 89.5624C18.6638 89.7084 18.8099 89.5624 18.8099 89.4164C18.8099 89.1245 18.5177 88.8325 18.3716 88.6865L14.4266 86.4965C14.1344 86.2045 13.8422 86.2045 13.8422 86.4965C13.8422 86.7885 14.1344 87.0805 14.4266 87.3725Z" fill="#FFDA47"/>
<path d="M7.99787 87.9565L11.6506 90.0004C12.2351 90.2924 12.6734 90.1464 12.6734 89.5624V86.2045C12.6734 85.6205 12.2351 84.8906 11.6506 84.5986L7.99787 82.5546C7.41343 82.2626 6.9751 82.4086 6.9751 82.9926V86.3505C6.9751 86.9345 7.41343 87.6645 7.99787 87.9565Z" fill="#C0392B"/>
<path d="M7.99787 87.6645L11.6506 89.7084C12.2351 90.0004 12.6734 89.8544 12.6734 89.2704V85.9125C12.6734 85.3285 12.2351 84.5986 11.6506 84.3066L7.99787 82.2626C7.41343 81.9706 6.9751 82.1166 6.9751 82.7006V86.0585C6.9751 86.6425 7.41343 87.3725 7.99787 87.6645Z" fill="#E74C3C"/>
<path d="M7.99806 85.0366L11.6508 87.0805C11.9431 87.2265 12.2353 87.2265 12.2353 86.7885V85.6206C12.2353 85.3286 11.9431 84.8906 11.6508 84.5986L7.99806 82.5546C7.70584 82.4087 7.41362 82.4087 7.41362 82.8466V84.0146C7.26751 84.4526 7.55973 84.8906 7.99806 85.0366Z" fill="#FF5442"/>
<path d="M27.5769 99.1981L31.2296 101.242C31.8141 101.534 32.2524 101.388 32.2524 100.804V100.658C32.2524 100.074 31.8141 99.3441 31.2296 99.0521L27.5769 97.0082C26.9924 96.7162 26.5541 96.8622 26.5541 97.4462V97.5922C26.5541 98.1762 26.9924 98.9061 27.5769 99.1981Z" fill="#E67E22"/>
<path d="M27.5769 98.9061L31.2296 100.95C31.8141 101.242 32.2524 101.096 32.2524 100.512V100.366C32.2524 99.7821 31.8141 99.0521 31.2296 98.7601L27.5769 96.7162C26.9924 96.4242 26.5541 96.5702 26.5541 97.1542V97.3002C26.5541 97.8841 26.9924 98.6141 27.5769 98.9061Z" fill="#F1C40F"/>
<path d="M27.4307 98.0302L31.3757 100.22C31.6679 100.366 31.814 100.22 31.814 100.074C31.814 99.7821 31.5218 99.4901 31.3757 99.3441L27.4307 97.1542C27.1385 97.0082 26.9924 97.1542 26.9924 97.3002C26.8462 97.4462 27.1385 97.8842 27.4307 98.0302Z" fill="#FFDA47"/>
<path d="M21.0017 95.5482L24.6544 97.5922C25.2389 97.8842 25.6772 97.7382 25.6772 97.1542V97.0082C25.6772 96.4242 25.2389 95.6942 24.6544 95.4022L21.0017 93.3583C20.4172 93.0663 19.9789 93.2123 19.9789 93.7963V93.9423C19.9789 94.5263 20.4172 95.1102 21.0017 95.5482Z" fill="#E67E22"/>
<path d="M21.0017 95.2562L24.6544 97.3001C25.2389 97.5921 25.6772 97.4461 25.6772 96.8622V96.7162C25.6772 96.1322 25.2389 95.4022 24.6544 95.1102L21.0017 93.0663C20.4172 92.7743 19.9789 92.9203 19.9789 93.5043V93.6503C19.9789 94.0883 20.4172 94.8182 21.0017 95.2562Z" fill="#F1C40F"/>
<path d="M20.8557 94.2343L24.8007 96.4242C25.0929 96.5702 25.239 96.4242 25.239 96.2782C25.239 95.9862 24.9468 95.6942 24.8007 95.5482L20.8557 93.3583C20.5635 93.2123 20.4174 93.3583 20.4174 93.5043C20.4174 93.6503 20.5635 94.0883 20.8557 94.2343Z" fill="#FFDA47"/>
<path d="M14.4265 91.7523L18.0792 93.7963C18.6637 94.0883 19.102 93.9423 19.102 93.3583V93.2123C19.102 92.6283 18.6637 91.8983 18.0792 91.6063L14.4265 89.5624C13.842 89.2704 13.4037 89.4164 13.4037 90.0004V90.1464C13.5498 90.7304 13.9881 91.4603 14.4265 91.7523Z" fill="#E67E22"/>
<path d="M14.4265 91.4604L18.0792 93.5043C18.6637 93.7963 19.102 93.6503 19.102 93.0663V92.9203C19.102 92.3363 18.6637 91.6064 18.0792 91.3144L14.4265 89.2704C13.842 88.9784 13.4037 89.1244 13.4037 89.7084V89.8544C13.5498 90.4384 13.9881 91.1684 14.4265 91.4604Z" fill="#F1C40F"/>
<path d="M14.4266 90.4384L18.3716 92.6283C18.6638 92.7743 18.8099 92.6283 18.8099 92.4823C18.8099 92.1903 18.5177 91.8984 18.3716 91.7524L14.4266 89.4164C14.1344 89.2704 13.8422 89.4164 13.8422 89.7084C13.8422 89.8544 14.1344 90.2924 14.4266 90.4384Z" fill="#FFDA47"/>
<path d="M6.09827 88.3945L33.2749 104.016V103.286L6.09827 87.6645V88.3945Z" fill="#BDC3C7"/>
<path d="M42.9181 103.87L56.9447 111.9V110.148L42.9181 101.972V103.87Z" fill="#ECF0F1"/>
<path d="M6.09827 44.4498L57.3831 73.9409V71.021L6.09827 41.5299V44.4498Z" fill="#BDC3C7"/>
<path d="M6.09827 44.4498L57.3831 73.9409V73.0649L6.09827 43.5739V44.4498Z" fill="#95A5A6"/>
<path d="M6.09827 42.9899L57.3831 72.481V71.605L6.09827 42.1139V42.9899Z" fill="#ECF0F1"/>
<path d="M9.75098 73.5029L53.7303 98.7601V104.162L9.75098 78.7588V73.5029Z" fill="#7F8C8D"/>
<path d="M9.75098 73.5029L29.9143 61.8233L57.3831 77.4448V96.7162L53.7303 98.7601L9.75098 73.5029Z" fill="#BDC3C7"/>
<path d="M34.153 82.4087L32.3997 80.6567L32.6919 78.9048C32.2535 78.3208 31.8152 77.5908 31.3769 76.8608L29.4774 75.9848L28.7469 73.7949L30.3541 73.5029C30.208 72.9189 30.208 72.335 30.3541 71.751L27.578 69.5611L29.6236 68.3931L31.523 69.707C31.8152 69.4151 30.7924 68.6851 30.5002 68.2471L32.5458 67.0791L34.2991 67.3711L35.468 69.5611C36.0524 69.853 36.6369 70.145 37.2213 70.583L38.3902 69.707L40.1435 71.459L39.8513 73.2109C40.2896 73.7949 40.728 74.5249 41.1663 75.2549L43.0657 76.1308L43.7963 78.3208L42.3352 79.1968C42.3352 79.6347 42.3352 79.9267 42.3352 80.3647L43.9424 82.4087L43.0657 83.7226L41.0202 84.8906C41.0202 84.8906 40.2896 82.8466 39.8513 82.8466L40.1435 85.0366L38.098 86.2045L37.2213 82.5546C36.6369 82.2627 36.0524 81.9707 35.468 81.5327L34.153 82.4087Z" fill="#E67E22"/>
<path d="M34.153 82.4087L32.3997 80.6567L32.6919 78.9048C32.2535 78.3208 31.8152 77.5908 31.3769 76.8608L29.4774 75.9848L28.7469 73.7949L30.3541 73.5029C30.208 72.9189 30.208 72.335 30.3541 71.751L27.578 69.5611L29.6236 68.3931L31.523 69.707C31.8152 69.4151 30.7924 68.6851 30.5002 68.2471L32.5458 67.0791L34.2991 67.3711L35.468 69.5611C36.0524 69.853 36.6369 70.145 37.2213 70.583L38.3902 69.707L40.1435 71.459L39.8513 73.2109C40.2896 73.7949 40.728 74.5249 41.1663 75.2549L43.0657 76.1308L43.7963 78.3208L42.3352 79.1968C42.3352 79.6347 42.3352 79.9267 42.3352 80.3647L43.9424 82.4087L43.0657 83.7226L41.0202 84.8906C41.0202 84.8906 40.2896 82.8466 39.8513 82.8466L40.1435 85.0366L38.098 86.2045L37.2213 82.5546C36.6369 82.2627 36.0524 81.9707 35.468 81.5327L34.153 82.4087Z" fill="#E67E22"/>
<path d="M32.1063 83.5766L30.353 81.8247L30.6452 80.0727C30.2069 79.4887 29.7685 78.7588 29.3302 78.0288L27.4307 77.1528L26.7002 74.9629L28.3074 74.6709C28.1613 74.0869 28.1613 73.5029 28.3074 72.919L26.7002 70.875L27.4307 69.5611L29.3302 70.875C29.6224 70.583 30.0607 70.437 30.6452 70.291L30.353 68.2471L32.1063 68.5391L33.2752 70.729C33.8596 71.021 34.4441 71.313 35.0285 71.751L36.1974 70.875L37.9507 72.627L37.6585 74.3789C38.0968 74.9629 38.5352 75.6929 38.9735 76.4228L40.8729 77.2988L41.6035 79.4887L40.1424 79.7807C40.2885 80.3647 40.2885 80.9487 40.1424 81.5327L41.7496 83.5766L41.0191 84.8906L39.1196 83.5766C38.8274 83.8686 38.3891 84.0146 37.8046 84.1606L38.0968 86.2045L36.3435 85.9125L35.1746 83.7226C34.5902 83.4306 34.0057 83.1386 33.4213 82.7007L32.1063 83.5766Z" fill="#F1C40F"/>
<path d="M29.6227 74.5249C29.6227 77.1528 31.6682 80.3647 34.2982 81.8247C36.9282 83.2846 38.9738 82.4087 38.9738 79.7807C38.9738 77.1528 36.9282 73.9409 34.2982 72.481C31.6682 71.021 29.6227 71.897 29.6227 74.5249Z" fill="#E67E22"/>
<path d="M31.2299 75.4009C31.2299 77.1528 32.5449 79.1968 34.2982 80.2187C36.0515 81.2407 37.3665 80.6567 37.3665 78.9048C37.3665 77.1528 36.0515 75.1089 34.2982 74.0869C32.5449 73.2109 31.2299 73.7949 31.2299 75.4009Z" fill="#F1C40F"/>
<path d="M28.015 58.6114L42.6261 67.0791V61.0933L28.015 52.6256V58.6114Z" fill="#34495E"/>
<path d="M28.015 58.6114L42.6261 67.0791V65.1812L28.015 56.7134V58.6114Z" fill="#2C3E50"/>
<path d="M28.015 55.1075L42.6261 63.5752V62.1153L28.015 53.6476V55.1075Z" fill="#415B75"/>
<path d="M30.0608 60.8013L40.5808 66.7872V65.9112L30.0608 59.9254V60.8013Z" fill="#34495E"/>
<path d="M31.2295 64.7432L39.2656 69.2691V66.0572L31.2295 61.5313V64.7432Z" fill="#2D3F52"/>
<path d="M35.0284 63.7212L36.7818 64.5972V67.8091L35.0284 66.9331V63.7212Z" fill="#486582"/>
<path d="M32.3982 66.3491L38.2426 69.707V68.6851L32.3982 65.3272V66.3491Z" fill="#34495E"/>
<path d="M38.2426 69.707L32.3982 66.3492L35.3204 71.021L38.2426 69.707Z" fill="#304357"/>
<path d="M35.3209 71.021L36.4898 68.6851L34.7365 67.6631L35.3209 71.021Z" fill="#486582"/>
<path d="M34.7361 56.5674L35.7589 57.1514C35.7589 56.1295 35.3206 54.8155 34.4439 53.6475C33.8595 52.9176 32.8367 51.7496 31.2295 51.3116C30.4989 51.0196 29.7684 50.8736 29.1839 50.7276C27.1384 50.2896 25.385 49.7057 23.3395 48.2457C21.5862 46.7857 19.979 44.4498 19.979 43.1359L18.9562 42.5519C18.9562 44.4498 20.7095 47.3697 23.0473 49.1217C25.2389 50.8736 27.4306 51.4576 29.4762 51.8956C30.2067 52.0416 30.7911 52.1876 31.5217 52.4796C32.3984 52.7716 33.275 53.3555 33.8595 54.0855C34.4439 54.8155 34.7361 55.6915 34.7361 56.5674Z" fill="#F1C40F"/>
<path d="M0.692383 91.0224L62.9355 126.791V125.477L0.692383 89.7084V91.0224Z" fill="#4E6D8C"/>
<path d="M53.7307 98.7601L57.3835 96.7162C57.3835 96.7162 57.3835 104.6 57.3835 105.184C57.3835 105.622 56.9452 105.914 56.5068 105.768C56.0685 105.476 53.7307 104.162 53.7307 104.162V98.7601Z" fill="#5C6566"/>
<path d="M6.09827 104.016L9.16659 102.264L6.09827 100.512V104.016Z" fill="#151E26"/>
</svg>
