<svg width="89" height="99" viewBox="0 0 89 99" fill="none" xmlns="http://www.w3.org/2000/svg">
<g clip-path="url(#clip0)">
<path d="M49.9268 41.6111L0 70.6624L38.9646 93.3792L89 64.3279L49.9268 41.6111Z" fill="#4C6B8A"/>
<path d="M47.105 41.5018L2.82202 67.2767L41.8952 89.8843L86.0696 64.2187L47.105 41.5018Z" fill="#5E84AB"/>
<path d="M15.7379 22.6077L5.64404 65.857V22.7169L10.7453 19.7681L15.7379 22.6077Z" fill="#BDC3C7"/>
<path d="M10.6367 68.8057L5.64404 65.8569V22.7168L10.6367 25.6656V68.8057Z" fill="#535B5C"/>
<path d="M49.8182 2.94882L39.7243 46.089L39.6157 2.94882L44.8255 0L49.8182 2.94882Z" fill="#BDC3C7"/>
<path d="M44.7169 49.0378L39.7243 46.089L39.6157 2.94885L44.6084 5.89767L44.7169 49.0378Z" fill="#535B5C"/>
<path d="M15.8465 65.857L10.6367 68.8058V25.6657L15.7379 22.6077L15.8465 65.857Z" fill="#7F8C8D"/>
<path d="M49.8182 53.188L44.6084 56.1368V5.89767L49.8182 2.94885V53.188Z" fill="#7F8C8D"/>
<path d="M14.2185 66.84L12.0477 68.0414V24.7921L14.2185 23.5907V66.84Z" fill="#636D6E"/>
<path d="M48.1901 54.0616L46.1279 55.3722V5.02388L48.1901 3.82251V54.0616Z" fill="#636D6E"/>
<path d="M9.117 28.1776V33.3108L7.9231 32.6555V27.5223L9.117 28.1776Z" fill="#7F8C8D"/>
<path d="M50.1438 2.83972L51.3377 3.60423L9.117 28.1777L7.9231 27.4132L50.1438 2.83972Z" fill="#ECF0F1"/>
<path d="M42.0035 31.1265L41.4608 30.5804C41.1352 30.908 41.4608 31.3449 42.1121 32.4371C42.2206 32.5463 42.2206 32.6555 42.3291 32.7647C42.2206 32.6555 42.1121 32.5463 42.0035 32.4371C41.0267 31.6726 40.5925 31.3449 40.2669 31.6726C39.9413 31.891 40.1584 32.4371 40.5925 33.5292C40.5925 33.6384 40.7011 33.8569 40.8096 33.9661C40.7011 33.8569 40.5925 33.7476 40.484 33.6384C39.6157 32.7647 39.2901 32.3278 38.856 32.5463C38.4218 32.7647 38.6389 33.3108 38.856 34.5122C38.856 34.6214 38.9645 34.8398 38.9645 34.949C38.856 34.8398 38.7474 34.7306 38.7474 34.5122C38.0962 33.5292 37.7706 33.0924 37.3364 33.2016C36.9023 33.3108 37.0108 33.8569 37.0108 35.0582C37.0108 35.1674 37.0108 35.3859 37.0108 35.4951C36.9023 35.3859 36.9023 35.1674 36.7938 35.0582C36.2511 33.9661 36.034 33.5292 35.5999 33.5292C35.1657 33.6384 35.1657 34.1845 35.0572 35.3859C35.0572 35.4951 35.0572 35.7135 35.0572 35.932C34.9486 35.8227 34.9486 35.6043 34.9486 35.4951C34.623 34.2937 34.406 33.8569 33.9718 33.8569C33.5377 33.8569 33.4291 34.4029 33.2121 35.6043C33.2121 35.7135 33.1035 35.932 33.1035 36.1504C33.1035 35.932 32.995 35.8227 32.995 35.7135C32.7779 34.5122 32.6694 33.9661 32.2352 33.9661C31.8011 33.9661 31.584 34.4029 31.2584 35.6043C31.2584 35.7135 31.1499 35.932 31.0413 36.0412C31.0413 35.8227 31.0413 35.7135 31.0413 35.4951C30.9328 34.2937 30.9328 33.7476 30.4986 33.6384C30.0645 33.5292 29.8474 34.0753 29.3047 35.1675C29.1962 35.2767 29.1962 35.4951 29.0877 35.6043C29.0877 35.3859 29.0877 35.2767 29.0877 35.0582C29.1962 33.8569 29.1962 33.3108 28.7621 33.2016C28.3279 33.0924 28.0023 33.5292 27.3511 34.5122C27.2425 34.6214 27.134 34.8398 27.0255 34.949C27.0255 34.7306 27.134 34.6214 27.134 34.4029C27.3511 33.2016 27.4596 32.6555 27.134 32.4371C26.6999 32.2186 26.3742 32.6555 25.6145 33.5292C25.506 33.6384 25.3974 33.7476 25.2889 33.8569C25.2889 33.7476 25.3974 33.5292 25.3974 33.42C25.8316 32.3278 25.9401 31.7818 25.6145 31.4541C25.2889 31.2357 24.8547 31.5633 23.8779 32.3278C23.7694 32.4371 23.6608 32.5463 23.5523 32.6555C23.6608 32.5463 23.6608 32.3278 23.7694 32.2186C24.3121 31.1265 24.6377 30.6896 24.2035 30.362C23.8779 30.0343 23.4438 30.362 22.4669 31.0173C22.3584 31.1265 22.2499 31.2357 22.0328 31.2357C22.1413 31.1265 22.2499 30.908 22.3584 30.7988C23.0096 29.8159 23.3352 29.379 23.1182 29.0514C22.7925 28.7237 22.3584 28.9422 21.273 29.4882C21.1645 29.5975 20.9474 29.5975 20.8389 29.7067C20.9474 29.5975 21.056 29.4882 21.1645 29.379C22.0328 28.5053 22.3584 28.0684 22.1413 27.7408C21.9242 27.3039 21.3816 27.5224 20.2962 27.85C20.1877 27.85 19.9706 27.9592 19.8621 27.9592C19.9706 27.85 20.0791 27.7408 20.1877 27.6316C21.1645 26.8671 21.5986 26.5394 21.3816 26.1026C21.1645 25.6657 20.6218 25.7749 19.5364 25.8841C19.4279 25.8841 19.2108 25.8841 18.9938 25.9933C19.1023 25.8841 19.3194 25.7749 19.4279 25.7749C20.5133 25.2288 20.9474 24.9012 20.8389 24.4643C20.7303 24.0275 20.1877 24.0275 18.9938 24.0275C18.8852 24.0275 18.6682 24.0275 18.4511 24.0275C18.5596 23.9183 18.7767 23.9183 18.8852 23.809C19.9706 23.3722 20.5133 23.1537 20.5133 22.7169L19.7535 22.8261C19.7535 22.7169 19.7535 22.6077 19.8621 22.6077C19.7535 22.7169 19.1023 22.9353 18.6682 23.1537C17.5828 23.5906 17.0401 23.809 17.1486 24.2459C17.2572 24.6828 17.7999 24.6828 18.9938 24.6828C19.2108 24.6828 19.4279 24.6828 19.7535 24.6828C19.5364 24.792 19.3194 24.9012 19.1023 25.0104C18.0169 25.6657 17.5828 25.8841 17.6913 26.321C17.7999 26.7579 18.4511 26.6486 19.645 26.5394C19.8621 26.5394 20.0791 26.4302 20.4047 26.4302C20.1877 26.5394 19.9706 26.7579 19.8621 26.8671C18.8852 27.6316 18.4511 27.9592 18.6682 28.3961C18.8852 28.833 19.4279 28.6145 20.6218 28.2869C20.8389 28.1777 21.056 28.1777 21.3816 28.0684C21.1645 28.2869 21.056 28.5053 20.8389 28.6145C19.9706 29.4882 19.645 29.9251 19.8621 30.2528C20.0791 30.6896 20.6218 30.362 21.7072 29.9251C21.9242 29.8159 22.1413 29.7067 22.3584 29.5975C22.2499 29.8159 22.0328 30.0343 21.9243 30.2528C21.273 31.2357 20.9474 31.6726 21.273 32.0002C21.5986 32.3278 22.0328 32.0002 23.1182 31.3449C23.3352 31.2357 23.5523 31.1265 23.7694 30.908C23.6608 31.1265 23.5523 31.3449 23.4438 31.5633C22.9011 32.6555 22.684 33.2016 23.0096 33.42C23.3352 33.7477 23.7694 33.3108 24.7462 32.5463C24.9633 32.4371 25.0718 32.2186 25.2889 32.1094C25.1803 32.3278 25.0718 32.6555 25.0718 32.7647C24.6377 33.9661 24.5291 34.5122 24.8547 34.7306C25.2889 34.949 25.6145 34.5122 26.3742 33.6384C26.4828 33.42 26.6999 33.3108 26.8084 33.0924C26.8084 33.3108 26.6999 33.6384 26.6999 33.8569C26.4828 35.0582 26.3743 35.6043 26.8084 35.8227C27.2425 36.0412 27.5682 35.4951 28.2194 34.5122C28.3279 34.2937 28.4364 34.0753 28.6535 33.8569C28.6535 34.0753 28.6535 34.4029 28.6535 34.6214C28.2194 36.478 28.2194 37.0241 28.6535 37.1333C29.0877 37.2425 29.3047 36.8057 29.8474 35.6043C29.956 35.3859 30.0645 35.1675 30.173 34.949C30.173 35.1675 30.173 35.4951 30.173 35.7135C30.2816 36.9149 30.2816 37.461 30.7157 37.5702C31.1499 37.6794 31.3669 37.1333 31.8011 35.932C31.9096 35.7135 31.9096 35.4951 32.0182 35.2767C32.0182 35.4951 32.1267 35.8227 32.1267 36.0412C32.3438 37.2425 32.4523 37.7886 32.8864 37.7886C33.3206 37.7886 33.4291 37.2425 33.7547 36.0412C33.7547 35.8227 33.8633 35.6043 33.8633 35.2767C33.9718 35.4951 34.0803 35.7135 34.0803 35.932C34.5145 37.1333 34.623 37.6794 35.0572 37.5702C35.4913 37.461 35.5999 36.9149 35.5999 35.7135C35.5999 35.4951 35.5999 35.1675 35.7084 34.949C35.8169 35.1675 35.9255 35.3859 36.034 35.6043C36.5767 36.6965 36.7938 37.2425 37.2279 37.1333C37.6621 37.0241 37.6621 36.478 37.5535 35.2767C37.5535 35.0582 37.5535 34.7306 37.5535 34.5122C37.6621 34.7306 37.8791 34.949 37.9877 35.1675C38.6389 36.1504 38.9645 36.5873 39.3986 36.478C39.8328 36.2596 39.7242 35.7135 39.3986 34.5122C39.3986 34.2937 39.2901 33.9661 39.1816 33.7476C39.3986 33.9661 39.5072 34.0753 39.7242 34.2937C40.5925 35.1675 40.9181 35.6043 41.3523 35.3859C41.7864 35.1675 41.5694 34.6214 41.0267 33.5292C40.9181 33.3108 40.8096 33.0924 40.7011 32.8739C40.9182 32.9831 41.1352 33.2016 41.3523 33.3108C42.3291 34.0753 42.7633 34.4029 43.0889 34.0753C43.4145 33.7477 43.0889 33.3108 42.5462 32.2186C42.4377 32.0002 42.2206 31.7818 42.1121 31.5633L42.0035 31.1265Z" fill="#F1C40F"/>
<path d="M51.3378 3.604V8.73713L9.11707 33.3106V28.1775L51.3378 3.604Z" fill="#95A5A6"/>
<path d="M51.3378 3.604V5.6791L9.11707 30.2526V28.1775L51.3378 3.604Z" fill="#BDC3C7"/>
<path d="M51.0121 6.33452C51.0121 8.40961 49.2755 11.14 47.2133 12.3414C45.1511 13.5427 43.4146 12.8874 43.4146 10.7031C43.4146 8.62804 45.1511 5.89765 47.2133 4.69628C49.2755 3.49491 51.0121 4.25942 51.0121 6.33452Z" fill="#22303D"/>
<path d="M51.6636 6.7714C51.6636 8.8465 49.927 11.5769 47.8648 12.7783C45.8026 13.9796 44.066 13.3243 44.066 11.14C44.066 9.06493 45.8026 6.33454 47.8648 5.13317C49.927 3.9318 51.6636 4.69631 51.6636 6.7714Z" fill="#34495E"/>
<path d="M17.0403 26.1026C17.0403 28.1777 15.3037 30.9081 13.2415 32.1094C11.1793 33.3108 9.44275 32.6555 9.44275 30.4712C9.44275 28.3961 11.1793 25.6657 13.2415 24.4643C15.3037 23.263 17.0403 24.0275 17.0403 26.1026Z" fill="#22303D"/>
<path d="M17.6914 26.5394C17.6914 28.6145 15.9548 31.3449 13.8927 32.5462C11.8305 33.7476 10.0939 33.0923 10.0939 30.908C10.0939 28.8329 11.8305 26.1025 13.8927 24.9011C15.9548 23.6998 17.6914 24.3551 17.6914 26.5394Z" fill="#34495E"/>
<path d="M39.3984 38.1163L44.2826 41.1744L49.1667 38.1163H39.3984Z" fill="#22303D"/>
<path d="M55.1364 32.5464C55.1364 36.0413 50.2522 38.7717 44.2827 38.7717C38.3132 38.7717 33.4291 35.9321 33.4291 32.5464C33.4291 29.0516 38.3132 26.3212 44.2827 26.3212C50.2522 26.2119 55.1364 29.0516 55.1364 32.5464Z" fill="#34495E"/>
<path d="M55.1364 30.5805C55.1364 34.0754 50.2522 36.8058 44.2827 36.8058C38.3132 36.8058 33.4291 33.9662 33.4291 30.5805C33.4291 27.0856 38.3132 24.3552 44.2827 24.3552C50.2522 24.3552 55.1364 27.0856 55.1364 30.5805Z" fill="#5E84AB"/>
<path d="M49.4926 42.2664L39.3987 85.5158V42.3757L44.4999 39.3176L49.4926 42.2664Z" fill="#BDC3C7"/>
<path d="M44.283 74.8128C53.9938 74.8128 61.8659 70.2653 61.8659 64.6557C61.8659 59.0461 53.9938 54.4987 44.283 54.4987C34.5722 54.4987 26.7001 59.0461 26.7001 64.6557C26.7001 70.2653 34.5722 74.8128 44.283 74.8128Z" fill="#C0392B"/>
<path d="M44.283 71.6454C53.9938 71.6454 61.8659 67.0979 61.8659 61.4883C61.8659 55.8788 53.9938 51.3313 44.283 51.3313C34.5722 51.3313 26.7001 55.8788 26.7001 61.4883C26.7001 67.0979 34.5722 71.6454 44.283 71.6454Z" fill="#E74C3C"/>
<path d="M47.9732 55.5907L45.5854 55.3723L44.3915 56.5737C43.6317 56.5737 42.872 56.6829 42.1122 56.7921L40.3756 55.8092L38.3134 56.5737L39.0732 57.8843C38.5305 58.2119 38.0964 58.5396 37.7708 58.9764L34.4061 58.2119V60.3962L36.9025 61.0515C36.9025 61.4884 35.7086 61.0515 35.2744 61.1607V63.3451L36.5769 64.5464L38.9647 64.1096C39.5073 64.4372 40.1586 64.6556 40.8098 64.8741V66.2939L43.1976 66.6215L44.3915 65.4201C45.1513 65.4201 45.911 65.3109 46.6708 65.2017L48.4073 66.1847L50.4695 65.4201L50.2525 63.7819C50.5781 63.5635 50.7952 63.3451 51.1208 63.0174L53.6171 62.9082L54.1598 61.4884V59.3041C54.1598 59.3041 52.2061 60.0686 51.9891 59.6317L53.4 58.5396V56.3553L50.1439 57.8843C49.6013 57.5566 48.95 57.3382 48.2988 57.1198L47.9732 55.5907Z" fill="#E67E22"/>
<path d="M47.6476 53.4065L45.2598 53.0789L44.0659 54.2802C43.3061 54.2802 42.5464 54.3894 41.7866 54.4987L40.05 53.5157L37.9878 54.4987L38.7476 55.8092C38.2049 56.1369 37.7708 56.4645 37.4452 56.9014L34.9488 57.0106L34.4061 58.4304L36.5769 59.0857C36.5769 59.5226 36.6854 59.9594 36.9025 60.3963L35.1659 61.4885L36.4683 62.6898L38.8561 62.253C39.3988 62.5806 40.05 62.799 40.7012 63.0175V64.4373L43.0891 64.7649L44.283 63.5635C45.0427 63.5635 45.8025 63.4543 46.5622 63.3451L48.2988 64.3281L50.361 63.5635L49.6012 62.253C50.1439 61.9253 50.5781 61.5977 50.9037 61.1608L53.4 61.0516L53.9427 59.6318L51.772 58.9765C51.772 58.5396 51.6634 58.1028 51.4464 57.6659L53.183 56.5738L51.8805 55.3724L49.4927 55.8092C48.95 55.4816 48.2988 55.2632 47.6476 55.0447V53.4065Z" fill="#F1C40F"/>
<path d="M39.2903 56.7921C41.244 55.263 44.9342 54.8262 47.5391 55.9183C50.144 57.0105 50.7952 59.0856 48.8415 60.6146C46.8879 62.1436 43.1976 62.5805 40.5928 61.4883C37.9879 60.5054 37.4452 58.3211 39.2903 56.7921Z" fill="#E67E22"/>
<path d="M41.0268 57.4475C42.3293 56.4645 44.7171 56.1369 46.4537 56.9014C48.1902 57.5567 48.6244 58.9765 47.322 59.9594C46.0195 60.9424 43.6317 61.27 41.8951 60.5055C40.05 59.8502 39.7244 58.5396 41.0268 57.4475Z" fill="#F1C40F"/>
<path d="M44.3914 88.4647L39.3987 85.5159V42.3757L44.3914 45.2153V88.4647Z" fill="#535B5C"/>
<path d="M83.5733 22.4984L73.4794 65.7478L73.3708 22.6076L78.5806 19.6588L83.5733 22.4984Z" fill="#BDC3C7"/>
<path d="M78.4721 68.6966L73.4794 65.7478L73.3708 22.6077L78.3635 25.4473L78.4721 68.6966Z" fill="#535B5C"/>
<path d="M49.6014 85.4066L44.3916 88.4646V45.2153L49.4928 42.2665L49.6014 85.4066Z" fill="#7F8C8D"/>
<path d="M83.573 72.7376L78.3633 75.7956V25.4472L83.573 22.4984V72.7376Z" fill="#7F8C8D"/>
<path d="M47.9731 86.3896L45.8024 87.7002V44.4508L47.9731 43.1403V86.3896Z" fill="#636D6E"/>
<path d="M81.9451 73.7204L79.8829 74.9218V24.6827L81.9451 23.3721V73.7204Z" fill="#636D6E"/>
<path d="M83.8987 22.4984L85.0926 23.1537L42.8719 47.7272L41.678 47.0719L83.8987 22.4984Z" fill="#ECF0F1"/>
<path d="M42.8719 47.7272V52.9695L41.678 52.205V47.0719L42.8719 47.7272Z" fill="#7F8C8D"/>
<path d="M85.0928 23.1538V28.3962L42.8721 52.9696V47.7273L85.0928 23.1538Z" fill="#95A5A6"/>
<path d="M85.0928 23.1538V25.2289L42.8721 49.8024V47.7273L85.0928 23.1538Z" fill="#BDC3C7"/>
<path d="M0 70.6625L38.9646 93.3793V98.6217L0 76.014V70.6625Z" fill="#1C2833"/>
<path d="M89 64.328L38.9646 93.3793V98.6217L89 69.6796V64.328Z" fill="#34495E"/>
<path d="M2.82202 67.2767L41.8952 89.8844V91.741L2.82202 69.0242V67.2767Z" fill="#1C2833"/>
<path d="M86.0695 64.2188L41.8951 89.8844V91.7411L86.0695 65.9662V64.2188Z" fill="#2C3E50"/>
<path d="M84.7671 25.9933C84.7671 28.0684 83.0305 30.7988 80.9683 32.0002C78.9061 33.2016 77.1696 32.5463 77.1696 30.3619C77.1696 28.2869 78.9061 25.5565 80.9683 24.3551C83.0305 23.1537 84.7671 23.9182 84.7671 25.9933Z" fill="#22303D"/>
<path d="M85.4185 26.321C85.4185 28.3961 83.6819 31.1265 81.6197 32.3279C79.5575 33.5293 77.8209 32.874 77.8209 30.6897C77.8209 28.6146 79.5575 25.8842 81.6197 24.6828C83.6819 23.5907 85.4185 24.246 85.4185 26.321Z" fill="#34495E"/>
<path d="M84.2243 27.0854C84.2243 28.5052 83.0304 30.3619 81.6194 31.1264C80.2084 32.0001 79.0145 31.4541 79.0145 30.0343C79.0145 28.6145 80.2084 26.7578 81.6194 25.9933C83.0304 25.1196 84.2243 25.6656 84.2243 27.0854Z" fill="#2C3E50"/>
<path d="M83.2477 27.6316C83.2477 28.5053 82.4879 29.5975 81.6196 30.1436C80.7513 30.6896 79.9916 30.362 79.9916 29.4883C79.9916 28.6146 80.7513 27.5224 81.6196 26.9763C82.4879 26.4302 83.2477 26.7579 83.2477 27.6316Z" fill="#F1C40F"/>
<path d="M50.7952 45.7614C50.7952 47.8365 49.0586 50.5669 46.9964 51.7682C44.9342 52.9696 43.1976 52.3143 43.1976 50.13C43.1976 48.0549 44.9342 45.3245 46.9964 44.1232C49.0586 42.9218 50.7952 43.6863 50.7952 45.7614Z" fill="#22303D"/>
<path d="M51.4464 46.0889C51.4464 48.164 49.7099 50.8944 47.6477 52.0958C45.5855 53.2971 43.8489 52.6418 43.8489 50.4575C43.8489 48.3824 45.5855 45.652 47.6477 44.4507C49.7099 43.2493 51.4464 44.0138 51.4464 46.0889Z" fill="#34495E"/>
<path d="M50.1437 46.8536C50.1437 48.2734 48.9498 50.1301 47.5388 50.8946C46.1279 51.7683 44.934 51.2222 44.934 49.8024C44.934 48.3826 46.1279 46.526 47.5388 45.7615C49.0584 44.8877 50.1437 45.4338 50.1437 46.8536Z" fill="#2C3E50"/>
<path d="M49.1669 47.3996C49.1669 48.2733 48.4071 49.3654 47.5388 49.9115C46.6705 50.4576 45.9108 50.1299 45.9108 49.2562C45.9108 48.3825 46.6705 47.2903 47.5388 46.7443C48.5156 46.1982 49.1669 46.5258 49.1669 47.3996Z" fill="#F1C40F"/>
<path d="M82.705 27.7407C82.705 28.396 82.1623 29.379 81.4025 29.7066C80.7513 30.1435 80.1001 29.925 80.1001 29.1605C80.1001 28.396 80.6428 27.5223 81.4025 27.1946C82.1623 26.7578 82.705 27.0854 82.705 27.7407Z" fill="#FFE67D"/>
<path d="M48.7328 47.5089C48.7328 48.1642 48.1901 49.1471 47.4304 49.4748C46.7792 49.9117 46.1279 49.6932 46.1279 48.9287C46.1279 48.2734 46.6706 47.2905 47.4304 46.9628C48.1901 46.526 48.7328 46.8536 48.7328 47.5089Z" fill="#FFE67D"/>
<path d="M82.9219 70.7717C82.9219 71.7547 82.1621 72.956 81.1853 73.5021C80.2085 74.0482 79.4487 73.7205 79.4487 72.7376C79.4487 71.7546 80.2085 70.5533 81.1853 70.0072C82.1621 69.4611 82.9219 69.7888 82.9219 70.7717Z" fill="#27AE60"/>
<path d="M83.2475 70.9901C83.2475 71.973 82.4877 73.1744 81.5109 73.7205C80.534 74.2666 79.7743 73.9389 79.7743 72.956C79.7743 71.973 80.534 70.7717 81.5109 70.2256C82.4877 69.6795 83.2475 70.0072 83.2475 70.9901Z" fill="#39FF8D"/>
<path opacity="0.7" d="M82.7047 70.7716C82.7047 71.3177 82.162 72.0822 81.5108 72.4098C80.8596 72.7375 80.3169 72.6283 80.3169 72.0822C80.3169 71.5361 80.8596 70.7716 81.5108 70.4439C82.162 70.1163 82.7047 70.2255 82.7047 70.7716Z" fill="white"/>
<path d="M78.1463 72.956L77.3866 73.3929C77.0609 73.6113 76.8439 73.5021 76.8439 73.1745C76.8439 72.8468 77.0609 72.41 77.3866 72.3007L78.1463 71.8639C78.4719 71.6455 78.689 71.7547 78.689 72.0823C78.689 72.3007 78.4719 72.7376 78.1463 72.956Z" fill="#E67E22"/>
<path d="M78.5806 73.1743L77.8209 73.6112C77.4953 73.8296 77.2782 73.7204 77.2782 73.3927C77.2782 73.0651 77.4953 72.6282 77.8209 72.519L78.5806 72.0821C78.9063 71.8637 79.1233 71.9729 79.1233 72.3006C79.1233 72.519 78.9063 72.9559 78.5806 73.1743Z" fill="#F1C40F"/>
<path d="M78.1463 74.485L77.3866 74.9218C77.0609 75.1403 76.8439 75.0311 76.8439 74.7034C76.8439 74.3758 77.0609 73.9389 77.3866 73.8297L78.1463 73.3928C78.4719 73.1744 78.689 73.2836 78.689 73.6113C78.689 73.9389 78.4719 74.2665 78.1463 74.485Z" fill="#E67E22"/>
<path d="M78.5806 74.7035L77.8209 75.1403C77.4953 75.3588 77.2782 75.2496 77.2782 74.9219C77.2782 74.5943 77.4953 74.1574 77.8209 74.0482L78.5806 73.6113C78.9063 73.3929 79.1233 73.5021 79.1233 73.8298C79.1233 74.1574 78.9063 74.485 78.5806 74.7035Z" fill="#F1C40F"/>
<path d="M75.5414 74.3758L74.7817 74.8127C74.4561 75.0311 74.239 74.9219 74.239 74.5943C74.239 74.2666 74.4561 73.8298 74.7817 73.7205L75.5414 73.2837C75.8671 73.0653 76.0841 73.1745 76.0841 73.5021C76.1927 73.8298 75.8671 74.2666 75.5414 74.3758Z" fill="#E67E22"/>
<path d="M75.9755 74.5942L75.2158 75.0311C74.8902 75.2495 74.6731 75.1403 74.6731 74.8126C74.6731 74.485 74.8902 74.0481 75.2158 73.9389L75.9755 73.5021C76.3011 73.2836 76.5182 73.3929 76.5182 73.7205C76.5182 74.0481 76.3011 74.485 75.9755 74.5942Z" fill="#F1C40F"/>
<path d="M75.5414 76.014L74.7817 76.4509C74.4561 76.6693 74.239 76.5601 74.239 76.2325C74.239 75.9048 74.4561 75.4679 74.7817 75.3587L75.5414 74.9219C75.8671 74.7034 76.0841 74.8127 76.0841 75.1403C76.1927 75.3587 75.8671 75.7956 75.5414 76.014Z" fill="#E67E22"/>
<path d="M75.9755 76.2325L75.2158 76.6694C74.8902 76.8878 74.6731 76.7786 74.6731 76.451C74.6731 76.1233 74.8902 75.6864 75.2158 75.5772L75.9755 75.1404C76.3011 74.9219 76.5182 75.0312 76.5182 75.3588C76.5182 75.5772 76.3011 76.0141 75.9755 76.2325Z" fill="#F1C40F"/>
<path d="M73.0453 75.9049L72.2855 76.3418C71.9599 76.5602 71.6343 76.451 71.6343 76.1233C71.6343 75.7957 71.8514 75.3588 72.177 75.2496L72.9367 74.8127C73.2623 74.5943 73.4794 74.7035 73.4794 75.0312C73.5879 75.3588 73.3709 75.6865 73.0453 75.9049Z" fill="#E67E22"/>
<path d="M73.3709 76.1233L72.6112 76.5601C72.2856 76.7786 72.0685 76.6694 72.0685 76.3417C72.0685 76.0141 72.2856 75.5772 72.6112 75.468L73.3709 75.0311C73.6965 74.8127 73.9136 74.9219 73.9136 75.2496C73.9136 75.5772 73.6965 75.9048 73.3709 76.1233Z" fill="#F1C40F"/>
<path d="M73.0454 77.4339L72.2856 77.8708C71.96 78.0892 71.7429 77.98 71.7429 77.6524C71.7429 77.3247 71.96 76.8879 72.2856 76.7787L73.0454 76.3418C73.371 76.1234 73.588 76.2326 73.588 76.5602C73.588 76.8879 73.371 77.3247 73.0454 77.4339Z" fill="#E67E22"/>
<path d="M73.3709 77.6523L72.6112 78.0892C72.2856 78.3076 72.0685 78.1984 72.0685 77.8708C72.0685 77.5431 72.2856 77.1063 72.6112 76.997L73.3709 76.5602C73.6965 76.3417 73.9136 76.451 73.9136 76.7786C73.9136 77.1063 73.6965 77.5431 73.3709 77.6523Z" fill="#F1C40F"/>
<path d="M78.6891 72.41L77.6038 73.0652C77.4953 73.1745 77.3867 73.0652 77.3867 72.956C77.3867 72.8468 77.4953 72.7376 77.6038 72.6284L78.6891 71.9731C78.7977 71.8639 78.9062 71.9731 78.9062 72.0823C78.9062 72.3007 78.7977 72.41 78.6891 72.41Z" fill="#FFE67D"/>
<path d="M78.6891 74.0481L77.6038 74.7034C77.4953 74.8127 77.3867 74.7034 77.3867 74.5942C77.3867 74.485 77.4953 74.3758 77.6038 74.2666L78.6891 73.6113C78.7977 73.5021 78.9062 73.6113 78.9062 73.7205C78.9062 73.8297 78.7977 73.9389 78.6891 74.0481Z" fill="#FFE67D"/>
<path d="M76.1927 73.939L75.1073 74.5943C74.9988 74.7035 74.8903 74.5943 74.8903 74.4851C74.8903 74.3759 74.9988 74.2667 75.1073 74.1574L76.1927 73.5021C76.3012 73.3929 76.4098 73.5021 76.4098 73.6114C76.3012 73.7206 76.3012 73.939 76.1927 73.939Z" fill="#FFE67D"/>
<path d="M76.1927 75.4681L75.1073 76.1234C74.9988 76.2326 74.8903 76.1234 74.8903 76.0141C74.8903 75.9049 74.9988 75.7957 75.1073 75.6865L76.1927 75.0312C76.3012 74.922 76.4098 75.0312 76.4098 75.1404C76.3012 75.3589 76.3012 75.4681 76.1927 75.4681Z" fill="#FFE67D"/>
<path d="M73.5879 75.4681L72.5025 76.1234C72.3939 76.2326 72.2854 76.1234 72.2854 76.0141C72.2854 75.9049 72.3939 75.7957 72.5025 75.6865L73.5879 75.0312C73.6964 74.922 73.8049 75.0312 73.8049 75.1404C73.8049 75.2496 73.6964 75.3588 73.5879 75.4681Z" fill="#FFE67D"/>
<path d="M73.5879 76.997L72.5025 77.6523C72.3939 77.7615 72.2854 77.6523 72.2854 77.5431C72.2854 77.4339 72.3939 77.3246 72.5025 77.2154L73.5879 76.5601C73.6964 76.4509 73.8049 76.5601 73.8049 76.6693C73.8049 76.7786 73.6964 76.997 73.5879 76.997Z" fill="#FFE67D"/>
<path d="M45.0427 94.4714L44.5 94.7991V90.9765L45.0427 90.5397V94.4714Z" fill="#1F2B38"/>
<path d="M46.3451 93.7071L45.6938 94.0347V90.2122L46.3451 89.8845V93.7071Z" fill="#1F2B38"/>
<path d="M47.5393 93.0517L46.8881 93.3793V89.5568L47.5393 89.2291V93.0517Z" fill="#1F2B38"/>
<path d="M48.7329 92.2871L48.0817 92.724V88.7922L48.7329 88.4646V92.2871Z" fill="#1F2B38"/>
<path d="M49.9269 91.632L49.2756 91.9596V88.1371L49.9269 87.8094V91.632Z" fill="#1F2B38"/>
</g>
<defs>
<clipPath id="clip0">
<rect width="89" height="98.6216" fill="white"/>
</clipPath>
</defs>
</svg>
