<svg width="72" height="90" viewBox="0 0 72 90" fill="none" xmlns="http://www.w3.org/2000/svg">
<g clip-path="url(#clip0)">
<path d="M0 19.2217L38.6606 41.5928L72 22.371L33.3394 0L0 19.2217Z" fill="#547699"/>
<path d="M64.0724 22.371L33.3393 4.56104L4.01807 21.5022L34.7511 39.3122L64.0724 22.371Z" fill="#263545"/>
<path d="M0 67.0045L38.6606 89.2669V41.5927L0 19.2217V67.0045Z" fill="#3F5973"/>
<path d="M3.90942 69.1764L34.7511 87.0949V39.3122L3.90942 21.5022V69.1764Z" fill="#263545"/>
<path d="M32.3619 50.0632L54.8415 62.9863L35.0768 74.389L12.5972 61.4659L32.3619 50.0632Z" fill="#5E84AB"/>
<path d="M22.6968 61.466C22.6968 65.0497 27.6923 67.8732 33.8823 67.8732C40.0723 67.8732 45.0678 65.0497 45.0678 61.466C45.0678 57.8822 40.0723 55.0587 33.8823 55.0587C27.6923 55.0587 22.6968 57.8822 22.6968 61.466Z" fill="#9E2F23"/>
<path d="M22.6968 59.4027C22.6968 62.9864 27.6923 65.81 33.8823 65.81C40.0723 65.81 45.0678 62.9864 45.0678 59.4027C45.0678 55.819 40.0723 52.9955 33.8823 52.9955C27.6923 52.9955 22.6968 55.9276 22.6968 59.4027Z" fill="#E67E22"/>
<path d="M33.8826 62.8776C37.781 62.8776 40.9414 61.0787 40.9414 58.8595C40.9414 56.6404 37.781 54.8414 33.8826 54.8414C29.9841 54.8414 26.8237 56.6404 26.8237 58.8595C26.8237 61.0787 29.9841 62.8776 33.8826 62.8776Z" fill="#F39C12"/>
<path d="M33.8826 61.5745C37.781 61.5745 40.9414 59.7756 40.9414 57.5564C40.9414 55.3373 37.781 53.5383 33.8826 53.5383C29.9841 53.5383 26.8237 55.3373 26.8237 57.5564C26.8237 59.7756 29.9841 61.5745 33.8826 61.5745Z" fill="#F1C40F"/>
<path d="M54.8415 62.9863L35.0768 74.389V75.3664L54.8415 63.8551V62.9863Z" fill="#1C2833"/>
<path d="M12.5972 61.4659L35.0768 74.389V75.3664L12.5972 62.3347V61.4659Z" fill="#2C3E50"/>
<path d="M24.9772 29.8641C25.0858 28.2352 25.9545 26.6062 26.8233 25.1945C27.1491 24.7601 27.3663 24.1085 27.6921 23.6741L30.407 22.0451C30.407 22.0451 31.0586 22.2623 31.8188 22.4795C31.9274 22.4795 32.036 22.5881 32.1446 22.5881C32.2532 22.5881 32.3618 22.5881 32.3618 22.6967C32.3618 22.6967 32.3618 22.6967 32.4704 22.6967C32.579 22.6967 32.579 22.6967 32.6876 22.8053C32.6876 22.8053 32.6876 22.8053 32.7962 22.8053C32.9048 22.8053 32.9048 22.8053 33.0134 22.8053H33.122H33.2306H33.3392H33.4478C33.4478 22.8053 33.4478 22.8053 33.5564 22.8053H33.665C33.665 22.8053 33.665 22.8053 33.7736 22.8053V22.6967C33.7736 22.5881 33.7736 22.2623 33.8822 22.0451C33.8822 21.9365 33.8822 21.7193 33.8822 21.6107C33.8822 21.5021 33.8822 21.3936 33.8822 21.285C33.665 20.9592 33.5564 20.742 33.4478 20.5248C33.4478 20.4162 33.3392 20.199 33.3392 19.7646C33.3392 19.8732 33.2306 19.8732 33.0134 19.656C32.6876 19.5474 30.95 19.5474 31.2758 19.5474C31.3844 19.5474 30.1898 18.2442 30.2984 18.4614C30.2984 17.5926 33.2306 16.2895 33.3392 16.1809C33.665 15.9637 34.3165 15.8551 35.1853 16.3981C36.4885 17.1583 37.2487 18.57 37.3573 18.8958C37.3573 19.113 37.3573 19.8732 37.3573 20.6334C37.4659 20.6334 37.6831 20.6334 37.7917 20.8506C38.1174 21.285 37.6831 22.3709 37.4659 22.4795C37.3573 22.5881 37.1401 22.5881 37.0315 22.6967V22.8053C36.9229 22.9139 36.8143 23.0225 36.5971 23.1311C36.5971 23.1311 36.5971 23.1311 36.5971 23.2397C36.5971 23.5655 36.5971 24.4343 36.7057 24.7601C36.8143 25.0859 39.855 27.6922 39.855 27.6922L44.3075 36.8144C44.5247 37.2488 44.5247 37.6831 44.4161 38.0089L42.1355 42.3528L41.9183 42.1356C41.9183 42.2442 41.9183 42.4614 41.8098 42.57C41.7012 42.8958 41.5926 43.3302 41.3754 43.5474C41.1582 43.656 40.8324 43.8732 40.6152 43.9818C40.0722 44.3076 39.5292 44.6334 38.8776 44.9592C38.6604 45.0678 38.769 45.6107 38.769 45.8279C38.769 46.1537 38.769 46.4795 38.6604 46.8053C38.6604 47.4569 38.5518 48.1085 38.5518 48.8687C38.4432 50.1718 38.4432 51.3664 38.3346 52.6696C38.226 54.4071 38.1174 56.1447 38.0088 57.8822C38.0088 58.0994 38.0088 58.3166 38.0088 58.6424L35.2939 60.2714L32.2532 55.2759L30.7328 26.6062L28.5609 28.561L29.8641 34.9682H29.6469C29.6469 34.9682 29.6469 34.9682 29.6469 35.0768L30.2984 35.837C30.2984 35.837 30.2984 35.837 30.2984 35.9456L30.6242 36.7058C30.6242 36.8144 30.6242 36.8144 30.6242 36.8144C30.5156 36.8144 30.2984 36.7058 30.1898 36.4886L29.9726 36.1628V36.2714C29.9726 36.4886 30.2984 37.1402 30.2984 37.2488C30.2984 37.3573 30.1898 37.3574 30.0812 37.3574C29.6469 37.5745 29.2125 37.7917 28.7781 38.0089C28.3437 38.2261 27.9093 38.5519 27.4749 38.7691C27.2577 38.7691 27.2577 38.5519 27.1491 38.4433C26.3889 37.4659 26.2803 36.1628 25.9545 34.9682C25.846 33.2307 24.9772 31.6017 24.9772 29.8641Z" fill="#E67E22"/>
<path d="M31.8187 44.9591L44.6332 37.5745C44.6332 37.6831 44.6332 37.7917 44.5246 37.9003L42.1355 42.3527L41.9183 42.1355C41.9183 42.2441 41.9183 42.4613 41.8097 42.5699C41.7011 42.8957 41.5925 43.3301 41.3753 43.5473C41.1581 43.6559 40.8323 43.8731 40.6151 43.9817L38.8775 44.9591C38.6604 45.0677 38.769 45.6107 38.769 45.8279C38.769 46.1537 38.769 46.4794 38.6604 46.8052C38.6604 47.4568 38.5518 48.1084 38.5518 48.8686C38.4432 50.1717 38.4432 51.3663 38.3346 52.6695C38.226 54.407 38.1174 56.1446 38.0088 57.8822C38.0088 58.0993 38.0088 58.3165 38.0088 58.6423L35.2938 60.2713L32.2531 55.2758L31.8187 44.9591Z" fill="#DB7316"/>
<path d="M31.9272 27.6922C32.253 27.475 32.5788 27.3664 32.796 27.1492C34.9679 29.2125 37.2485 30.9501 38.986 33.7736C38.986 33.8822 39.0946 33.8822 39.0946 33.9908C39.0946 34.5338 39.2032 35.0768 39.529 35.6198C40.5064 37.6831 39.529 41.5926 39.0946 43.5474C38.986 43.9817 38.7688 45.8279 38.7688 45.8279L35.8367 47.5655C35.8367 47.4569 35.8367 44.5247 35.8367 44.3075C35.9453 41.484 33.7734 40.0722 31.6014 40.0722L30.9498 28.0179C31.2756 28.0179 31.6014 27.9094 31.9272 27.6922Z" fill="#D35400"/>
<path d="M27.3662 38.3348C26.606 37.3574 26.4974 36.0542 26.1717 34.8597C25.7373 33.2307 24.8685 31.6017 24.9771 29.8642C25.0857 28.561 25.6287 27.2578 26.1717 26.1719C26.8232 27.1493 27.8006 27.9094 28.8866 28.2352L28.5608 28.561L29.864 34.9683H29.6468C29.6468 34.9683 29.6468 34.9683 29.6468 35.0769L30.2983 35.837C30.2983 35.837 30.2983 35.837 30.2983 35.9456L30.6241 36.7058C30.6241 36.8144 30.6241 36.8144 30.6241 36.8144C30.5155 36.8144 30.2983 36.7058 30.1897 36.4886L29.9726 36.1628V36.2714C29.9726 36.4886 30.2983 37.1402 30.2983 37.2488C30.2983 37.3574 30.1898 37.3574 30.0812 37.3574C29.6468 37.5746 29.2124 37.7918 28.778 38.009L27.4748 38.7692C27.5834 38.6606 27.4748 38.552 27.3662 38.3348Z" fill="#D35400"/>
<path d="M37.0314 30.1899C36.4885 29.3211 35.7283 28.6695 34.8595 28.3437L38.4432 26.2804C39.2034 26.932 39.9636 27.5836 39.9636 27.5836L42.3527 32.579L39.0948 34.4252C38.5518 33.0134 37.7916 31.6017 37.0314 30.1899Z" fill="#F79525"/>
<path d="M36.1627 29.3211L39.5292 27.3663C39.7464 27.5835 39.9636 27.6921 39.9636 27.6921L40.7238 29.3211L37.4659 31.1672C37.2487 30.8414 37.1401 30.5157 36.9229 30.1899C36.8143 29.8641 36.4885 29.5383 36.1627 29.3211Z" fill="#FF9F30"/>
<path d="M32.9049 19.7645C32.6877 19.5473 30.9501 19.5473 31.2759 19.5473C31.3845 19.5473 31.0587 19.113 30.7329 18.8958L35.1854 16.2894H35.294C36.5972 17.0496 37.3573 18.4614 37.4659 18.7872C37.4659 18.8958 37.4659 19.113 37.4659 19.4387L33.8822 21.5021V21.3935C33.665 21.0677 33.5564 20.8505 33.4478 20.6333C33.4478 20.5247 33.3392 20.3075 33.3392 19.8731C33.2306 19.9817 33.1221 19.9817 32.9049 19.7645Z" fill="#F79525"/>
<path d="M37.2486 42.7872H38.0088C38.0088 42.7872 38.1174 42.7872 38.1174 42.6786L38.9862 40.6152L40.2893 41.3754L39.312 43.7646C39.312 43.8732 39.312 44.0903 39.2034 44.1989C39.0948 44.6333 38.769 45.1763 38.769 45.1763C38.769 45.2849 38.6604 45.2849 38.5518 45.1763C38.4432 45.0677 38.4432 44.9591 38.4432 44.9591V45.0677C38.4432 45.1763 38.3346 45.1763 38.226 45.0677C38.1174 44.9591 38.1174 44.8505 38.1174 44.8505C38.1174 44.9591 38.0088 44.9591 37.9002 44.8505C37.7916 44.7419 37.7916 44.6333 37.7916 44.5247L37.9002 44.3075L37.7916 44.4161C37.7916 44.5247 37.683 44.5247 37.5744 44.4161C37.4658 44.3075 37.4658 44.1989 37.4658 44.0903L37.5744 43.8732L37.7916 43.4388C37.7916 43.4388 37.7916 43.4388 37.7916 43.3302L37.2486 43.4388C37.14 43.5474 37.0314 43.4388 36.8142 43.3302C36.7056 43.2216 36.7056 43.2216 36.8142 43.113L37.2486 42.7872Z" fill="#F39C12"/>
<path d="M37.2487 29.2125L41.7012 38.3347C41.9184 38.7691 41.9184 39.2034 41.8098 39.5292L39.4206 43.9817L37.9003 42.57L39.2034 37.5745L34.6423 28.5609L37.2487 29.2125Z" fill="#F1C40F"/>
<path d="M37.2485 33.8822C38.3345 35.294 39.5291 36.5971 40.5065 38.1175C39.8549 39.7465 38.9861 41.2668 38.2259 43.0044L37.7915 42.6786L39.0947 37.6831L37.2485 33.8822Z" fill="#F39C12"/>
<path d="M27.6921 37.3573L26.932 36.5971C26.932 36.4885 26.8234 36.4885 26.8234 36.4885L26.0632 33.3392L24.76 32.6876L25.7374 36.1627C25.7374 36.3799 25.7374 36.4885 25.846 36.7057C25.9546 37.2487 26.2804 38.1175 26.2804 38.1175C26.2804 38.2261 26.389 38.3347 26.4976 38.3347C26.6062 38.3347 26.6062 38.3347 26.6062 38.2261V38.3347C26.6062 38.4433 26.7148 38.5519 26.8234 38.5519C26.932 38.5519 26.932 38.5519 26.932 38.4433C26.932 38.5519 27.0406 38.6605 27.1492 38.6605C27.2577 38.6605 27.2577 38.6605 27.2577 38.4433L27.1492 38.1175L27.2577 38.3347C27.2577 38.4433 27.3663 38.5519 27.4749 38.5519C27.5835 38.5519 27.5835 38.5519 27.5835 38.3347L27.4749 38.0089L27.2577 37.3573C27.2577 37.3573 27.2577 37.3573 27.2577 37.2487L27.4749 37.5745C27.5835 37.7917 27.6921 37.9003 27.9093 37.9003C28.0179 37.9003 28.0179 37.7917 27.9093 37.7917L27.6921 37.3573Z" fill="#F39C12"/>
<path d="M27.692 23.7826L23.2395 27.9093C23.0223 28.1265 23.0223 28.5609 23.1309 28.9953L25.52 36.1627L27.0404 36.5971L25.7372 30.1898L30.4069 26.0631L27.692 23.7826Z" fill="#F1C40F"/>
<path d="M26.0631 26.4976C27.0405 25.9546 27.9093 25.0858 29.1038 24.8687L30.5156 26.0632L25.8459 30.1899L27.1491 36.5972L25.6287 36.1628L23.2396 28.9954C23.131 28.7782 23.131 28.561 23.131 28.4524C23.9998 27.5836 25.0857 27.1492 26.0631 26.4976Z" fill="#F39C12"/>
<path d="M30.2985 25.1944L34.6424 27.6921C35.9456 28.4523 37.0315 30.8415 36.9229 32.6876L35.4026 60.1627L29.6469 56.7962L28.1266 27.4749C27.9094 25.5202 28.9953 24.4342 30.2985 25.1944Z" fill="#F1C40F"/>
<path d="M30.2984 25.1944L30.5156 25.303V57.3392L29.5382 56.7962L28.0179 27.4749C27.9093 25.5202 28.9953 24.4342 30.2984 25.1944Z" fill="#F39C12"/>
<path d="M32.2533 43.0044L33.7736 43.2216L33.665 59.1854L32.1447 58.3166L32.2533 43.0044Z" fill="#F39C12"/>
<path d="M31.0587 23.0225C31.0587 23.3483 31.0587 24.3256 30.9501 24.5428C30.8415 24.76 27.8008 23.7826 27.8008 23.7826C27.8008 23.7826 30.2985 26.4976 32.5791 27.8007C34.8596 29.1039 37.3573 29.3211 37.3573 29.3211C37.3573 29.3211 34.3166 26.8234 34.208 26.389C34.0994 26.0632 34.0994 24.9772 34.0994 24.76L31.0587 23.0225Z" fill="#F1C40F"/>
<path d="M32.036 24.9773C31.3844 24.9773 31.0586 25.0859 30.407 24.7601C29.9727 24.5429 29.5383 24.3257 29.1039 24.1085C29.9727 24.3257 30.8414 24.5429 30.95 24.4343C31.0586 24.2171 31.0586 23.2397 31.0586 22.9139L33.9908 24.5429V24.6515C33.4478 25.4117 32.7962 24.9773 32.036 24.9773Z" fill="#F39C12"/>
<path d="M29.8641 19.3301C29.9727 19.3301 30.1899 19.5473 30.2985 19.6559C30.2985 18.7871 30.1899 18.0269 30.2985 17.9183C30.4071 17.7011 31.1672 17.1582 32.4704 17.9183C33.7736 18.6785 34.5338 20.0903 34.6424 20.4161C34.6424 20.6333 34.6424 21.3935 34.6424 22.1536C34.751 22.1536 34.9682 22.1536 35.0768 22.3708C35.4025 22.8052 34.9682 24.1084 34.751 23.9998C34.5338 23.9998 34.4252 23.8912 34.4252 23.7826C34.4252 24.1084 34.3166 24.3256 34.3166 24.3256C34.0994 24.6514 33.4478 24.8686 33.122 24.76C32.9048 24.76 32.579 24.5428 32.3618 24.4342C32.1446 24.3256 31.9274 24.217 31.6016 23.8912C31.3844 23.5654 30.6243 22.588 30.4071 22.045C30.4071 21.9364 30.2985 21.7192 30.2985 21.2849C30.2985 21.3935 30.1899 21.3935 29.9727 21.1763C29.9727 21.1763 29.5383 19.4387 29.8641 19.3301Z" fill="#F1C40F"/>
<path d="M36.9229 29.2124L35.8369 31.0586L29.1039 24.6514V24.3256L32.3618 26.7147L36.1627 28.5609L36.9229 29.2124Z" fill="#FFD429"/>
<path d="M34.2081 20.3075C34.2081 20.4161 34.0995 23.8912 33.9909 23.9998C33.9909 24.1084 33.2308 24.217 33.1222 24.217C33.0136 24.217 32.0362 23.674 32.0362 23.674C32.0362 23.674 31.6018 22.1536 31.6018 21.502C31.6018 20.959 31.7104 18.4613 31.9276 18.4613C32.362 18.4613 33.7738 19.2215 34.2081 20.3075Z" fill="#FFD429"/>
<path d="M37.2485 29.864L41.4838 38.4432L36.9227 31.2758L37.2485 29.864Z" fill="#FFD429"/>
<path d="M34.7511 76.6697L27.4751 79.3846V39.2036L34.7511 50.2805V76.6697Z" fill="url(#paint0_linear)"/>
<path d="M3.90942 58.8598L11.1854 69.9367V29.7557L3.90942 32.4707V58.8598Z" fill="url(#paint1_linear)"/>
<path d="M33.8823 73.5203V63.2036L4.77825 46.371V56.6877L4.01807 56.2534V45.285L34.6425 62.9864V73.9547L33.8823 73.5203Z" fill="#E74C3C"/>
<path d="M4.45227 56.905L34.3165 74.0633V73.4117L4.45227 56.1448V56.905Z" fill="#E74C3C"/>
<path d="M4.45227 53.3213L34.3165 70.5882V69.8281L4.45227 52.6697V53.3213Z" fill="#E74C3C"/>
<path d="M4.45227 49.7375L34.3165 67.0045V66.3529L4.45227 49.0859V49.7375Z" fill="#E74C3C"/>
<path d="M9.01367 59.1855V48.543L9.77385 48.9774V59.6199L9.01367 59.1855Z" fill="#E74C3C"/>
<path d="M14.009 62.009V51.3665L14.6606 51.8008V62.4434L14.009 62.009Z" fill="#E74C3C"/>
<path d="M19.0045 64.9411V54.2986L19.6561 54.6244V65.2669L19.0045 64.9411Z" fill="#E74C3C"/>
<path d="M23.9999 67.7647V57.1222L24.6515 57.5566V68.1991L23.9999 67.7647Z" fill="#E74C3C"/>
<path d="M28.9955 70.6969V60.0543L29.6471 60.3801V71.0226L28.9955 70.6969Z" fill="#E74C3C"/>
<path d="M6.08137 65.7014L3.90942 25.5204L4.9954 24.8688L6.08137 25.5204V65.7014Z" fill="#FF7769"/>
<path d="M6.08158 65.7014L4.99561 66.353V26.172L6.08158 25.5204V65.7014Z" fill="#C0392B"/>
<path d="M4.9954 66.353L3.90942 65.7014V25.5204L4.9954 26.172V66.353Z" fill="#E74C3C"/>
<path d="M34.7513 83.6199L33.7739 82.9683V42.7874L34.7513 43.4389V83.6199Z" fill="#E74C3C"/>
<path d="M38.6609 89.2669L72.0003 70.0452V22.371L38.6609 41.5927V89.2669Z" fill="#2C3E50"/>
</g>
<defs>
<linearGradient id="paint0_linear" x1="34.7967" y1="63.4886" x2="27.5078" y2="63.4886" gradientUnits="userSpaceOnUse">
<stop stop-color="#E74C3C"/>
<stop offset="0.1198" stop-color="#BB3E31"/>
<stop offset="0.292" stop-color="#832B22"/>
<stop offset="0.4594" stop-color="#541C16"/>
<stop offset="0.6178" stop-color="#30100C"/>
<stop offset="0.7649" stop-color="#150706"/>
<stop offset="0.8967" stop-color="#060201"/>
<stop offset="1"/>
</linearGradient>
<linearGradient id="paint1_linear" x1="3.90899" y1="45.6553" x2="11.1979" y2="45.6553" gradientUnits="userSpaceOnUse">
<stop stop-color="#E74C3C"/>
<stop offset="0.1198" stop-color="#BB3E31"/>
<stop offset="0.292" stop-color="#832B22"/>
<stop offset="0.4594" stop-color="#541C16"/>
<stop offset="0.6178" stop-color="#30100C"/>
<stop offset="0.7649" stop-color="#150706"/>
<stop offset="0.8967" stop-color="#060201"/>
<stop offset="1"/>
</linearGradient>
<clipPath id="clip0">
<rect width="72" height="89.267" fill="white"/>
</clipPath>
</defs>
</svg>
