<svg width="32" height="32" viewBox="0 0 32 32" fill="#149BDE" xmlns="http://www.w3.org/2000/svg">
<path fill-rule="evenodd" clip-rule="evenodd" d="M28 21.3333C28.6838 21.3333 29.2473 21.848 29.3244 22.5111L29.3333 22.6666V25.3333C29.3333 27.4635 27.6681 29.2048 25.5684 29.3265L25.3333 29.3333H6.66667C4.53643 29.3333 2.79512 27.6681 2.67346 25.5683L2.66667 25.3333V22.6666C2.66667 21.9302 3.26363 21.3333 4.00001 21.3333C4.68379 21.3333 5.24735 21.848 5.32437 22.5111L5.33334 22.6666V25.3333C5.33334 26.0171 5.84806 26.5806 6.51118 26.6577L6.66667 26.6666H25.3333C26.0171 26.6666 26.5807 26.1519 26.6577 25.4888L26.6667 25.3333V22.6666C26.6667 21.9302 27.2636 21.3333 28 21.3333ZM15.802 2.68132L15.88 2.67196L16 2.66663L16.1003 2.67034L16.2676 2.69361L16.4162 2.73294L16.5643 2.79152L16.6943 2.86129L16.8339 2.95954L16.9428 3.05715L20.9428 7.05715C21.4635 7.57785 21.4635 8.42207 20.9428 8.94277C20.4221 9.46347 19.5779 9.46347 19.0572 8.94277L17.3333 7.21863V20C17.3333 20.7363 16.7364 21.3333 16 21.3333C15.2636 21.3333 14.6667 20.7363 14.6667 20V7.21863L12.9428 8.94277C12.4221 9.46347 11.5779 9.46347 11.0572 8.94277C10.5365 8.42207 10.5365 7.57785 11.0572 7.05715L15.0572 3.05715C15.1044 3.00996 15.1542 2.96704 15.2063 2.92841L15.3546 2.83285L15.5049 2.76159L15.6453 2.71442L15.802 2.68132Z" fill="white"/>
</svg>
